<?xml version="1.0" encoding="UTF-8" standalone="no"?>
<!-- Created with Inkscape (http://www.inkscape.org/) -->

<svg
   xmlns:dc="http://purl.org/dc/elements/1.1/"
   xmlns:cc="http://creativecommons.org/ns#"
   xmlns:rdf="http://www.w3.org/1999/02/22-rdf-syntax-ns#"
   xmlns:svg="http://www.w3.org/2000/svg"
   xmlns="http://www.w3.org/2000/svg"
   xmlns:sodipodi="http://sodipodi.sourceforge.net/DTD/sodipodi-0.dtd"
   xmlns:inkscape="http://www.inkscape.org/namespaces/inkscape"
   width="150"
   height="150"
   id="svg2995"
   version="1.1"
   inkscape:version="0.48.5 r10040"
   sodipodi:docname="icon.svg">
  <defs
     id="defs2997" />
  <sodipodi:namedview
     id="base"
     pagecolor="#ffffff"
     bordercolor="#666666"
     borderopacity="1.0"
     inkscape:pageopacity="0.0"
     inkscape:pageshadow="2"
     inkscape:zoom="1.4142136"
     inkscape:cx="-218.02027"
     inkscape:cy="-12.75672"
     inkscape:document-units="px"
     inkscape:current-layer="layer1"
     showgrid="false"
     inkscape:window-width="1920"
     inkscape:window-height="1020"
     inkscape:window-x="0"
     inkscape:window-y="27"
     inkscape:window-maximized="1" />
  <metadata
     id="metadata3000">
    <rdf:RDF>
      <cc:Work
         rdf:about="">
        <dc:format>image/svg+xml</dc:format>
        <dc:type
           rdf:resource="http://purl.org/dc/dcmitype/StillImage" />
        <dc:title></dc:title>
      </cc:Work>
    </rdf:RDF>
  </metadata>
  <g
     inkscape:label="Camada 1"
     inkscape:groupmode="layer"
     id="layer1"
     transform="translate(0,-902.3622)">
    <g
       id="g3048"
       transform="matrix(9.3686868,0,0,9.3807749,4.4459391,-8689.9621)"
       inkscape:export-filename="/home/vinicius/Ãrea de trabalho/favicon.png"
       inkscape:export-xdpi="500"
       inkscape:export-ydpi="500">
      <rect
         style="fill:#ffffff;fill-opacity:1;stroke:#ffffff;stroke-width:0.11912842;stroke-opacity:1"
         id="rect3034"
         width="11.456154"
         height="13.759867"
         x="1.8588742"
         y="1023.6782" />
      <g
         id="g3002"
         transform="matrix(0.05337825,0,0,0.05330227,-0.74336536,1005.7871)"
         style="fill:#009688;fill-opacity:1">
        <path
           style="fill:#009688;fill-opacity:1"
           d="m 43.271956,613.00687 c -13.72059,-3.35138 -26.21748,-13.57689 -33.2597,-27.21457 -4.9836997,-9.65123 -4.9385897,-8.55616 -4.9766697,-120.82718 -0.0389,-114.71155 -0.24307,-110.36087 5.7460397,-122.44471 3.73922,-7.54438 14.22284,-17.99526 21.96144,-21.89284 12.68043,-6.38657 7.4164,-6.12255 122.072654,-6.12255 114.16357,0 109.65,-0.2158 122.18425,5.8419 7.12316,3.44256 18.64985,14.938 22.21834,22.1581 5.98997,12.11948 5.78494,7.74995 5.74604,122.4601 -0.0291,85.8629 -0.28809,106.09648 -1.41847,110.82718 -4.28121,17.9171 -19.34153,32.97742 -37.25863,37.25863 -8.16506,1.95101 -215.014784,1.91014 -223.015294,-0.0441 z M 174.80045,584.39953 c 15.69783,-3.95325 32.12377,-16.14178 40.21261,-29.83894 4.23532,-7.17185 8.42141,-18.77736 9.54361,-26.45872 0.39398,-2.69674 1.96946,-6.97174 3.50107,-9.5 2.99234,-4.93951 14.94634,-45.45253 14.93665,-50.62143 -0.0155,-8.27342 -5.09635,-16.25346 -12.48584,-19.61044 -2.55539,-1.16089 -6.40053,-1.82902 -10.60671,-1.84302 l -6.59812,-0.022 -1.76453,-3.91302 c -3.47187,-7.69923 -11.47841,-13.08698 -19.44808,-13.08698 -2.18521,0 -4.25712,-0.45955 -4.60426,-1.02123 -0.34713,-0.56167 3.05595,-13.49917 7.5624,-28.75 8.59355,-29.08245 9.50629,-34.67104 6.73363,-41.22877 -6.7804,-16.03654 -28.88375,-19.0779 -39.28291,-5.40522 -2.2857,3.00521 -5.71691,12.57079 -14.41084,40.17479 -7.53479,23.92364 -11.86572,36.23043 -12.75,36.23043 -0.73654,0 -1.33916,-0.13322 -1.33916,-0.29604 0,-0.16282 -5.13186,-16.60129 -11.40414,-36.52993 -7.75275,-24.63246 -12.22634,-37.31184 -13.97204,-39.60058 -1.41234,-1.85168 -4.91883,-4.53821 -7.7922,-5.97007 -13.465254,-6.71002 -28.218524,-0.26636 -32.443784,14.17019 -1.95675,6.68566 -2.35899,4.90319 12.57003,55.7024 12.90975,43.92822 14.11421,50.33885 10.1346,53.94035 -1.04914,0.94946 -2.88925,4.00836 -4.08913,6.79756 -2.08748,4.85247 -2.16307,6.11142 -1.75195,29.1787 0.33215,18.63676 0.81499,25.46899 2.12768,30.10742 3.86004,13.63946 11.26542,25.35449 21.371954,33.80958 6.13878,5.13569 18.86143,11.78744 26.24898,13.7237 12.08426,3.16725 26.87754,3.11567 39.80048,-0.13877 z m -27.41242,-7.96703 c -14.15887,-1.79777 -25.55151,-7.15026 -34.96549,-16.42748 -7.04915,-6.94674 -10.61319,-12.65943 -14.206874,-22.77177 -2.40767,-6.77503 -2.59286,-8.63896 -2.95352,-29.72823 -0.58916,-34.45122 -2.27104,-33.02098 38.737824,-32.942 31.75068,0.0611 34.06298,0.42459 37.80368,5.942 3.4669,5.11358 2.64519,11.01712 -2.20957,15.87453 l -3.6235,3.62547 -22.21995,0.32229 c -14.13045,0.20496 -22.69921,0.72005 -23.53637,1.41483 -0.72403,0.60089 -1.18094,2.4708 -1.01536,4.15535 0.2558,2.60229 0.9547,3.30335 4.64802,4.66246 10.4267,3.8369 15.31448,11.20439 15.38955,23.19713 0.0343,5.47828 0.45418,7.43862 1.90375,8.88819 2.19565,2.19565 3.82325,2.33814 6.27013,0.54894 3.77126,-2.75761 2.88295,-18.27358 -1.54287,-26.94889 -1.06873,-2.09489 -1.67457,-4.24346 -1.34631,-4.7746 0.32826,-0.53113 2.51835,-0.9657 4.86688,-0.9657 4.14233,0 4.33974,0.14881 6.60044,4.97549 2.80782,5.99481 5.07827,8.25062 11.01148,10.94048 7.33871,3.32705 16.17076,2.33556 21.8633,-2.4544 3.64881,-3.07027 4.62459,-3.07027 8.2734,0 3.09244,2.60211 8.60574,4.52357 13.00631,4.53285 3.7464,0.008 4.01049,1.81011 1.37183,9.3615 -3.30245,9.451 -6.96965,15.27755 -13.93741,22.14408 -12.72933,12.54441 -31.74711,18.76912 -50.18937,16.42748 z m 24.6325,-59.04352 c -3.27556,-1.3069 -6.02056,-3.85559 -6.02056,-5.58997 0,-0.76783 1.55825,-2.04712 3.46277,-2.84288 15.23111,-6.36396 19.26312,-24.98231 8.23811,-38.04049 l -2.60836,-3.08938 3.32519,-11.18983 c 3.59361,-12.09311 5.08383,-14.48177 10.05917,-16.12378 5.76062,-1.90117 12.95267,2.4347 14.08942,8.49409 0.43135,2.29927 -1.67529,11.20054 -7.59464,32.09007 -4.50536,15.89952 -8.90981,30.13844 -9.78767,31.64205 -1.57264,2.69364 -6.70105,5.82655 -9.33512,5.70277 -0.74188,-0.0349 -2.46462,-0.50855 -3.82831,-1.05265 z m 33.17753,-0.55677 c -3.67892,-1.81308 -6.19809,-5.8433 -6.19809,-9.91585 0,-3.33177 10.42112,-39.74987 12.60758,-44.05899 5.8178,-11.46586 21.66155,-5.92413 20.43508,7.14765 -0.37602,4.00763 -11.23138,41.0656 -12.69366,43.33353 -1.45046,2.24962 -6.92064,5.1907 -9.56688,5.1437 -0.70517,-0.0125 -2.76798,-0.75504 -4.58403,-1.65004 z M 104.03515,462.57076 c -0.56935,-1.06384 -1.03264,-3.20134 -1.02953,-4.75 0.003,-1.54866 -5.481474,-21.71574 -12.187964,-44.81574 -6.76292,-23.29443 -12.22123,-43.92705 -12.25564,-46.32684 -0.0539,-3.75678 0.43008,-4.77784 3.67326,-7.75 3.1245,-2.86339 4.48993,-3.42316 8.35001,-3.42316 3.88529,0 5.11888,0.51369 7.80465,3.25 2.801404,2.85412 4.818304,8.36597 16.557914,45.25 7.35237,23.1 14.01214,42.99495 14.79949,44.21101 2.92613,4.51937 9.23952,4.14882 11.74132,-0.68914 0.83879,-1.62203 7.34749,-21.17436 14.46379,-43.44961 7.1163,-22.27525 13.41036,-41.38171 13.9868,-42.45881 4.99437,-9.33207 19.0934,-7.60259 22.09438,2.71025 0.97714,3.35788 -0.1105,7.74611 -12.55747,50.66485 -7.495,25.84371 -14.09837,47.55621 -14.67417,48.25 -0.79907,0.96282 -7.99335,1.26145 -30.38928,1.26145 -27.98649,0 -29.39021,-0.0894 -30.37756,-1.93426 z"
           id="path3014"
           inkscape:connector-curvature="0" />
      </g>
    </g>
  </g>
</svg>
