<?xml version="1.0" encoding="UTF-8" standalone="no"?>
<!-- Created with Inkscape (http://www.inkscape.org/) -->

<svg
   xmlns:dc="http://purl.org/dc/elements/1.1/"
   xmlns:cc="http://creativecommons.org/ns#"
   xmlns:rdf="http://www.w3.org/1999/02/22-rdf-syntax-ns#"
   xmlns:svg="http://www.w3.org/2000/svg"
   xmlns="http://www.w3.org/2000/svg"
   xmlns:sodipodi="http://sodipodi.sourceforge.net/DTD/sodipodi-0.dtd"
   xmlns:inkscape="http://www.inkscape.org/namespaces/inkscape"
   width="160"
   height="70"
   id="svg2"
   version="1.1"
   inkscape:version="0.48.4 r9939"
   sodipodi:docname="lattes.svg">
  <defs
     id="defs4" />
  <sodipodi:namedview
     id="base"
     pagecolor="#ffffff"
     bordercolor="#666666"
     borderopacity="1.0"
     inkscape:pageopacity="0.0"
     inkscape:pageshadow="2"
     inkscape:zoom="4.1979225"
     inkscape:cx="41.63507"
     inkscape:cy="51.584301"
     inkscape:document-units="px"
     inkscape:current-layer="g3267"
     showgrid="false"
     showguides="true"
     inkscape:guide-bbox="true"
     inkscape:window-width="1855"
     inkscape:window-height="1056"
     inkscape:window-x="65"
     inkscape:window-y="24"
     inkscape:window-maximized="1" />
  <metadata
     id="metadata7">
    <rdf:RDF>
      <cc:Work
         rdf:about="">
        <dc:format>image/svg+xml</dc:format>
        <dc:type
           rdf:resource="http://purl.org/dc/dcmitype/StillImage" />
        <dc:title />
      </cc:Work>
    </rdf:RDF>
  </metadata>
  <g
     inkscape:label="Camada 1"
     inkscape:groupmode="layer"
     id="layer1"
     transform="translate(0,-982.3622)">
    <g
       id="g3267"
       transform="matrix(1.2215179,0,0,1.2215179,-0.33524822,-232.4641)">
      <g
         id="g3292"
         transform="matrix(0.94185341,0,0,0.94185341,0.75971694,59.494125)">
        <rect
           style="fill:none;stroke:none"
           id="rect3152"
           width="160.01886"
           height="70.848045"
           x="-0.0094299316"
           y="981.93817"
           transform="matrix(0.81865358,0,0,0.81865358,0.27445215,190.30757)" />
        <path
           style="fill:#2159a6;fill-opacity:1"
           d="m 15.450031,1048.6442 c -2.333372,-0.2453 -4.404117,-0.6029 -4.601656,-0.7948 -0.483113,-0.4692 -1.6191284,-10.2134 -1.6365137,-14.0371 l -0.013933,-3.0636 2.0090717,2.7291 c 3.657419,4.9683 9.104555,8.1332 15.686206,9.1142 6.748448,1.0059 15.311374,-1.9164 20.43433,-6.9737 4.717271,-4.6568 6.861424,-10.2896 6.406003,-16.8289 -0.202925,-2.9138 -0.643895,-4.5376 -2.365003,-8.7083 -0.536078,-1.2991 2.123797,1.8383 3.786091,4.4658 1.987391,3.1413 3.166929,7.2821 3.166929,11.1176 0,10.9941 -6.818498,18.9565 -19.005494,22.1943 -2.834004,0.7529 -5.162036,0.9712 -11.585129,1.0868 -4.421127,0.08 -9.947535,-0.056 -12.280907,-0.3014 z m 9.378147,-11.3627 c -5.512386,-1.4631 -11.151787,-5.5308 -13.702719,-9.8836 -1.091692,-1.8628 -1.1405034,-2.2015 -0.857574,-5.9494 0.972175,-12.8782 6.484752,-20.9084 16.123317,-23.48696 2.984457,-0.79836 10.140068,-0.76771 13.306613,0.0575 2.975602,0.77499 7.109694,2.81306 9.02231,4.44786 l 1.339735,1.1452 -2.279261,-1.1102 c -3.244575,-1.5803 -6.535237,-2.1764 -10.399544,-1.8842 -6.346915,0.48 -12.644564,4.7359 -15.432156,10.429 -1.633463,3.3359 -2.071659,8.9717 -0.987528,12.701 1.662938,5.7203 6.552749,10.8213 12.192856,12.7193 l 2.852465,0.96 -1.681697,0.278 c -2.756989,0.4556 -6.878134,0.2721 -9.496817,-0.4231 z m 9.879766,-7.3286 c -5.706027,-1.3472 -9.157618,-8.2893 -6.786514,-13.6496 1.269931,-2.8708 2.45302,-4.1033 5.168449,-5.3838 4.90967,-2.3153 10.772678,-0.3761 13.205695,4.3679 2.906686,5.6675 0.05132,12.6531 -5.893598,14.4186 -2.537298,0.7535 -3.391835,0.7905 -5.694032,0.2469 z"
           id="path3058"
           inkscape:connector-curvature="0"
           sodipodi:nodetypes="csscsssssssssccsssssscssssscssssssss" />
        <path
           style="fill:#132650;fill-opacity:1"
           d="m 24.839061,1037.2869 c -5.512385,-1.4631 -11.151787,-5.5308 -13.702719,-9.8836 -1.091692,-1.8628 -1.1405033,-2.2015 -0.857573,-5.9494 0.972174,-12.8782 6.484752,-20.9084 16.123316,-23.48696 2.984457,-0.79836 10.140068,-0.76771 13.306614,0.0575 2.9756,0.77499 7.109694,2.81306 9.022309,4.44786 l 1.339735,1.1452 -2.279261,-1.1102 c -3.244575,-1.5803 -6.535237,-2.1764 -10.399544,-1.8842 -6.346915,0.48 -12.644564,4.7359 -15.432156,10.429 -1.633464,3.3359 -2.071659,8.9717 -0.987527,12.701 1.662937,5.7203 6.552748,10.8213 12.192854,12.7193 l 2.852467,0.96 -1.681698,0.278 c -2.756989,0.4556 -6.878134,0.2721 -9.496817,-0.4231 z m 9.879766,-7.3286 c -5.706026,-1.3472 -9.157617,-8.2893 -6.786514,-13.6496 1.269931,-2.8708 2.453021,-4.1033 5.168449,-5.3838 4.90967,-2.3153 10.772677,-0.3761 13.205695,4.3679 2.906686,5.6675 0.05132,12.6531 -5.893598,14.4186 -2.537298,0.7535 -3.391834,0.7905 -5.694032,0.2469 z"
           id="path3058-5"
           inkscape:connector-curvature="0"
           sodipodi:nodetypes="sssssscssssscssssssss" />
        <text
           xml:space="preserve"
           style="font-size:17.8631382px;font-style:normal;font-weight:normal;line-height:125%;letter-spacing:0px;word-spacing:0px;fill:#132650;fill-opacity:1;stroke:none;font-family:Sans"
           x="62.85339"
           y="1014.9194"
           id="text3136"
           sodipodi:linespacing="125%"><tspan
             sodipodi:role="line"
             id="tspan3138"
             x="62.85339"
             y="1014.9194"
             style="font-size:9.8247261px;font-style:normal;font-variant:normal;font-weight:normal;font-stretch:normal;fill:#132650;fill-opacity:1;font-family:Open Sans;-inkscape-font-specification:Open Sans">Currículo</tspan><tspan
             sodipodi:role="line"
             x="62.85339"
             y="1038.7736"
             id="tspan3140"
             style="font-size:21.43576622px;font-style:normal;font-variant:normal;font-weight:bold;font-stretch:normal;fill:#132650;fill-opacity:1;font-family:Open Sans;-inkscape-font-specification:Open Sans Bold">Lattes</tspan></text>
      </g>
    </g>
  </g>
</svg>
