<?xml version="1.0" encoding="UTF-8" standalone="no"?>
<!-- Created with Inkscape (http://www.inkscape.org/) -->

<svg
   xmlns:dc="http://purl.org/dc/elements/1.1/"
   xmlns:cc="http://creativecommons.org/ns#"
   xmlns:rdf="http://www.w3.org/1999/02/22-rdf-syntax-ns#"
   xmlns:svg="http://www.w3.org/2000/svg"
   xmlns="http://www.w3.org/2000/svg"
   xmlns:sodipodi="http://sodipodi.sourceforge.net/DTD/sodipodi-0.dtd"
   xmlns:inkscape="http://www.inkscape.org/namespaces/inkscape"
   width="150"
   height="150"
   id="svg3054"
   version="1.1"
   inkscape:version="0.48.4 r9939"
   sodipodi:docname="Novo documento 2">
  <defs
     id="defs3056" />
  <sodipodi:namedview
     id="base"
     pagecolor="#ffffff"
     bordercolor="#666666"
     borderopacity="1.0"
     inkscape:pageopacity="0.0"
     inkscape:pageshadow="2"
     inkscape:zoom="3.959798"
     inkscape:cx="61.613808"
     inkscape:cy="67.517921"
     inkscape:document-units="px"
     inkscape:current-layer="layer1"
     showgrid="false"
     inkscape:window-width="1863"
     inkscape:window-height="1056"
     inkscape:window-x="57"
     inkscape:window-y="24"
     inkscape:window-maximized="1" />
  <metadata
     id="metadata3059">
    <rdf:RDF>
      <cc:Work
         rdf:about="">
        <dc:format>image/svg+xml</dc:format>
        <dc:type
           rdf:resource="http://purl.org/dc/dcmitype/StillImage" />
        <dc:title></dc:title>
      </cc:Work>
    </rdf:RDF>
  </metadata>
  <g
     inkscape:label="Camada 1"
     inkscape:groupmode="layer"
     id="layer1"
     transform="translate(0,-902.36218)">
    <g
       id="g3164">
      <g
         transform="matrix(0.51991179,0,0,0.51991179,29.322036,360.22426)"
         id="g3129">
        <path
           id="path2995"
           d="m 150.02154,1144.6092 1.915,0 0,-19.4625 10.3825,0 0,-1.8262 -24.59625,0 0,21.0537 c 0,0 -0.50875,2.0638 0.5175,3.8413 1.02625,1.7775 1.33625,2.52 3.03875,3.3437 1.7025,0.825 2.34,0.9588 4.30625,0.9588 1.9675,0 11.62,0 11.62,0 0,0 1.62125,-0.01 2.66125,-0.4 1.03875,-0.395 1.77375,-0.8238 2.37125,-1.4425 0.59625,-0.6175 1.03875,-1.475 1.03875,-1.475 0,0 0.7525,0.9512 1.2775,1.475 0.52375,0.525 1.3775,1.0587 2.05,1.415 0.6725,0.3562 2.36625,0.5 3.17375,0.5 0.8075,0 12.61125,0 12.61125,0 0,0 2.19375,0.12 4.35875,-1.1038 2.165,-1.2237 2.61125,-3.1137 2.825,-4.3875 0.2125,-1.2737 0.2125,-1.4625 0.2125,-1.8637 0,-0.4025 0,-1.97 0,-1.97 l -3.58625,-3.8625 -8.465,-9.1225 -1.4375,1.21 11.5725,12.4687 c 0,0 -0.0775,2.2375 -0.23375,2.9838 -0.1575,0.7462 -0.7625,2.0062 -1.62875,2.5575 -0.865,0.55 -1.71375,1.1225 -3.51875,1.1587 -1.805,0.035 -13.1425,0.035 -13.1425,0.035 0,0 -1.95875,-0.2287 -2.78625,-0.8987 -0.8275,-0.6713 -1.4375,-1.175 -1.78375,-2.1063 -0.34625,-0.9312 -0.47875,-1.97 -0.47875,-1.97 l -1.98125,0 c 0,0 -0.3875,1.97 -0.94,2.7588 -0.5525,0.7887 -1.8275,1.8325 -3.19125,2.0312 -1.36375,0.1988 -7.37125,0.185 -7.37125,0.185 l -5.75875,0 c 0,0 -2.45875,-0.1712 -3.395,-1.0937 -0.9375,-0.9238 -1.56125,-1.5913 -1.825,-2.8425 -0.2625,-1.2525 -0.195,-3.8675 -0.195,-3.8675 l 0,-12.8475 0,-4.8963 10.3825,0 0,19.4625 z m -29.04625,50.4538 c 0,0.5212 -0.14125,1.0375 -0.42,1.5462 -0.28,0.5088 -0.6725,0.9388 -1.175,1.295 -0.55125,0.3838 -1.195,0.6813 -1.93,0.8988 -0.73625,0.215 -1.62375,0.3225 -2.66,0.3225 -1.11,0 -2.11125,-0.09 -2.99875,-0.27 -0.8875,-0.1788 -1.79,-0.445 -2.70875,-0.8013 l 0,-2.2275 0.145,0 c 0.78125,0.565 1.68,0.9975 2.70125,1.3038 1.0225,0.3037 1.98375,0.4575 2.8825,0.4575 1.27,0 2.26,-0.2063 2.9675,-0.62 0.70625,-0.4138 1.06,-0.9638 1.06,-1.6538 0,-0.5925 -0.16625,-1.03 -0.50125,-1.3125 -0.33625,-0.2825 -0.84625,-0.5 -1.52875,-0.6562 -0.51875,-0.12 -1.0775,-0.2188 -1.6825,-0.295 -0.605,-0.08 -1.245,-0.1788 -1.92375,-0.2975 -1.365,-0.2525 -2.38,-0.6813 -3.03875,-1.2888 -0.66125,-0.6112 -0.99,-1.4025 -0.99,-2.3775 0,-1.12 0.545,-2.04 1.6375,-2.755 1.09,-0.715 2.47625,-1.0737 4.155,-1.0737 1.0825,0 2.07625,0.089 2.98125,0.2687 0.90625,0.1788 1.70875,0.4025 2.405,0.6663 l 0,2.1012 -0.145,0 c -0.58625,-0.4325 -1.3575,-0.7875 -2.31625,-1.0737 -0.955,-0.285 -1.93375,-0.4263 -2.935,-0.4263 -1.09625,0 -1.98,0.1963 -2.645,0.5925 -0.66875,0.395 -1.00125,0.905 -1.00125,1.5275 0,0.5588 0.16625,0.9938 0.49875,1.3138 0.32875,0.3162 0.9125,0.5612 1.75,0.7262 0.4425,0.086 1.06875,0.1875 1.885,0.3075 0.81375,0.12 1.50375,0.2425 2.0725,0.3675 1.14625,0.2638 2.00875,0.6638 2.58875,1.1975 0.58,0.53 0.87,1.2763 0.87,2.2363 z m -20.8125,-8.0263 c 0.62875,0.5988 1.11,1.3313 1.44625,2.2025 0.33625,0.8688 0.5025,1.8538 0.5025,2.955 0,1.105 -0.17,2.0925 -0.51375,2.9638 -0.3425,0.8712 -0.82,1.5987 -1.435,2.1787 -0.63625,0.6075 -1.38625,1.0613 -2.25375,1.3675 -0.865,0.3038 -1.85625,0.4575 -2.96625,0.4575 -1.08625,0 -2.0725,-0.1562 -2.96,-0.4662 -0.8875,-0.3125 -1.64125,-0.7638 -2.26375,-1.3588 -0.6225,-0.5925 -1.1,-1.32 -1.435,-2.185 -0.33625,-0.8625 -0.5025,-1.8462 -0.5025,-2.9575 0,-1.0887 0.16625,-2.0675 0.49875,-2.9325 0.32875,-0.8662 0.8125,-1.6087 1.45,-2.225 0.6075,-0.5887 1.36125,-1.0375 2.2625,-1.35 0.9025,-0.31 1.885,-0.4662 2.95,-0.4662 1.10375,0 2.0975,0.1562 2.9775,0.4725 0.88,0.3125 1.62625,0.7612 2.2425,1.3437 z m -0.1875,5.1575 c 0,-1.7362 -0.44875,-3.0775 -1.3475,-4.0225 -0.89875,-0.9412 -2.1225,-1.4137 -3.6775,-1.4137 -1.5675,0 -2.7975,0.4725 -3.6925,1.4137 -0.895,0.945 -1.34,2.2863 -1.34,4.0225 0,1.7575 0.45625,3.1025 1.3675,4.0313 0.91,0.9325 2.1325,1.3987 3.665,1.3987 1.53375,0 2.75375,-0.4662 3.6625,-1.3987 0.91,-0.9288 1.3625,-2.2738 1.3625,-4.0313 z m -17.55625,6.6888 -9.76125,0 0,-13.3838 2.05125,0 0,11.8 7.71,0 0,1.5838 z m -16.1525,0 -2.6625,0 -5.16625,-5.32 -2.8825,0 0,5.32 -2.05125,0 0,-13.3838 4.32125,0 c 0.93,0 1.70875,0.053 2.33125,0.1575 0.61875,0.1038 1.18,0.2913 1.67625,0.5613 0.55875,0.3062 0.99625,0.69 1.31125,1.1562 0.315,0.4638 0.47125,1.0525 0.47125,1.7675 0,0.9625 -0.28,1.77 -0.83875,2.42 -0.55875,0.6513 -1.33,1.1425 -2.31,1.47 l 5.8,5.8513 z m -4.795,-9.6163 c 0,-0.3825 -0.0775,-0.7237 -0.23375,-1.0212 -0.155,-0.2975 -0.41375,-0.5463 -0.77125,-0.7513 -0.29625,-0.1725 -0.65,-0.295 -1.05625,-0.3625 -0.4075,-0.07 -0.88875,-0.1037 -1.44,-0.1037 l -2.415,0 0,5.0525 2.0725,0 c 0.65,0 1.21625,-0.049 1.70125,-0.1475 0.48,-0.1013 0.89,-0.285 1.23,-0.555 0.31125,-0.2513 0.54125,-0.54 0.69,-0.865 0.14875,-0.3288 0.2225,-0.7425 0.2225,-1.2463 z m -14.70875,9.6163 -2.1825,0 -1.51,-3.7313 -6.68375,0 -1.51,3.7313 -2.08375,0 5.61625,-13.3838 2.7375,0 5.61625,13.3838 z m -4.33625,-5.2588 -2.69875,-6.5662 -2.7125,6.5662 5.41125,0 z m -15.13,4.2888 c -0.37875,0.1412 -0.725,0.2762 -1.02875,0.4025 -0.3075,0.125 -0.71125,0.2575 -1.21,0.395 -0.42,0.1137 -0.87625,0.2125 -1.37125,0.2925 -0.49625,0.082 -1.03625,0.1225 -1.63125,0.1225 -1.12125,0 -2.135,-0.135 -3.05125,-0.4088 -0.91625,-0.2725 -1.7125,-0.6987 -2.3875,-1.2825 -0.665,-0.5675 -1.18125,-1.2912 -1.55625,-2.1687 -0.37125,-0.8775 -0.55875,-1.8988 -0.55875,-3.0625 0,-1.1013 0.18125,-2.0863 0.5375,-2.9538 0.36125,-0.8712 0.8775,-1.605 1.55625,-2.2025 0.65375,-0.58 1.44625,-1.025 2.37625,-1.3325 0.93,-0.3037 1.96,-0.4562 3.095,-0.4562 0.8275,0 1.655,0.085 2.47875,0.26 0.8275,0.175 1.74375,0.4787 2.75125,0.9175 l 0,2.1112 -0.155,0 c -0.84875,-0.6175 -1.69125,-1.0675 -2.52875,-1.3475 -0.835,-0.2825 -1.73,-0.4225 -2.68125,-0.4225 -0.78125,0 -1.485,0.11 -2.1075,0.3275 -0.62625,0.2175 -1.185,0.5588 -1.6725,1.0188 -0.4775,0.4512 -0.84875,1.0187 -1.11375,1.7062 -0.265,0.6838 -0.4,1.475 -0.4,2.3738 0,0.9425 0.145,1.7525 0.43875,2.4275 0.29375,0.6775 0.67125,1.23 1.135,1.6537 0.485,0.445 1.05,0.7725 1.69375,0.985 0.6475,0.2113 1.33,0.3188 2.0475,0.3188 0.9875,0 1.91375,-0.1475 2.77625,-0.4425 0.8625,-0.2913 1.66875,-0.7325 2.4225,-1.3188 l 0.145,0 0,2.0863 z m -30.5412497,-10.8763 c 0.63,0.5988 1.11,1.3313 1.44625,2.2025 0.33625,0.8688 0.5025,1.8538 0.5025,2.955 0,1.105 -0.17,2.0925 -0.5125,2.9638 -0.34375,0.8712 -0.82125,1.5987 -1.43625,2.1787 -0.63625,0.6075 -1.38625,1.0613 -2.2525,1.3675 -0.86625,0.3038 -1.85625,0.4575 -2.9675,0.4575 -1.085,0 -2.0725003,-0.1562 -2.9600003,-0.4662 -0.8875,-0.3125 -1.64125,-0.7638 -2.26375,-1.3588 -0.6225,-0.5925 -1.09875,-1.32 -1.435,-2.185 -0.33625,-0.8625 -0.5025,-1.8462 -0.5025,-2.9575 0,-1.0887 0.16625,-2.0675 0.49875,-2.9325 0.32875,-0.8662 0.81375,-1.6087 1.45,-2.225 0.60875,-0.5887 1.36125,-1.0375 2.26375,-1.35 0.90125,-0.31 1.8850003,-0.4662 2.9487503,-0.4662 1.10375,0 2.0975,0.1562 2.9775,0.4725 0.88125,0.3125 1.6275,0.7612 2.2425,1.3437 z m -0.1875,5.1575 c 0,-1.7362 -0.44875,-3.0775 -1.3475,-4.0225 -0.8975,-0.9412 -2.12125,-1.4137 -3.6775,-1.4137 -1.5662503,0 -2.7975003,0.4725 -3.6925003,1.4137 -0.895,0.945 -1.34,2.2863 -1.34,4.0225 0,1.7575 0.45625,3.1025 1.36875,4.0313 0.90875,0.9325 2.1325003,1.3987 3.6637503,1.3987 1.535,0 2.755,-0.4662 3.66375,-1.3987 0.90875,-0.9288 1.36125,-2.2738 1.36125,-4.0313 z m -18.0550003,6.6888 -2.18125,0 -1.51,-3.7313 -6.68375,0 -1.51125,3.7313 -2.0825,0 5.61625,-13.3838 2.7375,0 5.615,13.3838 z m -4.335,-5.2588 -2.69875,-6.5662 -2.7125,6.5662 5.41125,0 z m 1.68625,-12.65 c -0.0738,0.9113 -0.3425,1.5988 -0.79875,2.0588 -0.45625,0.4637 -1.065,0.6937 -1.8325,0.6937 -0.375,0 -0.7175,-0.059 -1.03625,-0.175 -0.3175,-0.1162 -0.61875,-0.2887 -0.90125,-0.51 -0.325,-0.2575 -0.60125,-0.45 -0.82375,-0.5787 -0.22625,-0.13 -0.47125,-0.1938 -0.7425,-0.1938 -0.3575,0 -0.62625,0.135 -0.80625,0.405 -0.18125,0.27 -0.28375,0.6325 -0.31125,1.0888 l -1.35875,0 c 0.0563,-0.905 0.32875,-1.5888 0.8175,-2.0488 0.49125,-0.4637 1.0925,-0.6937 1.80375,-0.6937 0.34625,0 0.67875,0.059 1,0.175 0.3225,0.1162 0.62625,0.2825 0.91625,0.5 0.325,0.245 0.615,0.4287 0.86625,0.5525 0.25125,0.1225 0.49125,0.1837 0.72125,0.1837 0.35125,0 0.62625,-0.1375 0.825,-0.4137 0.19375,-0.2763 0.30375,-0.6238 0.325,-1.0438 l 1.33625,0 z m -17.2125,14.0888 c 0,0.5212 -0.14125,1.0375 -0.42125,1.5462 -0.27875,0.5088 -0.67125,0.9388 -1.17375,1.295 -0.55125,0.3838 -1.195,0.6813 -1.93125,0.8988 -0.735,0.215 -1.6225,0.3225 -2.65875,0.3225 -1.11125,0 -2.11125,-0.09 -2.99875,-0.27 -0.88875,-0.1788 -1.79,-0.445 -2.71,-0.8013 l 0,-2.2275 0.145,0 c 0.7825,0.565 1.68,0.9975 2.7025,1.3038 1.02125,0.3037 1.98375,0.4575 2.8825,0.4575 1.26875,0 2.26,-0.2063 2.96625,-0.62 0.7075,-0.4138 1.06125,-0.9638 1.06125,-1.6538 0,-0.5925 -0.16625,-1.03 -0.5025,-1.3125 -0.335,-0.2825 -0.845,-0.5 -1.5275,-0.6562 -0.52,-0.12 -1.07875,-0.2188 -1.68375,-0.295 -0.60375,-0.08 -1.24375,-0.1788 -1.92375,-0.2975 -1.365,-0.2525 -2.38,-0.6813 -3.0375,-1.2888 -0.66125,-0.6112 -0.99,-1.4025 -0.99,-2.3775 0,-1.12 0.545,-2.04 1.6375,-2.755 1.08875,-0.715 2.475,-1.0737 4.155,-1.0737 1.0825,0 2.07625,0.089 2.98125,0.2687 0.905,0.1788 1.70875,0.4025 2.405,0.6663 l 0,2.1012 -0.145,0 c -0.5875,-0.4325 -1.3575,-0.7875 -2.31625,-1.0737 -0.955,-0.285 -1.935,-0.4263 -2.935,-0.4263 -1.09625,0 -1.98125,0.1963 -2.64625,0.5925 -0.6675,0.395 -1,0.905 -1,1.5275 0,0.5588 0.16625,0.9938 0.49875,1.3138 0.32875,0.3162 0.9125,0.5612 1.75,0.7262 0.4425,0.086 1.06875,0.1875 1.885,0.3075 0.81375,0.12 1.5025,0.2425 2.0725,0.3675 1.14625,0.2638 2.00875,0.6638 2.58875,1.1975 0.58,0.53 0.87,1.2763 0.87,2.2363 z m 176.81125,-60.9088 -7.32625,6.995 c -4.99,-5.2587 -10.59375,-7.8875 -16.8225,-7.8875 -5.27125,0 -9.70125,1.7988 -13.3,5.3863 -3.6,3.5862 -5.39875,8.015 -5.39875,13.2737 0,3.6638 0.79125,6.9188 2.38625,9.7513 1.595,2.8475 3.855,5.0812 6.765,6.7012 2.9225,1.6213 6.165,2.425 9.72625,2.425 3.0375,0 5.82,-0.5612 8.3475,-1.6975 2.45,-1.1062 5.6875,-3.0862 8.61,-5.9612 -1.66625,2.48 -2.87125,7.2287 -3.01,10.05 -0.13875,2.8212 0.009,3.2437 0.24375,4.7112 -0.4775,0.24 -1.495,0.46 -1.96375,0.6588 -3.6125,1.5312 -7.735,2.2975 -12.38125,2.2975 -8.53875,0 -15.54625,-2.7063 -20.99625,-8.1313 -5.4375,-5.4237 -8.16875,-12.3675 -8.16875,-20.8425 0,-5.4887 1.2375,-10.365 3.72625,-14.6275 2.47625,-4.2637 6.025,-7.6837 10.65875,-10.275 4.62,-2.5912 9.59875,-3.8937 14.93375,-3.8937 4.54375,0 8.90875,0.9575 13.10875,2.885 4.19875,1.915 7.82375,4.6462 10.86125,8.1812 z m -190.0025,-9.6875 10.39,0 0,55.0125 -10.39,0 0,-55.0125 z m 68.9425,9.6875 -7.3274997,6.995 c -4.99,-5.2587 -10.59375,-7.8875 -16.8225,-7.8875 -5.2712503,0 -9.7000003,1.7988 -13.3000003,5.3863 -3.6,3.5862 -5.39875,8.015 -5.39875,13.2737 0,3.6638 0.79125,6.9188 2.38625,9.7513 1.59625,2.8475 3.855,5.0812 6.765,6.7012 2.9225,1.6213 6.165,2.425 9.7262503,2.425 3.0375,0 5.82,-0.5612 8.3475,-1.6975 2.515,-1.135 5.28375,-3.19 8.29625,-6.19 l 7.1099997,7.4025 c -4.07125,3.97 -7.9137497,6.7138 -11.5262497,8.2463 -3.61250004,1.5312 -7.735,2.2975 -12.38125,2.2975 -8.5387503,0 -15.5462503,-2.7063 -20.9962503,-8.1313 -5.4375,-5.4237 -8.16875,-12.3675 -8.16875,-20.8425 0,-5.4887 1.23875,-10.365 3.7275,-14.6275 2.47625,-4.2637 6.02375,-7.6837 10.6575,-10.275 4.62,-2.5912 9.59875,-3.8937 14.9337503,-3.8937 4.54375,0 8.90874996,0.9575 13.10875,2.885 4.19875,1.915 7.8237497,4.6462 10.8624997,8.1812 z m 187.5075,-4.1412 -1.915,0 0,20.7337 -10.3825,0 0,1.8263 12.68875,0 -0.21625,-9.6463 12.12375,-0.095 0,-11.3125 c 0,0 0.50875,-2.0637 -0.5175,-3.8412 -1.02625,-1.7775 -1.33625,-2.52 -3.03875,-3.3438 -1.7025,-0.825 -2.34,-0.9587 -4.30625,-0.9587 -1.9675,0 -11.62,0 -11.62,0 0,0 -1.62125,0 -2.66125,0.4 -1.03875,0.395 -1.77375,0.8237 -2.37125,1.4425 -0.59625,0.6187 -1.03875,1.475 -1.03875,1.475 0,0 -0.7525,-0.95 -1.27625,-1.475 -0.525,-0.525 -1.37875,-1.0588 -2.05125,-1.415 -0.6725,-0.355 -2.36625,-0.4988 -3.17375,-0.4988 -0.8075,0 -12.61125,0 -12.61125,0 0,0 -2.19375,-0.12 -4.35875,1.1025 -2.165,1.2238 -2.61125,3.1138 -2.82375,4.3875 -0.21375,1.2738 -0.21375,1.4625 -0.21375,1.8638 0,0.4025 0,1.97 0,1.97 l 3.58625,3.8637 8.46625,9.1213 1.43625,-1.21 -11.5725,-12.4688 c 0,0 0.0775,-2.2375 0.235,-2.9837 0.15625,-0.7463 0.76125,-2.0063 1.6275,-2.5563 0.865,-0.5512 1.71375,-1.1237 3.51875,-1.16 1.805,-0.035 13.1425,-0.035 13.1425,-0.035 0,0 1.95875,0.2288 2.78625,0.8988 0.8275,0.6712 1.4375,1.175 1.78375,2.1062 0.34625,0.9325 0.47875,1.9713 0.47875,1.9713 l 1.98125,0 c 0,0 0.3875,-1.9713 0.94,-2.76 0.5525,-0.7888 1.8275,-1.8325 3.19125,-2.0313 1.36375,-0.1987 7.37125,-0.185 7.37125,-0.185 l 5.75875,0 c 0,0 2.45875,0.1713 3.395,1.095 0.9375,0.9225 1.56125,1.59 1.825,2.8425 0.2625,1.2513 0.195,3.8663 0.195,3.8663 l 0.16875,7.9575 -10.3825,0 -0.16875,-10.9475 z m -176.82125,-5.5463 10.25,0 12.7125,38.3688 12.905,-38.3688 10.09625,0 9.26625,55.0125 -10.09625,0 -5.91,-34.7437 -11.70375,34.7437 -9.22875,0 -11.55125,-34.7437 -6.025,34.7437 -10.21125,0 9.49625,-55.0125 z"
           style="fill:#5b7a99;fill-opacity:1;fill-rule:evenodd;stroke:none"
           inkscape:connector-curvature="0" />
        <g
           style="fill-rule:evenodd;stroke:#5c7a99;stroke-opacity:1"
           id="g2997"
           transform="matrix(1.25,0,0,1.25,-181.44342,332.26562)">
          <path
             id="path2999"
             d="m 285.248,677.604 c 11.218,-9.465 20.923,-17.683 28.116,-15.566 7.192,2.117 12.041,11.456 1.309,21.792"
             style="fill:none;stroke:#5c7a99;stroke-width:1.72281003;stroke-opacity:1"
             inkscape:connector-curvature="0" />
          <path
             id="path3001"
             d="m 291.034,682.336 c 5.041,-4.234 10.709,-8.717 16.357,-11.831 4.893,-2.615 7.459,0.872 5.547,3.985 l -3.545,4.11"
             style="fill:none;stroke:#5c7a99;stroke-width:1.72281003;stroke-opacity:1"
             inkscape:connector-curvature="0" />
          <path
             id="path3003"
             d="m 302.997,672.996 c 11.082,8.842 18.412,18.804 23.757,28.268 5.206,10.461 -0.919,29.638 -22.899,25.279"
             style="fill:none;stroke:#5c7a99;stroke-width:1.72281003;stroke-opacity:1"
             inkscape:connector-curvature="0" />
          <path
             id="path3005"
             d="m 297.205,677.479 c 9.84,8.593 17.538,18.928 22.761,28.268 2.535,5.604 -1.821,14.196 -11.397,13.325"
             style="fill:none;stroke:#5c7a99;stroke-width:1.72281003;stroke-opacity:1"
             inkscape:connector-curvature="0" />
          <path
             id="path3007"
             d="m 304.774,696.906 c 2.089,1.992 3.167,4.981 4.496,7.845 6.576,28.019 -29.17,37.234 -41.407,22.042"
             style="fill:none;stroke:#5c7a99;stroke-width:1.72281003;stroke-opacity:1"
             inkscape:connector-curvature="0" />
          <path
             id="path3009"
             d="m 304.198,684.826 c -4.073,6.227 -8.751,11.208 -11.593,18.431 -1.58,5.977 -1.924,12.701 4.089,18.928"
             style="fill:none;stroke:#5c7a99;stroke-width:1.72281003;stroke-opacity:1"
             inkscape:connector-curvature="0" />
          <path
             id="path3011"
             d="m 309.728,690.057 c -3.545,4.109 -6.731,9.215 -9.289,13.947 -1.665,3.238 -1.62,8.841 1.586,11.083"
             style="fill:none;stroke:#5c7a99;stroke-width:1.72281003;stroke-opacity:1"
             inkscape:connector-curvature="0" />
          <path
             id="path3013"
             d="m 300.82,703.506 c 8.718,17.434 -14.351,28.392 -25.171,18.679"
             style="fill:none;stroke:#5c7a99;stroke-width:1.72428;stroke-opacity:1"
             inkscape:connector-curvature="0" />
          <path
             id="path3015"
             d="m 276.736,698.275 c 8.759,14.57 0.562,30.51 -18.113,30.261 -11.327,-0.374 -19.608,-13.574 -11.794,-28.891 2.944,-5.604 6.735,-9.464 10.166,-14.321"
             style="fill:none;stroke:#5c7a99;stroke-width:1.72281003;stroke-opacity:1"
             inkscape:connector-curvature="0" />
          <path
             id="path3017"
             d="m 285.352,687.815 c -4.683,5.355 -9.364,10.46 -13.179,16.064 -2.786,3.238 -3.605,8.344 -1.668,12.204"
             style="fill:none;stroke:#5c7a99;stroke-width:1.72281003;stroke-opacity:1"
             inkscape:connector-curvature="0" />
          <path
             id="path3019"
             d="m 274.284,677.977 c 8.012,5.853 14.756,13.2 21.138,19.8"
             style="fill:none;stroke:#5c7a99;stroke-width:1.72084999;stroke-opacity:1"
             inkscape:connector-curvature="0" />
          <path
             id="path3021"
             d="m 280.324,682.336 c -5.443,6.226 -11.123,11.581 -15.333,18.679 -3.933,5.106 -4.411,12.453 -1.776,19.8"
             style="fill:none;stroke:#5c7a99;stroke-width:1.72281003;stroke-opacity:1"
             inkscape:connector-curvature="0" />
          <path
             id="path3023"
             d="m 271.654,705.374 c 2.546,4.856 1.292,14.196 -10.801,15.192 -5.227,-0.249 -12.361,-6.475 -6.731,-17.06 2.303,-4.359 4.847,-8.095 8.141,-12.08"
             style="fill:none;stroke:#5c7a99;stroke-width:1.72281003;stroke-opacity:1"
             inkscape:connector-curvature="0" />
          <path
             id="path3025"
             d="m 267.147,698.275 c -3.502,-7.72 -14.491,-14.32 -16.877,-21.668 -3.392,-15.441 12.353,-19.302 23.528,-8.219"
             style="fill:none;stroke:#5c7a99;stroke-width:1.72281003;stroke-opacity:1"
             inkscape:connector-curvature="0" />
          <path
             id="path3027"
             d="m 272.474,691.426 c -4.524,-5.853 -9.687,-10.585 -13.961,-16.562 -1.784,-5.853 3.086,-6.849 10.229,-1.245"
             style="fill:none;stroke:#5c7a99;stroke-width:1.72281003;stroke-opacity:1"
             inkscape:connector-curvature="0" />
          <path
             id="path3029"
             d="m 267.203,685.573 c 4.313,-5.603 9.988,-10.584 15.775,-14.694 3.764,-1.992 6.23,-0.249 8.815,1.868"
             style="fill:none;stroke:#5c7a99;stroke-width:1.72281003;stroke-opacity:1"
             inkscape:connector-curvature="0" />
          <path
             id="path3031"
             d="m 261.801,680.094 c 5.814,-5.977 11.764,-12.826 19.173,-17.185 7.76,-2.739 12.935,1.121 16.737,5.23"
             style="fill:none;stroke:#5c7a99;stroke-width:1.72281003;stroke-opacity:1"
             inkscape:connector-curvature="0" />
          <path
             id="path3033"
             d="m 288.207,679.721 c 7.93,-5.978 13.222,-10.336 15.73,-11.582 12.945,-8.343 17.849,5.853 8.158,13.076"
             style="fill:none;stroke:#5c7a99;stroke-width:3.36081004;stroke-opacity:1"
             inkscape:connector-curvature="0" />
          <path
             id="path3035"
             d="m 280.08,673.245 c 7.139,5.853 13.786,11.332 19.547,17.808"
             style="fill:none;stroke:#5c7a99;stroke-width:1.72084999;stroke-opacity:1"
             inkscape:connector-curvature="0" />
          <path
             id="path3037"
             d="m 299.852,675.238 c 9.6,7.969 17.307,17.683 22.171,25.902 5,7.471 3.395,24.034 -15.375,21.668"
             style="fill:none;stroke:#5c7a99;stroke-width:3.36081004;stroke-opacity:1"
             inkscape:connector-curvature="0" />
          <path
             id="path3039"
             d="m 306.657,687.068 c -3.458,6.724 -18.727,20.921 -7.056,32.128"
             style="fill:none;stroke:#5c7a99;stroke-width:3.36129999;stroke-opacity:1"
             inkscape:connector-curvature="0" />
          <path
             id="path3041"
             d="m 302.737,700.019 c 14.029,20.547 -13.885,39.476 -31.117,25.279"
             style="fill:none;stroke:#5c7a99;stroke-width:3.36081004;stroke-opacity:1"
             inkscape:connector-curvature="0" />
          <path
             id="path3043"
             d="m 276.937,675.362 c 7.514,5.728 13.894,12.453 20.404,18.804"
             style="fill:none;stroke:#5c7a99;stroke-width:3.36081004;stroke-opacity:1"
             inkscape:connector-curvature="0" />
          <path
             id="path3045"
             d="m 282.902,684.951 c -5.688,5.977 -10.753,11.83 -14.824,17.932 -3.184,4.981 -3.388,10.585 -1.225,16.064"
             style="fill:none;stroke:#5c7a99;stroke-width:3.36081004;stroke-opacity:1"
             inkscape:connector-curvature="0" />
          <path
             id="path3047"
             d="m 274.204,701.14 c 5.342,9.713 1.666,23.037 -15.027,23.411 -6.963,-0.747 -13.588,-7.721 -10.703,-17.932 1.572,-5.479 6.15,-12.204 11.59,-18.181"
             style="fill:none;stroke:#5c7a99;stroke-width:3.36081004;stroke-opacity:1"
             inkscape:connector-curvature="0" />
          <path
             id="path3049"
             d="m 269.813,694.664 c -4.145,-6.226 -12.888,-13.2 -15.185,-18.057 -3.978,-9.215 5.701,-15.566 16.276,-6.102"
             style="fill:none;stroke:#5c7a99;stroke-width:3.36081004;stroke-opacity:1"
             inkscape:connector-curvature="0" />
          <path
             id="path3051"
             d="m 264.881,682.46 c 4.813,-5.728 9.478,-9.713 15.275,-14.57 7.155,-3.985 10.592,-0.498 14.41,2.491"
             style="fill:none;stroke:#5c7a99;stroke-width:3.36081004;stroke-opacity:1"
             inkscape:connector-curvature="0" />
          <path
             id="path3053"
             d="m 272.474,691.426 c -4.524,-5.853 -9.687,-10.584 -13.961,-16.562 -1.785,-5.853 3.086,-6.849 10.229,-1.245 -7.143,-5.604 -12.014,-4.608 -10.229,1.245 4.274,5.978 9.437,10.709 13.961,16.562 z"
             style="fill:none;stroke:#5c7a99;stroke-width:0.85039401;stroke-opacity:1"
             inkscape:connector-curvature="0" />
          <path
             id="path3055"
             d="m 282.902,684.951 c -5.688,5.977 -10.753,11.83 -14.824,17.932 -3.184,4.981 -3.389,10.585 -1.225,16.064 -2.164,-5.479 -1.959,-11.083 1.225,-16.064 4.071,-6.102 9.136,-11.955 14.824,-17.932 z"
             style="fill:none;stroke:#5c7a99;stroke-width:0.85039401;stroke-opacity:1"
             inkscape:connector-curvature="0" />
        </g>
      </g>
      <rect
         y="903.9505"
         x="1.5883331"
         height="146.82333"
         width="146.82333"
         id="rect3162"
         style="fill:#ffffff;fill-opacity:0.07224337000000000;stroke:none;stroke-width:3.17666673999999993" />
    </g>
  </g>
</svg>
