<?xml version="1.0" encoding="UTF-8" standalone="no"?>
<!-- Created with Inkscape (http://www.inkscape.org/) -->

<svg
   xmlns:dc="http://purl.org/dc/elements/1.1/"
   xmlns:cc="http://creativecommons.org/ns#"
   xmlns:rdf="http://www.w3.org/1999/02/22-rdf-syntax-ns#"
   xmlns:svg="http://www.w3.org/2000/svg"
   xmlns="http://www.w3.org/2000/svg"
   xmlns:sodipodi="http://sodipodi.sourceforge.net/DTD/sodipodi-0.dtd"
   xmlns:inkscape="http://www.inkscape.org/namespaces/inkscape"
   width="1200"
   height="630"
   id="svg5941"
   version="1.1"
   inkscape:version="0.91 r13725"
   sodipodi:docname="logo-social.svg">
  <defs
     id="defs5943">
    <rect
       height="8"
       width="8"
       id="p" />
  </defs>
  <sodipodi:namedview
     id="base"
     pagecolor="#ffffff"
     bordercolor="#666666"
     borderopacity="1.0"
     inkscape:pageopacity="0.0"
     inkscape:pageshadow="2"
     inkscape:zoom="0.49497475"
     inkscape:cx="753.31315"
     inkscape:cy="-143.69953"
     inkscape:document-units="px"
     inkscape:current-layer="g5244"
     showgrid="false"
     inkscape:window-width="1855"
     inkscape:window-height="1056"
     inkscape:window-x="65"
     inkscape:window-y="24"
     inkscape:window-maximized="1"
     showguides="true"
     inkscape:guide-bbox="true">
    <sodipodi:guide
       position="1020,307.85714"
       orientation="0,1"
       id="guide3711" />
  </sodipodi:namedview>
  <metadata
     id="metadata5946">
    <rdf:RDF>
      <cc:Work
         rdf:about="">
        <dc:format>image/svg+xml</dc:format>
        <dc:type
           rdf:resource="http://purl.org/dc/dcmitype/StillImage" />
        <dc:title />
      </cc:Work>
    </rdf:RDF>
  </metadata>
  <g
     inkscape:label="Camada 1"
     inkscape:groupmode="layer"
     id="layer1"
     transform="translate(0,-422.36218)">
    <g
       transform="matrix(6.5979038,0,0,6.5979038,45.965885,-5998.402)"
       id="g5244">
      <g
         id="g3879"
         inkscape:export-filename="/home/vinicius/Documentos/git_project/viniciusaires.github.io{{ site.baseurl }}/assets/images/logo-social.png"
         inkscape:export-xdpi="90"
         inkscape:export-ydpi="90">
        <g
           id="g3365"
           inkscape:export-filename="/home/vinicius/Documentos/git_project/viniciusaires.github.io{{ site.baseurl }}/assets/images/logo-social.png"
           inkscape:export-xdpi="90"
           inkscape:export-ydpi="90">
          <rect
             inkscape:export-ydpi="90"
             inkscape:export-xdpi="90"
             inkscape:export-filename="/home/vinicius/Documentos/git_project/viniciusaires.github.io{{ site.baseurl }}/assets/images/logo.jpg.png"
             style="fill:#009688;fill-opacity:1;stroke:none"
             id="rect3032"
             width="1200"
             height="630"
             x="0"
             y="422.36218"
             transform="matrix(0.15156329,0,0,0.15156329,-6.9667414,909.13753)" />
          <g
             id="g3728"
             transform="translate(12.550124,8.0165421e-6)">
            <g
               transform="translate(1.3909271,-4.3908833)"
               id="g3820">
              <rect
                 style="fill:#ffffff;fill-opacity:1;stroke:#ffffff;stroke-width:0.4671196;stroke-opacity:1"
                 id="rect3034"
                 width="44.889233"
                 height="53.992847"
                 x="8.8654242"
                 y="998.33698" />
              <g
                 id="g3002"
                 transform="matrix(0.20915475,0,0,0.20915475,-1.3310662,928.13338)"
                 style="fill:#009688;fill-opacity:1">
                <path
                   style="fill:#009688;fill-opacity:1"
                   d="m 43.271956,613.00687 c -13.72059,-3.35138 -26.21748,-13.57689 -33.2597,-27.21457 -4.9836997,-9.65123 -4.9385897,-8.55616 -4.9766697,-120.82718 -0.0389,-114.71155 -0.24307,-110.36087 5.7460397,-122.44471 3.73922,-7.54438 14.22284,-17.99526 21.96144,-21.89284 12.68043,-6.38657 7.4164,-6.12255 122.072654,-6.12255 114.16357,0 109.65,-0.2158 122.18425,5.8419 7.12316,3.44256 18.64985,14.938 22.21834,22.1581 5.98997,12.11948 5.78494,7.74995 5.74604,122.4601 -0.0291,85.8629 -0.28809,106.09648 -1.41847,110.82718 -4.28121,17.9171 -19.34153,32.97742 -37.25863,37.25863 -8.16506,1.95101 -215.014784,1.91014 -223.015294,-0.0441 z M 174.80045,584.39953 c 15.69783,-3.95325 32.12377,-16.14178 40.21261,-29.83894 4.23532,-7.17185 8.42141,-18.77736 9.54361,-26.45872 0.39398,-2.69674 1.96946,-6.97174 3.50107,-9.5 2.99234,-4.93951 14.94634,-45.45253 14.93665,-50.62143 -0.0155,-8.27342 -5.09635,-16.25346 -12.48584,-19.61044 -2.55539,-1.16089 -6.40053,-1.82902 -10.60671,-1.84302 l -6.59812,-0.022 -1.76453,-3.91302 c -3.47187,-7.69923 -11.47841,-13.08698 -19.44808,-13.08698 -2.18521,0 -4.25712,-0.45955 -4.60426,-1.02123 -0.34713,-0.56167 3.05595,-13.49917 7.5624,-28.75 8.59355,-29.08245 9.50629,-34.67104 6.73363,-41.22877 -6.7804,-16.03654 -28.88375,-19.0779 -39.28291,-5.40522 -2.2857,3.00521 -5.71691,12.57079 -14.41084,40.17479 -7.53479,23.92364 -11.86572,36.23043 -12.75,36.23043 -0.73654,0 -1.33916,-0.13322 -1.33916,-0.29604 0,-0.16282 -5.13186,-16.60129 -11.40414,-36.52993 -7.75275,-24.63246 -12.22634,-37.31184 -13.97204,-39.60058 -1.41234,-1.85168 -4.91883,-4.53821 -7.7922,-5.97007 -13.465254,-6.71002 -28.218524,-0.26636 -32.443784,14.17019 -1.95675,6.68566 -2.35899,4.90319 12.57003,55.7024 12.90975,43.92822 14.11421,50.33885 10.1346,53.94035 -1.04914,0.94946 -2.88925,4.00836 -4.08913,6.79756 -2.08748,4.85247 -2.16307,6.11142 -1.75195,29.1787 0.33215,18.63676 0.81499,25.46899 2.12768,30.10742 3.86004,13.63946 11.26542,25.35449 21.371954,33.80958 6.13878,5.13569 18.86143,11.78744 26.24898,13.7237 12.08426,3.16725 26.87754,3.11567 39.80048,-0.13877 z m -27.41242,-7.96703 c -14.15887,-1.79777 -25.55151,-7.15026 -34.96549,-16.42748 -7.04915,-6.94674 -10.61319,-12.65943 -14.206874,-22.77177 -2.40767,-6.77503 -2.59286,-8.63896 -2.95352,-29.72823 -0.58916,-34.45122 -2.27104,-33.02098 38.737824,-32.942 31.75068,0.0611 34.06298,0.42459 37.80368,5.942 3.4669,5.11358 2.64519,11.01712 -2.20957,15.87453 l -3.6235,3.62547 -22.21995,0.32229 c -14.13045,0.20496 -22.69921,0.72005 -23.53637,1.41483 -0.72403,0.60089 -1.18094,2.4708 -1.01536,4.15535 0.2558,2.60229 0.9547,3.30335 4.64802,4.66246 10.4267,3.8369 15.31448,11.20439 15.38955,23.19713 0.0343,5.47828 0.45418,7.43862 1.90375,8.88819 2.19565,2.19565 3.82325,2.33814 6.27013,0.54894 3.77126,-2.75761 2.88295,-18.27358 -1.54287,-26.94889 -1.06873,-2.09489 -1.67457,-4.24346 -1.34631,-4.7746 0.32826,-0.53113 2.51835,-0.9657 4.86688,-0.9657 4.14233,0 4.33974,0.14881 6.60044,4.97549 2.80782,5.99481 5.07827,8.25062 11.01148,10.94048 7.33871,3.32705 16.17076,2.33556 21.8633,-2.4544 3.64881,-3.07027 4.62459,-3.07027 8.2734,0 3.09244,2.60211 8.60574,4.52357 13.00631,4.53285 3.7464,0.008 4.01049,1.81011 1.37183,9.3615 -3.30245,9.451 -6.96965,15.27755 -13.93741,22.14408 -12.72933,12.54441 -31.74711,18.76912 -50.18937,16.42748 z m 24.6325,-59.04352 c -3.27556,-1.3069 -6.02056,-3.85559 -6.02056,-5.58997 0,-0.76783 1.55825,-2.04712 3.46277,-2.84288 15.23111,-6.36396 19.26312,-24.98231 8.23811,-38.04049 l -2.60836,-3.08938 3.32519,-11.18983 c 3.59361,-12.09311 5.08383,-14.48177 10.05917,-16.12378 5.76062,-1.90117 12.95267,2.4347 14.08942,8.49409 0.43135,2.29927 -1.67529,11.20054 -7.59464,32.09007 -4.50536,15.89952 -8.90981,30.13844 -9.78767,31.64205 -1.57264,2.69364 -6.70105,5.82655 -9.33512,5.70277 -0.74188,-0.0349 -2.46462,-0.50855 -3.82831,-1.05265 z m 33.17753,-0.55677 c -3.67892,-1.81308 -6.19809,-5.8433 -6.19809,-9.91585 0,-3.33177 10.42112,-39.74987 12.60758,-44.05899 5.8178,-11.46586 21.66155,-5.92413 20.43508,7.14765 -0.37602,4.00763 -11.23138,41.0656 -12.69366,43.33353 -1.45046,2.24962 -6.92064,5.1907 -9.56688,5.1437 -0.70517,-0.0125 -2.76798,-0.75504 -4.58403,-1.65004 z M 104.03515,462.57076 c -0.56935,-1.06384 -1.03264,-3.20134 -1.02953,-4.75 0.003,-1.54866 -5.481474,-21.71574 -12.187964,-44.81574 -6.76292,-23.29443 -12.22123,-43.92705 -12.25564,-46.32684 -0.0539,-3.75678 0.43008,-4.77784 3.67326,-7.75 3.1245,-2.86339 4.48993,-3.42316 8.35001,-3.42316 3.88529,0 5.11888,0.51369 7.80465,3.25 2.801404,2.85412 4.818304,8.36597 16.557914,45.25 7.35237,23.1 14.01214,42.99495 14.79949,44.21101 2.92613,4.51937 9.23952,4.14882 11.74132,-0.68914 0.83879,-1.62203 7.34749,-21.17436 14.46379,-43.44961 7.1163,-22.27525 13.41036,-41.38171 13.9868,-42.45881 4.99437,-9.33207 19.0934,-7.60259 22.09438,2.71025 0.97714,3.35788 -0.1105,7.74611 -12.55747,50.66485 -7.495,25.84371 -14.09837,47.55621 -14.67417,48.25 -0.79907,0.96282 -7.99335,1.26145 -30.38928,1.26145 -27.98649,0 -29.39021,-0.0894 -30.37756,-1.93426 z"
                   id="path3014"
                   inkscape:connector-curvature="0" />
              </g>
            </g>
            <path
               id="path3327"
               style="font-style:normal;font-variant:normal;font-weight:normal;font-stretch:normal;font-size:12.88287926px;line-height:125%;font-family:Bebas;-inkscape-font-specification:Bebas;letter-spacing:0px;word-spacing:0px;fill:#ffffff;fill-opacity:1;stroke:none"
               d="m 56.221843,1027.7164 -1.729307,0 0,-11.4646 1.729307,0 0,11.4646"
               inkscape:connector-curvature="0" />
            <path
               id="path3329"
               style="font-style:normal;font-variant:normal;font-weight:normal;font-stretch:normal;font-size:12.88287926px;line-height:125%;font-family:Bebas;-inkscape-font-specification:Bebas;letter-spacing:0px;word-spacing:0px;fill:#ffffff;fill-opacity:1;stroke:none"
               d="m 59.712481,1016.2426 2.287443,7.7041 0,-7.7041 1.729307,0 0,11.4738 -1.857404,0 -2.378941,-7.3472 0,7.3472 -1.729307,0 0,-11.4738 1.948902,0"
               inkscape:connector-curvature="0" />
            <path
               id="path3331"
               style="font-style:normal;font-variant:normal;font-weight:normal;font-stretch:normal;font-size:12.88287926px;line-height:125%;font-family:Bebas;-inkscape-font-specification:Bebas;letter-spacing:0px;word-spacing:0px;fill:#ffffff;fill-opacity:1;stroke:none"
               d="m 66.991124,1027.7164 -1.729307,0 0,-11.4646 1.729307,0 0,11.4646"
               inkscape:connector-curvature="0" />
            <path
               id="path3333"
               style="font-style:normal;font-variant:normal;font-weight:normal;font-stretch:normal;font-size:12.88287926px;line-height:125%;font-family:Bebas;-inkscape-font-specification:Bebas;letter-spacing:0px;word-spacing:0px;fill:#ffffff;fill-opacity:1;stroke:none"
               d="m 71.265212,1027.8628 c -0.762484,0 -1.412117,-0.2653 -1.948902,-0.796 -0.530688,-0.5368 -0.796031,-1.1834 -0.79603,-1.9398 l 0,-6.2584 c -10e-7,-0.7625 0.268392,-1.4091 0.80518,-1.9398 0.536785,-0.5367 1.183368,-0.8051 1.939752,-0.8051 0.762477,0 1.40906,0.2684 1.939751,0.8051 0.530681,0.5368 0.796024,1.1834 0.79603,1.9398 l 0,1.3084 -1.793355,0 0,-1.345 c -4e-6,-0.2745 -0.0976,-0.5093 -0.292793,-0.7045 -0.195199,-0.1952 -0.430042,-0.2928 -0.704532,-0.2928 -0.274496,0 -0.50934,0.098 -0.704533,0.2928 -0.189097,0.1952 -0.283645,0.43 -0.283642,0.7045 l 0,6.2767 c -3e-6,0.2745 0.09454,0.5094 0.283642,0.7046 0.195193,0.1891 0.430037,0.2836 0.704533,0.2836 0.27449,0 0.509333,-0.094 0.704532,-0.2836 0.195191,-0.1952 0.292789,-0.4301 0.292793,-0.7046 l 0,-1.5829 1.793355,0 0,1.6012 c -6e-6,0.7625 -0.268399,1.4091 -0.805179,1.9398 -0.536792,0.5307 -1.180325,0.796 -1.930602,0.796"
               inkscape:connector-curvature="0" />
            <path
               id="path3335"
               style="font-style:normal;font-variant:normal;font-weight:normal;font-stretch:normal;font-size:12.88287926px;line-height:125%;font-family:Bebas;-inkscape-font-specification:Bebas;letter-spacing:0px;word-spacing:0px;fill:#ffffff;fill-opacity:1;stroke:none"
               d="m 77.143941,1027.7164 -1.729307,0 0,-11.4646 1.729307,0 0,11.4646"
               inkscape:connector-curvature="0" />
            <path
               id="path3337"
               style="font-style:normal;font-variant:normal;font-weight:normal;font-stretch:normal;font-size:12.88287926px;line-height:125%;font-family:Bebas;-inkscape-font-specification:Bebas;letter-spacing:0px;word-spacing:0px;fill:#ffffff;fill-opacity:1;stroke:none"
               d="m 81.434038,1027.8445 c -0.762483,0 -1.409066,-0.2653 -1.939751,-0.796 -0.530688,-0.5307 -0.796031,-1.1742 -0.79603,-1.9306 l 0,-8.8661 1.692707,0 0,8.8478 c -2e-6,0.2745 0.0976,0.5093 0.292793,0.7045 0.195192,0.1891 0.430036,0.2837 0.704533,0.2837 0.274489,0 0.506283,-0.095 0.695382,-0.2837 0.195191,-0.1952 0.292789,-0.43 0.292793,-0.7045 l 0,-8.8478 1.802505,0 0,8.8661 c -6e-6,0.7686 -0.268399,1.4152 -0.80518,1.9397 -0.536791,0.5246 -1.183374,0.7869 -1.939752,0.7869"
               inkscape:connector-curvature="0" />
            <path
               id="path3339"
               style="font-style:normal;font-variant:normal;font-weight:normal;font-stretch:normal;font-size:12.88287926px;line-height:125%;font-family:Bebas;-inkscape-font-specification:Bebas;letter-spacing:0px;word-spacing:0px;fill:#ffffff;fill-opacity:1;stroke:none"
               d="m 91.323799,1024.8617 c 0.01219,0.7991 -0.195201,1.4823 -0.622185,2.0496 -0.280598,0.3842 -0.677088,0.6557 -1.18947,0.8143 -0.274497,0.085 -0.594739,0.1281 -0.960726,0.1281 -0.677086,0 -1.238272,-0.1678 -1.683558,-0.5033 -0.372092,-0.2745 -0.667935,-0.6465 -0.887528,-1.1162 -0.213496,-0.4758 -0.338542,-1.0187 -0.375141,-1.6287 l 1.646959,-0.1189 c 0.0732,0.6648 0.250092,1.1467 0.530687,1.4456 0.207392,0.2257 0.445286,0.3325 0.713682,0.3203 0.378187,-0.012 0.680129,-0.1983 0.905828,-0.5582 0.115892,-0.1769 0.173841,-0.43 0.173845,-0.7594 -4e-6,-0.4758 -0.216549,-0.9485 -0.649633,-1.4182 -0.341595,-0.3233 -0.853982,-0.8082 -1.537162,-1.4548 -0.573388,-0.5551 -0.979027,-1.0522 -1.21692,-1.4914 -0.256194,-0.4941 -0.384291,-1.0309 -0.38429,-1.6104 -10e-7,-1.0431 0.35074,-1.833 1.052224,-2.3698 0.433086,-0.3233 0.969873,-0.4849 1.610359,-0.4849 0.616081,0 1.143717,0.1372 1.582911,0.4117 0.341586,0.2135 0.616079,0.5124 0.82348,0.8967 0.213488,0.3843 0.341585,0.8265 0.38429,1.3267 l -1.656109,0.3019 c -0.0488,-0.4696 -0.183,-0.8356 -0.40259,-1.0979 -0.1586,-0.1891 -0.387344,-0.2837 -0.686233,-0.2837 -0.317195,0 -0.558139,0.1403 -0.722832,0.4209 -0.134199,0.2257 -0.201297,0.5063 -0.201295,0.8418 -2e-6,0.5246 0.225692,1.0583 0.677083,1.6012 0.170793,0.2074 0.426986,0.4514 0.768581,0.732 0.402586,0.3355 0.667929,0.5703 0.79603,0.7045 0.426985,0.427 0.756376,0.8479 0.988176,1.2627 0.109791,0.1952 0.198239,0.3751 0.265343,0.5398 0.16469,0.4087 0.250088,0.7747 0.256194,1.098"
               inkscape:connector-curvature="0" />
            <path
               id="path3341"
               style="font-style:normal;font-variant:normal;font-weight:normal;font-stretch:normal;font-size:12.88287926px;line-height:125%;font-family:Bebas;-inkscape-font-specification:Bebas;letter-spacing:0px;word-spacing:0px;fill:#ffffff;fill-opacity:1;stroke:none"
               d="m 94.559387,1025.0813 -0.42089,2.6351 -1.802505,0 1.948901,-11.4646 2.378941,0 1.921452,11.4646 -1.811655,0 -0.411739,-2.6351 -1.802505,0 m 0.905827,-6.2035 -0.640484,4.5199 1.280968,0 -0.640484,-4.5199"
               inkscape:connector-curvature="0" />
            <path
               id="path3343"
               style="font-style:normal;font-variant:normal;font-weight:normal;font-stretch:normal;font-size:12.88287926px;line-height:125%;font-family:Bebas;-inkscape-font-specification:Bebas;letter-spacing:0px;word-spacing:0px;fill:#ffffff;fill-opacity:1;stroke:none"
               d="m 101.80258,1027.7164 -1.72931,0 0,-11.4646 1.72931,0 0,11.4646"
               inkscape:connector-curvature="0" />
            <path
               id="path3345"
               style="font-style:normal;font-variant:normal;font-weight:normal;font-stretch:normal;font-size:12.88287926px;line-height:125%;font-family:Bebas;-inkscape-font-specification:Bebas;letter-spacing:0px;word-spacing:0px;fill:#ffffff;fill-opacity:1;stroke:none"
               d="m 106.08352,1016.2518 c 0.96378,0 1.67136,0.2653 2.12275,0.796 0.39649,0.4636 0.59473,1.1102 0.59474,1.9397 l 0,1.6653 c -1e-5,0.8113 -0.30805,1.4975 -0.92413,2.0587 l 1.28097,5.0049 -1.86656,0 -1.05222,-4.3278 c -0.0488,0.01 -0.10065,0.01 -0.15555,0.01 l -0.99732,0 0,4.3187 -1.72931,0 0,-11.4646 2.72663,0 m 1.03393,2.7632 c -1e-5,-0.6649 -0.3294,-0.9973 -0.98818,-0.9973 l -1.04307,0 0,3.669 1.04307,0 c 0.27449,0 0.50629,-0.098 0.69539,-0.2928 0.19519,-0.1952 0.29278,-0.43 0.29279,-0.7045 l 0,-1.6744"
               inkscape:connector-curvature="0" />
            <path
               id="path3347"
               style="font-style:normal;font-variant:normal;font-weight:normal;font-stretch:normal;font-size:12.88287926px;line-height:125%;font-family:Bebas;-inkscape-font-specification:Bebas;letter-spacing:0px;word-spacing:0px;fill:#ffffff;fill-opacity:1;stroke:none"
               d="m 110.65384,1027.7164 0,-11.4738 4.92257,0 0,1.7293 -3.19327,0 0,3.1384 2.3332,0 0,1.7385 -2.3332,0 0,3.1383 3.19327,0 0,1.7293 -4.92257,0"
               inkscape:connector-curvature="0" />
            <path
               id="path3349"
               style="font-style:normal;font-variant:normal;font-weight:normal;font-stretch:normal;font-size:12.88287926px;line-height:125%;font-family:Bebas;-inkscape-font-specification:Bebas;letter-spacing:0px;word-spacing:0px;fill:#ffffff;fill-opacity:1;stroke:none"
               d="m 122.48678,1024.8617 c 0.0122,0.7991 -0.1952,1.4823 -0.62219,2.0496 -0.28059,0.3842 -0.67708,0.6557 -1.18947,0.8143 -0.27449,0.085 -0.59474,0.1281 -0.96072,0.1281 -0.67709,0 -1.23827,-0.1678 -1.68356,-0.5033 -0.37209,-0.2745 -0.66794,-0.6465 -0.88753,-1.1162 -0.21349,-0.4758 -0.33854,-1.0187 -0.37514,-1.6287 l 1.64696,-0.1189 c 0.0732,0.6648 0.25009,1.1467 0.53069,1.4456 0.20739,0.2257 0.44528,0.3325 0.71368,0.3203 0.37819,-0.012 0.68013,-0.1983 0.90583,-0.5582 0.11589,-0.1769 0.17384,-0.43 0.17384,-0.7594 0,-0.4758 -0.21655,-0.9485 -0.64963,-1.4182 -0.3416,-0.3233 -0.85398,-0.8082 -1.53716,-1.4548 -0.57339,-0.5551 -0.97903,-1.0522 -1.21692,-1.4914 -0.2562,-0.4941 -0.38429,-1.0309 -0.38429,-1.6104 0,-1.0431 0.35074,-1.833 1.05222,-2.3698 0.43309,-0.3233 0.96987,-0.4849 1.61036,-0.4849 0.61608,0 1.14372,0.1372 1.58291,0.4117 0.34159,0.2135 0.61608,0.5124 0.82348,0.8967 0.21349,0.3843 0.34158,0.8265 0.38429,1.3267 l -1.65611,0.3019 c -0.0488,-0.4696 -0.183,-0.8356 -0.40259,-1.0979 -0.1586,-0.1891 -0.38734,-0.2837 -0.68623,-0.2837 -0.3172,0 -0.55814,0.1403 -0.72283,0.4209 -0.1342,0.2257 -0.2013,0.5063 -0.2013,0.8418 0,0.5246 0.22569,1.0583 0.67708,1.6012 0.1708,0.2074 0.42699,0.4514 0.76859,0.732 0.40258,0.3355 0.66792,0.5703 0.79603,0.7045 0.42698,0.427 0.75637,0.8479 0.98817,1.2627 0.10979,0.1952 0.19824,0.3751 0.26534,0.5398 0.16469,0.4087 0.25009,0.7747 0.2562,1.098"
               inkscape:connector-curvature="0" />
            <path
               id="path3351"
               style="font-style:normal;font-variant:normal;font-weight:normal;font-stretch:normal;font-size:12.88287926px;line-height:125%;font-family:Bebas;-inkscape-font-specification:Bebas;letter-spacing:0px;word-spacing:0px;fill:#ffffff;fill-opacity:1;stroke:none"
               d="m 123.68769,1025.9963 1.7293,0 0,1.7293 -1.7293,0 0,-1.7293"
               inkscape:connector-curvature="0" />
            <path
               id="path3357"
               style="font-style:normal;font-variant:normal;font-weight:normal;font-stretch:normal;font-size:12.88287926px;line-height:125%;font-family:Bebas;-inkscape-font-specification:Bebas;letter-spacing:0px;word-spacing:0px;fill:#ffffff;fill-opacity:1;stroke:none"
               d="m 128.87482,1027.7164 -1.7293,0 0,-11.4738 2.47958,0 1.61036,8.2257 1.54632,-8.2257 2.38809,0 0,11.4738 -1.72931,0 0,-7.21 -1.50056,7.21 -1.39077,0 -1.67441,-7.1917 0,7.1917"
               inkscape:connector-curvature="0" />
            <path
               inkscape:connector-curvature="0"
               id="path3347-3"
               style="font-style:normal;font-variant:normal;font-weight:normal;font-stretch:normal;font-size:12.88287926px;line-height:125%;font-family:Bebas;-inkscape-font-specification:Bebas;letter-spacing:0px;word-spacing:0px;fill:#ffffff;fill-opacity:1;stroke:none"
               d="m 136.80874,1027.8006 0,-11.4738 4.92257,0 0,1.7293 -3.19327,0 0,3.1384 2.3332,0 0,1.7385 -2.3332,0 0,3.1383 3.19327,0 0,1.7293 -4.92257,0" />
          </g>
        </g>
      </g>
    </g>
  </g>
</svg>
