<?xml version="1.0" encoding="UTF-8" standalone="no"?>
<!-- Created with Inkscape (http://www.inkscape.org/) -->

<svg
   xmlns:dc="http://purl.org/dc/elements/1.1/"
   xmlns:cc="http://creativecommons.org/ns#"
   xmlns:rdf="http://www.w3.org/1999/02/22-rdf-syntax-ns#"
   xmlns:svg="http://www.w3.org/2000/svg"
   xmlns="http://www.w3.org/2000/svg"
   xmlns:sodipodi="http://sodipodi.sourceforge.net/DTD/sodipodi-0.dtd"
   xmlns:inkscape="http://www.inkscape.org/namespaces/inkscape"
   width="159.3"
   height="56"
   id="svg2"
   version="1.1"
   inkscape:version="0.48.4 r9939"
   sodipodi:docname="logo.svg">
  <defs
     id="defs4" />
  <sodipodi:namedview
     id="base"
     pagecolor="#ffffff"
     bordercolor="#666666"
     borderopacity="1.0"
     inkscape:pageopacity="0.0"
     inkscape:pageshadow="2"
     inkscape:zoom="2.8284271"
     inkscape:cx="62.802348"
     inkscape:cy="-30.658535"
     inkscape:document-units="px"
     inkscape:current-layer="g3082"
     showgrid="false"
     showguides="true"
     inkscape:guide-bbox="true"
     inkscape:window-width="1855"
     inkscape:window-height="1056"
     inkscape:window-x="65"
     inkscape:window-y="24"
     inkscape:window-maximized="1">
    <sodipodi:guide
       orientation="0,1"
       position="355.71429,274.28571"
       id="guide3045" />
    <sodipodi:guide
       orientation="0,1"
       position="205,374.28571"
       id="guide3047" />
    <sodipodi:guide
       orientation="0,1"
       position="74.953319,31.466"
       id="guide3825" />
    <sodipodi:guide
       orientation="1,0"
       position="91,67.5"
       id="guide3827" />
  </sodipodi:namedview>
  <metadata
     id="metadata7">
    <rdf:RDF>
      <cc:Work
         rdf:about="">
        <dc:format>image/svg+xml</dc:format>
        <dc:type
           rdf:resource="http://purl.org/dc/dcmitype/StillImage" />
        <dc:title />
      </cc:Work>
    </rdf:RDF>
  </metadata>
  <g
     inkscape:label="Camada 1"
     inkscape:groupmode="layer"
     id="layer1"
     transform="translate(0,-996.36218)">
    <g
       id="g3837"
       inkscape:export-filename="/home/vinicius/Documentos/git_project/viniciusaires.github.io{{ site.baseurl }}/assets/images/logo.png"
       inkscape:export-xdpi="90"
       inkscape:export-ydpi="90">
      <g
         transform="translate(12,0)"
         id="g3829"
         inkscape:export-filename="/home/vinicius/Documentos/git_project/viniciusaires.github.io{{ site.baseurl }}/assets/images/logo.jpg.png"
         inkscape:export-xdpi="90"
         inkscape:export-ydpi="90">
        <g
           id="g3820"
           transform="translate(1.3909271,-4.3908833)" />
        <g
           id="g3082">
          <g
             id="g3023"
             transform="matrix(0.87577016,0,0,0.87577016,-1.5761916,130.73826)">
            <rect
               transform="translate(-12,0)"
               y="988.41449"
               x="0.096542709"
               height="63.943718"
               width="181.89906"
               id="rect3032"
               style="fill:#009688;fill-opacity:1;stroke:none"
               inkscape:export-filename="/home/vinicius/Documentos/git_project/viniciusaires.github.io{{ site.baseurl }}/assets/images/logo.jpg.png"
               inkscape:export-xdpi="90"
               inkscape:export-ydpi="90" />
            <g
               transform="translate(1.390927,-4.39088)"
               id="g3072">
              <rect
                 style="fill:#ffffff;fill-opacity:1;stroke:#ffffff;stroke-width:0.4671196;stroke-opacity:1"
                 id="rect3034"
                 width="44.889233"
                 height="53.992847"
                 x="8.8654242"
                 y="998.33698" />
              <g
                 id="g3002"
                 transform="matrix(0.20915475,0,0,0.20915475,-1.3310662,928.13338)"
                 style="fill:#009688;fill-opacity:1">
                <path
                   style="fill:#009688;fill-opacity:1"
                   d="m 43.271956,613.00687 c -13.72059,-3.35138 -26.21748,-13.57689 -33.2597,-27.21457 -4.9836997,-9.65123 -4.9385897,-8.55616 -4.9766697,-120.82718 -0.0389,-114.71155 -0.24307,-110.36087 5.7460397,-122.44471 3.73922,-7.54438 14.22284,-17.99526 21.96144,-21.89284 12.68043,-6.38657 7.4164,-6.12255 122.072654,-6.12255 114.16357,0 109.65,-0.2158 122.18425,5.8419 7.12316,3.44256 18.64985,14.938 22.21834,22.1581 5.98997,12.11948 5.78494,7.74995 5.74604,122.4601 -0.0291,85.8629 -0.28809,106.09648 -1.41847,110.82718 -4.28121,17.9171 -19.34153,32.97742 -37.25863,37.25863 -8.16506,1.95101 -215.014784,1.91014 -223.015294,-0.0441 z M 174.80045,584.39953 c 15.69783,-3.95325 32.12377,-16.14178 40.21261,-29.83894 4.23532,-7.17185 8.42141,-18.77736 9.54361,-26.45872 0.39398,-2.69674 1.96946,-6.97174 3.50107,-9.5 2.99234,-4.93951 14.94634,-45.45253 14.93665,-50.62143 -0.0155,-8.27342 -5.09635,-16.25346 -12.48584,-19.61044 -2.55539,-1.16089 -6.40053,-1.82902 -10.60671,-1.84302 l -6.59812,-0.022 -1.76453,-3.91302 c -3.47187,-7.69923 -11.47841,-13.08698 -19.44808,-13.08698 -2.18521,0 -4.25712,-0.45955 -4.60426,-1.02123 -0.34713,-0.56167 3.05595,-13.49917 7.5624,-28.75 8.59355,-29.08245 9.50629,-34.67104 6.73363,-41.22877 -6.7804,-16.03654 -28.88375,-19.0779 -39.28291,-5.40522 -2.2857,3.00521 -5.71691,12.57079 -14.41084,40.17479 -7.53479,23.92364 -11.86572,36.23043 -12.75,36.23043 -0.73654,0 -1.33916,-0.13322 -1.33916,-0.29604 0,-0.16282 -5.13186,-16.60129 -11.40414,-36.52993 -7.75275,-24.63246 -12.22634,-37.31184 -13.97204,-39.60058 -1.41234,-1.85168 -4.91883,-4.53821 -7.7922,-5.97007 -13.465254,-6.71002 -28.218524,-0.26636 -32.443784,14.17019 -1.95675,6.68566 -2.35899,4.90319 12.57003,55.7024 12.90975,43.92822 14.11421,50.33885 10.1346,53.94035 -1.04914,0.94946 -2.88925,4.00836 -4.08913,6.79756 -2.08748,4.85247 -2.16307,6.11142 -1.75195,29.1787 0.33215,18.63676 0.81499,25.46899 2.12768,30.10742 3.86004,13.63946 11.26542,25.35449 21.371954,33.80958 6.13878,5.13569 18.86143,11.78744 26.24898,13.7237 12.08426,3.16725 26.87754,3.11567 39.80048,-0.13877 z m -27.41242,-7.96703 c -14.15887,-1.79777 -25.55151,-7.15026 -34.96549,-16.42748 -7.04915,-6.94674 -10.61319,-12.65943 -14.206874,-22.77177 -2.40767,-6.77503 -2.59286,-8.63896 -2.95352,-29.72823 -0.58916,-34.45122 -2.27104,-33.02098 38.737824,-32.942 31.75068,0.0611 34.06298,0.42459 37.80368,5.942 3.4669,5.11358 2.64519,11.01712 -2.20957,15.87453 l -3.6235,3.62547 -22.21995,0.32229 c -14.13045,0.20496 -22.69921,0.72005 -23.53637,1.41483 -0.72403,0.60089 -1.18094,2.4708 -1.01536,4.15535 0.2558,2.60229 0.9547,3.30335 4.64802,4.66246 10.4267,3.8369 15.31448,11.20439 15.38955,23.19713 0.0343,5.47828 0.45418,7.43862 1.90375,8.88819 2.19565,2.19565 3.82325,2.33814 6.27013,0.54894 3.77126,-2.75761 2.88295,-18.27358 -1.54287,-26.94889 -1.06873,-2.09489 -1.67457,-4.24346 -1.34631,-4.7746 0.32826,-0.53113 2.51835,-0.9657 4.86688,-0.9657 4.14233,0 4.33974,0.14881 6.60044,4.97549 2.80782,5.99481 5.07827,8.25062 11.01148,10.94048 7.33871,3.32705 16.17076,2.33556 21.8633,-2.4544 3.64881,-3.07027 4.62459,-3.07027 8.2734,0 3.09244,2.60211 8.60574,4.52357 13.00631,4.53285 3.7464,0.008 4.01049,1.81011 1.37183,9.3615 -3.30245,9.451 -6.96965,15.27755 -13.93741,22.14408 -12.72933,12.54441 -31.74711,18.76912 -50.18937,16.42748 z m 24.6325,-59.04352 c -3.27556,-1.3069 -6.02056,-3.85559 -6.02056,-5.58997 0,-0.76783 1.55825,-2.04712 3.46277,-2.84288 15.23111,-6.36396 19.26312,-24.98231 8.23811,-38.04049 l -2.60836,-3.08938 3.32519,-11.18983 c 3.59361,-12.09311 5.08383,-14.48177 10.05917,-16.12378 5.76062,-1.90117 12.95267,2.4347 14.08942,8.49409 0.43135,2.29927 -1.67529,11.20054 -7.59464,32.09007 -4.50536,15.89952 -8.90981,30.13844 -9.78767,31.64205 -1.57264,2.69364 -6.70105,5.82655 -9.33512,5.70277 -0.74188,-0.0349 -2.46462,-0.50855 -3.82831,-1.05265 z m 33.17753,-0.55677 c -3.67892,-1.81308 -6.19809,-5.8433 -6.19809,-9.91585 0,-3.33177 10.42112,-39.74987 12.60758,-44.05899 5.8178,-11.46586 21.66155,-5.92413 20.43508,7.14765 -0.37602,4.00763 -11.23138,41.0656 -12.69366,43.33353 -1.45046,2.24962 -6.92064,5.1907 -9.56688,5.1437 -0.70517,-0.0125 -2.76798,-0.75504 -4.58403,-1.65004 z M 104.03515,462.57076 c -0.56935,-1.06384 -1.03264,-3.20134 -1.02953,-4.75 0.003,-1.54866 -5.481474,-21.71574 -12.187964,-44.81574 -6.76292,-23.29443 -12.22123,-43.92705 -12.25564,-46.32684 -0.0539,-3.75678 0.43008,-4.77784 3.67326,-7.75 3.1245,-2.86339 4.48993,-3.42316 8.35001,-3.42316 3.88529,0 5.11888,0.51369 7.80465,3.25 2.801404,2.85412 4.818304,8.36597 16.557914,45.25 7.35237,23.1 14.01214,42.99495 14.79949,44.21101 2.92613,4.51937 9.23952,4.14882 11.74132,-0.68914 0.83879,-1.62203 7.34749,-21.17436 14.46379,-43.44961 7.1163,-22.27525 13.41036,-41.38171 13.9868,-42.45881 4.99437,-9.33207 19.0934,-7.60259 22.09438,2.71025 0.97714,3.35788 -0.1105,7.74611 -12.55747,50.66485 -7.495,25.84371 -14.09837,47.55621 -14.67417,48.25 -0.79907,0.96282 -7.99335,1.26145 -30.38928,1.26145 -27.98649,0 -29.39021,-0.0894 -30.37756,-1.93426 z"
                   id="path3014"
                   inkscape:connector-curvature="0" />
              </g>
            </g>
            <g
               id="text3041"
               style="font-size:10.36560822px;font-style:normal;font-weight:normal;line-height:125%;letter-spacing:0px;word-spacing:0px;fill:#ffffff;fill-opacity:1;stroke:none;font-family:Sans">
              <path
                 id="path2998"
                 style="font-size:18.6580925px;font-variant:normal;font-stretch:normal;fill:#ffffff;fill-opacity:1;font-family:Bebas;-inkscape-font-specification:Bebas"
                 d="m 58.476187,1028.9288 -2.504531,0 0,-16.6041 2.504531,0 0,16.6041"
                 inkscape:connector-curvature="0" />
              <path
                 id="path3000"
                 style="font-size:18.6580925px;font-variant:normal;font-stretch:normal;fill:#ffffff;fill-opacity:1;font-family:Bebas;-inkscape-font-specification:Bebas"
                 d="m 63.531629,1012.3115 3.312872,11.1577 0,-11.1577 2.50453,0 0,16.6173 -2.690051,0 -3.445387,-10.6409 0,10.6409 -2.504531,0 0,-16.6173 2.822567,0"
                 inkscape:connector-curvature="0" />
              <path
                 id="path3002"
                 style="font-size:18.6580925px;font-variant:normal;font-stretch:normal;fill:#ffffff;fill-opacity:1;font-family:Bebas;-inkscape-font-specification:Bebas"
                 d="m 74.073185,1028.9288 -2.504531,0 0,-16.6041 2.504531,0 0,16.6041"
                 inkscape:connector-curvature="0" />
              <path
                 id="path3004"
                 style="font-size:18.6580925px;font-variant:normal;font-stretch:normal;fill:#ffffff;fill-opacity:1;font-family:Bebas;-inkscape-font-specification:Bebas"
                 d="m 80.263287,1029.1409 c -1.104294,0 -2.045149,-0.3843 -2.822567,-1.1529 -0.768587,-0.7774 -1.15288,-1.7139 -1.152879,-2.8093 l 0,-9.0641 c -10e-7,-1.1042 0.388709,-2.0407 1.166131,-2.8093 0.777418,-0.7774 1.713855,-1.1661 2.809315,-1.1661 1.104285,0 2.040722,0.3887 2.809315,1.1661 0.768578,0.7775 1.152871,1.7139 1.152879,2.8093 l 0,1.895 -2.597291,0 0,-1.948 c -6e-6,-0.3975 -0.141355,-0.7376 -0.424047,-1.0203 -0.282704,-0.2827 -0.622825,-0.4241 -1.020365,-0.4241 -0.397549,0 -0.73767,0.1414 -1.020364,0.4241 -0.273868,0.2827 -0.4108,0.6228 -0.410796,1.0203 l 0,9.0906 c -4e-6,0.3975 0.136928,0.7376 0.410796,1.0203 0.282694,0.2739 0.622815,0.4108 1.020364,0.4108 0.39754,0 0.737661,-0.1369 1.020365,-0.4108 0.282692,-0.2827 0.424041,-0.6228 0.424047,-1.0203 l 0,-2.2925 2.597291,0 0,2.319 c -8e-6,1.1043 -0.388718,2.0407 -1.16613,2.8093 -0.777428,0.7686 -1.709448,1.1529 -2.796064,1.1529"
                 inkscape:connector-curvature="0" />
              <path
                 id="path3006"
                 style="font-size:18.6580925px;font-variant:normal;font-stretch:normal;fill:#ffffff;fill-opacity:1;font-family:Bebas;-inkscape-font-specification:Bebas"
                 d="m 88.777365,1028.9288 -2.504531,0 0,-16.6041 2.504531,0 0,16.6041"
                 inkscape:connector-curvature="0" />
              <path
                 id="path3008"
                 style="font-size:18.6580925px;font-variant:normal;font-stretch:normal;fill:#ffffff;fill-opacity:1;font-family:Bebas;-inkscape-font-specification:Bebas"
                 d="m 94.990655,1029.1144 c -1.104294,0 -2.040731,-0.3843 -2.809315,-1.1529 -0.768587,-0.7686 -1.15288,-1.7006 -1.152879,-2.7961 l 0,-12.8407 2.451525,0 0,12.8142 c -4e-6,0.3976 0.141346,0.7377 0.424047,1.0204 0.282695,0.2738 0.622816,0.4108 1.020365,0.4108 0.397539,0 0.733243,-0.137 1.007113,-0.4108 0.282692,-0.2827 0.424041,-0.6228 0.424047,-1.0204 l 0,-12.8142 2.610543,0 0,12.8407 c -9e-6,1.1131 -0.388719,2.0496 -1.166131,2.8093 -0.777427,0.7598 -1.713865,1.1397 -2.809315,1.1397"
                 inkscape:connector-curvature="0" />
              <path
                 id="path3010"
                 style="font-size:18.6580925px;font-variant:normal;font-stretch:normal;fill:#ffffff;fill-opacity:1;font-family:Bebas;-inkscape-font-specification:Bebas"
                 d="m 109.31386,1024.7944 c 0.0176,1.1573 -0.28271,2.1467 -0.90111,2.9683 -0.40638,0.5566 -0.98061,0.9497 -1.72269,1.1794 -0.39755,0.1237 -0.86135,0.1855 -1.3914,0.1855 -0.98062,0 -1.79338,-0.2429 -2.43828,-0.7288 -0.53889,-0.3976 -0.96736,-0.9365 -1.28539,-1.6167 -0.3092,-0.6891 -0.49031,-1.4753 -0.54331,-2.3588 l 2.38526,-0.1722 c 0.10601,0.9629 0.36221,1.6608 0.76859,2.0937 0.30036,0.3269 0.6449,0.4815 1.03362,0.4638 0.54772,-0.018 0.98502,-0.2871 1.31189,-0.8083 0.16785,-0.2562 0.25178,-0.6229 0.25178,-1.0999 0,-0.6891 -0.31362,-1.3738 -0.94085,-2.054 -0.49473,-0.4682 -1.23681,-1.1705 -2.22625,-2.107 -0.83043,-0.8039 -1.41791,-1.5239 -1.76245,-2.16 -0.37104,-0.7155 -0.55656,-1.493 -0.55656,-2.3322 0,-1.5107 0.50797,-2.6547 1.52392,-3.4322 0.62723,-0.4682 1.40465,-0.7023 2.33226,-0.7023 0.89226,0 1.65643,0.1988 2.29251,0.5963 0.49471,0.3092 0.89225,0.7421 1.19263,1.2987 0.30919,0.5565 0.49471,1.197 0.55656,1.9214 l -2.39852,0.4373 c -0.0707,-0.6802 -0.26503,-1.2103 -0.58306,-1.5902 -0.2297,-0.2738 -0.56099,-0.4107 -0.99386,-0.4108 -0.45939,10e-5 -0.80835,0.2033 -1.04687,0.6096 -0.19436,0.3269 -0.29154,0.7333 -0.29153,1.2192 -1e-5,0.7597 0.32686,1.5327 0.98061,2.319 0.24735,0.3003 0.61839,0.6537 1.11312,1.0601 0.58306,0.4859 0.96735,0.826 1.15288,1.0203 0.6184,0.6185 1.09545,1.228 1.43116,1.8288 0.15901,0.2827 0.28711,0.5433 0.38429,0.7818 0.23852,0.5919 0.3622,1.122 0.37105,1.5902"
                 inkscape:connector-curvature="0" />
              <path
                 id="path3012"
                 style="font-size:18.6580925px;font-variant:normal;font-stretch:normal;fill:#ffffff;fill-opacity:1;font-family:Bebas;-inkscape-font-specification:Bebas"
                 d="m 116.0042,1025.1124 -0.60957,3.8164 -2.61054,0 2.82256,-16.6041 3.44539,0 2.78281,16.6041 -2.62379,0 -0.59632,-3.8164 -2.61054,0 m 1.3119,-8.9845 -0.92761,6.5462 1.85521,0 -0.9276,-6.5462"
                 inkscape:connector-curvature="0" />
              <path
                 id="path3015"
                 style="font-size:18.6580925px;font-variant:normal;font-stretch:normal;fill:#ffffff;fill-opacity:1;font-family:Bebas;-inkscape-font-specification:Bebas"
                 d="m 126.49441,1028.9288 -2.50453,0 0,-16.6041 2.50453,0 0,16.6041"
                 inkscape:connector-curvature="0" />
              <path
                 id="path3017"
                 style="font-size:18.6580925px;font-variant:normal;font-stretch:normal;fill:#ffffff;fill-opacity:1;font-family:Bebas;-inkscape-font-specification:Bebas"
                 d="m 132.69445,1012.3247 c 1.39582,0 2.4206,0.3843 3.07434,1.1529 0.57423,0.6714 0.86134,1.6079 0.86135,2.8093 l 0,2.4118 c -1e-5,1.175 -0.44614,2.1688 -1.3384,2.9816 l 1.85521,7.2485 -2.70331,0 -1.52392,-6.2679 c -0.0707,0.01 -0.14577,0.013 -0.22527,0.013 l -1.44441,0 0,6.2547 -2.50453,0 0,-16.6041 3.94894,0 m 1.49742,4.002 c -1e-5,-0.963 -0.47706,-1.4444 -1.43116,-1.4444 l -1.51067,0 0,5.3138 1.51067,0 c 0.39754,0 0.73324,-0.1413 1.00711,-0.424 0.28269,-0.2827 0.42404,-0.6229 0.42405,-1.0204 l 0,-2.425"
                 inkscape:connector-curvature="0" />
              <path
                 id="path3019"
                 style="font-size:18.6580925px;font-variant:normal;font-stretch:normal;fill:#ffffff;fill-opacity:1;font-family:Bebas;-inkscape-font-specification:Bebas"
                 d="m 139.31357,1028.9288 0,-16.6173 7.1293,0 0,2.5045 -4.62477,0 0,4.5453 3.37913,0 0,2.5177 -3.37913,0 0,4.5453 4.62477,0 0,2.5045 -7.1293,0"
                 inkscape:connector-curvature="0" />
              <path
                 id="path3021"
                 style="font-size:18.6580925px;font-variant:normal;font-stretch:normal;fill:#ffffff;fill-opacity:1;font-family:Bebas;-inkscape-font-specification:Bebas"
                 d="m 156.45105,1024.7944 c 0.0177,1.1573 -0.28271,2.1467 -0.9011,2.9683 -0.40639,0.5566 -0.98062,0.9497 -1.7227,1.1794 -0.39755,0.1237 -0.86135,0.1855 -1.3914,0.1855 -0.98062,0 -1.79337,-0.2429 -2.43828,-0.7288 -0.53889,-0.3976 -0.96736,-0.9365 -1.28539,-1.6167 -0.3092,-0.6891 -0.49031,-1.4753 -0.54331,-2.3588 l 2.38527,-0.1722 c 0.106,0.9629 0.3622,1.6608 0.76858,2.0937 0.30036,0.3269 0.6449,0.4815 1.03362,0.4638 0.54772,-0.018 0.98502,-0.2871 1.3119,-0.8083 0.16784,-0.2562 0.25177,-0.6229 0.25177,-1.0999 0,-0.6891 -0.31362,-1.3738 -0.94085,-2.054 -0.49473,-0.4682 -1.23681,-1.1705 -2.22625,-2.107 -0.83043,-0.8039 -1.41791,-1.5239 -1.76245,-2.16 -0.37104,-0.7155 -0.55656,-1.493 -0.55656,-2.3322 0,-1.5107 0.50797,-2.6547 1.52392,-3.4322 0.62723,-0.4682 1.40465,-0.7023 2.33226,-0.7023 0.89226,0 1.65643,0.1988 2.29251,0.5963 0.49471,0.3092 0.89226,0.7421 1.19263,1.2987 0.30919,0.5565 0.49471,1.197 0.55656,1.9214 l -2.39852,0.4373 c -0.0707,-0.6802 -0.26503,-1.2103 -0.58306,-1.5902 -0.2297,-0.2738 -0.56099,-0.4107 -0.99386,-0.4108 -0.45939,10e-5 -0.80835,0.2033 -1.04687,0.6096 -0.19436,0.3269 -0.29154,0.7333 -0.29153,1.2192 -1e-5,0.7597 0.32686,1.5327 0.98061,2.319 0.24735,0.3003 0.6184,0.6537 1.11312,1.0601 0.58306,0.4859 0.96735,0.826 1.15288,1.0203 0.6184,0.6185 1.09545,1.228 1.43116,1.8288 0.15901,0.2827 0.28711,0.5433 0.3843,0.7818 0.23851,0.5919 0.36219,1.122 0.37104,1.5902"
                 inkscape:connector-curvature="0" />
            </g>
          </g>
        </g>
      </g>
    </g>
  </g>
</svg>
