<?xml version="1.0" encoding="UTF-8" standalone="no"?>
<!-- Created with Inkscape (http://www.inkscape.org/) -->

<svg
   xmlns:dc="http://purl.org/dc/elements/1.1/"
   xmlns:cc="http://creativecommons.org/ns#"
   xmlns:rdf="http://www.w3.org/1999/02/22-rdf-syntax-ns#"
   xmlns:svg="http://www.w3.org/2000/svg"
   xmlns="http://www.w3.org/2000/svg"
   xmlns:sodipodi="http://sodipodi.sourceforge.net/DTD/sodipodi-0.dtd"
   xmlns:inkscape="http://www.inkscape.org/namespaces/inkscape"
   width="150"
   height="150"
   id="svg2"
   version="1.1"
   inkscape:version="0.48.4 r9939"
   sodipodi:docname="Novo documento 1">
  <defs
     id="defs4">
    <clipPath
       id="clipPath3085"
       clipPathUnits="userSpaceOnUse">
      <path
         id="path3087"
         d="m 0,1296 1008,0 L 1008,0 0,0 0,1296 z"
         inkscape:connector-curvature="0" />
    </clipPath>
  </defs>
  <sodipodi:namedview
     id="base"
     pagecolor="#ffffff"
     bordercolor="#666666"
     borderopacity="1.0"
     inkscape:pageopacity="0.0"
     inkscape:pageshadow="2"
     inkscape:zoom="3.959798"
     inkscape:cx="0.9154045"
     inkscape:cy="101.60167"
     inkscape:document-units="px"
     inkscape:current-layer="layer1"
     showgrid="false"
     inkscape:window-width="1855"
     inkscape:window-height="1056"
     inkscape:window-x="65"
     inkscape:window-y="24"
     inkscape:window-maximized="1" />
  <metadata
     id="metadata7">
    <rdf:RDF>
      <cc:Work
         rdf:about="">
        <dc:format>image/svg+xml</dc:format>
        <dc:type
           rdf:resource="http://purl.org/dc/dcmitype/StillImage" />
        <dc:title></dc:title>
      </cc:Work>
    </rdf:RDF>
  </metadata>
  <g
     inkscape:label="Camada 1"
     inkscape:groupmode="layer"
     id="layer1"
     transform="translate(0,-902.36218)">
    <g
       id="g4530">
      <rect
         ry="0"
         rx="17960.023"
         y="902.36218"
         x="0"
         height="150"
         width="150"
         id="rect4528"
         style="fill:none;stroke:none" />
      <path
         id="path2995"
         style="fill:#fab41d;fill-opacity:1;fill-rule:nonzero;stroke:none"
         d="m 80.002492,1042.8613 1.656717,0 0,-22.1432 -1.656717,0 0,22.1432 z"
         inkscape:connector-curvature="0" />
      <path
         id="path2997"
         style="fill:#547fc9;fill-opacity:1;fill-rule:evenodd;stroke:none"
         d="m 27.358387,1025.7088 6.654506,0 0,-0.9444 -6.654506,0 0,0.9444 z"
         inkscape:connector-curvature="0" />
      <path
         id="path2999"
         style="fill:#547fc9;fill-opacity:1;fill-rule:evenodd;stroke:none"
         d="m 27.358387,1036.2708 6.654506,0 0,-0.9441 -6.654506,0 0,0.9441 z"
         inkscape:connector-curvature="0" />
      <path
         id="path3001"
         style="fill:#547fc9;fill-opacity:1;fill-rule:evenodd;stroke:none"
         d="m 27.358387,1027.4443 6.654506,0 0,-0.9435 -6.654506,0 0,0.9435 z"
         inkscape:connector-curvature="0" />
      <path
         id="path3003"
         style="fill:#547fc9;fill-opacity:1;fill-rule:evenodd;stroke:none"
         d="m 29.026031,1029.229 2.857532,0 0,-0.9438 -2.857532,0 0,0.9438 z"
         inkscape:connector-curvature="0" />
      <path
         id="path3005"
         style="fill:#547fc9;fill-opacity:1;fill-rule:evenodd;stroke:none"
         d="m 29.026031,1032.7498 2.857532,0 0,-0.9442 -2.857532,0 0,0.9442 z"
         inkscape:connector-curvature="0" />
      <path
         id="path3007"
         style="fill:#547fc9;fill-opacity:1;fill-rule:evenodd;stroke:none"
         d="m 29.026031,1030.9654 2.857532,0 0,-0.9442 -2.857532,0 0,0.9442 z"
         inkscape:connector-curvature="0" />
      <path
         id="path3009"
         style="fill:#547fc9;fill-opacity:1;fill-rule:evenodd;stroke:none"
         d="m 29.026031,1034.5344 2.857532,0 0,-0.9435 -2.857532,0 0,0.9435 z"
         inkscape:connector-curvature="0" />
      <path
         id="path3011"
         style="fill:#547fc9;fill-opacity:1;fill-rule:evenodd;stroke:none"
         d="m 27.358387,1038.055 6.654506,0 0,-0.9371 -6.654506,0 0,0.9371 z"
         inkscape:connector-curvature="0" />
      <path
         inkscape:connector-curvature="0"
         d="m 46.843915,1025.7087 6.133689,0 -0.209312,-0.9444 -5.924377,0 0,0.9444 z"
         style="fill:#547fc9;fill-opacity:1;fill-rule:evenodd;stroke:none"
         id="path3015" />
      <path
         id="path3017"
         style="fill:#547fc9;fill-opacity:1;fill-rule:evenodd;stroke:none"
         d="m 46.792947,1036.2708 4.626083,0 0,-0.9441 -4.626083,0 0,0.9441 z"
         inkscape:connector-curvature="0" />
      <path
         inkscape:connector-curvature="0"
         d="m 46.843915,1027.4444 6.60266,0 -0.259873,-0.9435 -6.342787,0 0,0.9435 z"
         style="fill:#547fc9;fill-opacity:1;fill-rule:evenodd;stroke:none"
         id="path3021" />
      <path
         inkscape:connector-curvature="0"
         d="m 48.510959,1029.229 5.297082,0 -0.210169,-0.9437 -5.086913,0 0,0.9437 z"
         style="fill:#547fc9;fill-opacity:1;fill-rule:evenodd;stroke:none"
         id="path3025" />
      <path
         id="path3027"
         style="fill:#547fc9;fill-opacity:1;fill-rule:evenodd;stroke:none"
         d="m 48.510937,1032.7498 2.857318,0 0,-0.9442 -2.857318,0 0,0.9442 z"
         inkscape:connector-curvature="0" />
      <path
         inkscape:connector-curvature="0"
         d="m 52.34971,1032.7497 3.897024,0 0.368064,-0.9442 -4.625868,0 0.36078,0.9442 z"
         style="fill:#547fc9;fill-opacity:1;fill-rule:evenodd;stroke:none"
         id="path3031" />
      <path
         inkscape:connector-curvature="0"
         d="m 56.925103,1030.9653 0.418625,-0.7918 0,0.84 2.85796,0 0,-0.9442 -5.564239,0 -0.310434,0.8476 -0.260087,-0.8476 -5.505751,0 0,0.9442 2.857746,0 0,-0.84 0.36078,0.7918 5.1454,0 z"
         style="fill:#547fc9;fill-opacity:1;fill-rule:evenodd;stroke:none"
         id="path3035" />
      <path
         id="path3037"
         style="fill:#547fc9;fill-opacity:1;fill-rule:evenodd;stroke:none"
         d="m 48.510937,1034.5344 2.857318,0 0,-0.9435 -2.857318,0 0,0.9435 z"
         inkscape:connector-curvature="0" />
      <path
         inkscape:connector-curvature="0"
         d="m 53.706491,1036.2709 1.24152,0 0.367636,-0.9442 -1.97722,0 0.368064,0.9442 z"
         style="fill:#547fc9;fill-opacity:1;fill-rule:evenodd;stroke:none"
         id="path3041" />
      <path
         inkscape:connector-curvature="0"
         d="m 54.327037,1038.0068 0,0 0.360566,-0.9433 -0.721132,0 0.360566,0.9433 z"
         style="fill:#547fc9;fill-opacity:1;fill-rule:evenodd;stroke:none"
         id="path3045" />
      <path
         inkscape:connector-curvature="0"
         d="m 53.028207,1034.5344 2.598302,0 0.310005,-0.9435 -3.268873,0 0.360566,0.9435 z"
         style="fill:#547fc9;fill-opacity:1;fill-rule:evenodd;stroke:none"
         id="path3049" />
      <path
         id="path3051"
         style="fill:#547fc9;fill-opacity:1;fill-rule:evenodd;stroke:none"
         d="m 46.792947,1038.055 4.676644,0 0,-0.9371 -4.676644,0 0,0.9371 z"
         inkscape:connector-curvature="0" />
      <path
         inkscape:connector-curvature="0"
         d="m 61.81078,1025.7087 -6.134117,0 0.209312,-0.9444 5.924805,0 0,0.9444 z"
         style="fill:#547fc9;fill-opacity:1;fill-rule:evenodd;stroke:none"
         id="path3055" />
      <path
         id="path3057"
         style="fill:#547fc9;fill-opacity:1;fill-rule:evenodd;stroke:none"
         d="m 61.810737,1036.2708 -4.625868,0 0,-0.9441 4.625868,0 0,0.9441 z"
         inkscape:connector-curvature="0" />
      <path
         inkscape:connector-curvature="0"
         d="m 61.81078,1027.4444 -6.60266,0 0.259016,-0.9435 6.343644,0 0,0.9435 z"
         style="fill:#547fc9;fill-opacity:1;fill-rule:evenodd;stroke:none"
         id="path3061" />
      <path
         inkscape:connector-curvature="0"
         d="m 60.143522,1029.229 -5.296654,0 0.209099,-0.9437 5.087555,0 0,0.9437 z"
         style="fill:#547fc9;fill-opacity:1;fill-rule:evenodd;stroke:none"
         id="path3065" />
      <path
         id="path3067"
         style="fill:#547fc9;fill-opacity:1;fill-rule:evenodd;stroke:none"
         d="m 60.143522,1032.7498 -2.857103,0 0,-0.9442 2.857103,0 0,0.9442 z"
         inkscape:connector-curvature="0" />
      <path
         id="path3069"
         style="fill:#547fc9;fill-opacity:1;fill-rule:evenodd;stroke:none"
         d="m 60.143522,1034.5344 -2.857103,0 0,-0.9435 2.857103,0 0,0.9435 z"
         inkscape:connector-curvature="0" />
      <path
         id="path3071"
         style="fill:#547fc9;fill-opacity:1;fill-rule:evenodd;stroke:none"
         d="m 61.810737,1038.055 -4.676,0 0,-0.9371 4.676,0 0,0.9371 z"
         inkscape:connector-curvature="0" />
      <path
         inkscape:connector-curvature="0"
         d="m 35.152971,1025.7087 9.771054,0 -0.418839,-0.3031 -0.728416,-0.393 -0.671213,-0.1519 -0.830394,-0.096 -7.122192,0 0,0.9444 z"
         style="fill:#547fc9;fill-opacity:1;fill-rule:evenodd;stroke:none"
         id="path3075" />
      <path
         inkscape:connector-curvature="0"
         d="m 35.202975,1037.118 9.771269,0 -0.417983,0.2965 -0.722202,0.3925 -0.678284,0.1519 -0.829965,0.096 -7.122835,0 0,-0.9371 z"
         style="fill:#547fc9;fill-opacity:1;fill-rule:evenodd;stroke:none"
         id="path3079" />
      <g
         transform="matrix(0.21423992,0,0,-0.21423992,-27.692542,1107.8744)"
         id="g3083"
         clip-path="url(#clipPath3085)">
        <g
           id="g3089"
           transform="translate(295.4199,358.3613)">
          <path
             inkscape:connector-curvature="0"
             d="m 0,0 49.485,0 0,1.641 -0.474,1.381 -0.738,1.384 -23.043,0 -25.23,0 c -0.233,0 -0.233,-0.226 -0.233,-0.226 l 0,-3.953 C -0.233,0 0,0 0,0"
             style="fill:#547fc9;fill-opacity:1;fill-rule:evenodd;stroke:none"
             id="path3091" />
        </g>
        <g
           id="g3093"
           transform="translate(295.6914,321.7959)">
          <path
             inkscape:connector-curvature="0"
             d="m 0,0 49.449,0 0,-1.64 -0.472,-1.381 -0.742,-1.386 -23.04,0 -25.195,0 c -0.271,0 -0.271,0.227 -0.271,0.227 l 0,3.923 C -0.271,0 0,0 0,0"
             style="fill:#547fc9;fill-opacity:1;fill-rule:evenodd;stroke:none"
             id="path3095" />
        </g>
        <path
           inkscape:connector-curvature="0"
           d="m 303.201,350.258 13.338,0 0,4.405 -13.338,0 0,-4.405 z"
           style="fill:#547fc9;fill-opacity:1;fill-rule:evenodd;stroke:none"
           id="path3097" />
        <path
           inkscape:connector-curvature="0"
           d="m 303.437,329.898 13.34,0 0,-4.404 -13.34,0 0,4.404 z"
           style="fill:#547fc9;fill-opacity:1;fill-rule:evenodd;stroke:none"
           id="path3099" />
        <g
           id="g3101"
           transform="translate(330.5898,350.0332)">
          <path
             inkscape:connector-curvature="0"
             d="M 0,0 13.337,0 14.078,1.866 14.551,4.404 0,4.182 0,0 z"
             style="fill:#547fc9;fill-opacity:1;fill-rule:evenodd;stroke:none"
             id="path3103" />
        </g>
        <g
           id="g3105"
           transform="translate(330.5898,329.8984)">
          <path
             inkscape:connector-curvature="0"
             d="M 0,0 13.337,0 14.078,-2.086 14.315,-4.179 0,-4.404 0,0 z"
             style="fill:#547fc9;fill-opacity:1;fill-rule:evenodd;stroke:none"
             id="path3107" />
        </g>
        <g
           id="g3109"
           transform="translate(303.2012,341.9287)">
          <path
             inkscape:connector-curvature="0"
             d="M 0,0 36.143,0 37.088,1.157 38.063,2.539 39.041,4.18 0,4.406 0,0 z"
             style="fill:#547fc9;fill-opacity:1;fill-rule:evenodd;stroke:none"
             id="path3111" />
        </g>
        <g
           id="g3113"
           transform="translate(303.4375,338.2314)">
          <path
             inkscape:connector-curvature="0"
             d="m 0,0 36.144,0 1.448,-1.16 1.213,-1.642 0.74,-1.605 L 0,-4.407 0,0 z"
             style="fill:#547fc9;fill-opacity:1;fill-rule:evenodd;stroke:none"
             id="path3115" />
        </g>
        <g
           id="g3117"
           transform="translate(427.541,310.0811)">
          <path
             inkscape:connector-curvature="0"
             d="m 0,0 0,1.785 1.244,0 c 0.637,0 1.313,-0.13 1.313,-0.848 C 2.557,0.054 1.867,0 1.092,0 L 0,0 z m 0,-0.741 1.051,0 1.591,-2.488 1.023,0 -1.714,2.528 c 0.883,0.105 1.563,0.555 1.563,1.586 0,1.139 -0.705,1.64 -2.131,1.64 l -2.299,0 0,-5.754 0.916,0 0,2.488 z m 1.106,-4.588 c 2.848,0 5.27,2.1 5.27,4.985 0,2.869 -2.422,4.966 -5.27,4.966 -2.883,0 -5.317,-2.097 -5.317,-4.966 0,-2.885 2.434,-4.985 5.317,-4.985 m -4.272,4.985 c 0,2.368 1.877,4.139 4.272,4.139 2.365,0 4.224,-1.771 4.224,-4.139 0,-2.396 -1.859,-4.162 -4.224,-4.162 -2.395,0 -4.272,1.766 -4.272,4.162"
             style="fill:#547fc9;fill-opacity:1;fill-rule:nonzero;stroke:none"
             id="path3119" />
        </g>
        <g
           id="g3121"
           transform="translate(544.376,353.7529)">
          <path
             inkscape:connector-curvature="0"
             d="m 0,0 c -0.801,-1.739 -2.178,-2.503 -4.311,-2.503 -3.069,0 -4.715,1.824 -4.893,5.35 l 15.785,0 c 0.047,0.55 0.047,1.059 0.047,1.568 0,7.771 -4.136,12.099 -11.341,12.099 -6.801,0 -11.027,-4.54 -11.027,-11.927 0,-7.6 4.404,-12.185 11.118,-12.185 5.601,0 9.647,2.888 10.938,7.598 L 0,0 z m -9.204,6.795 c 0.269,3.054 1.913,4.67 4.627,4.67 2.931,0 4.577,-1.616 4.668,-4.67 l -9.295,0 z"
             style="fill:#b1211c;fill-opacity:1;fill-rule:nonzero;stroke:none"
             id="path3123" />
        </g>
        <g
           id="g3125"
           transform="translate(552.5137,369.4609)">
          <path
             inkscape:connector-curvature="0"
             d="m 0,0 6.981,0 4.847,-16.175 4.89,16.175 6.67,0 -8.448,-22.541 -6.448,0 L 0,0 z"
             style="fill:#b1211c;fill-opacity:1;fill-rule:nonzero;stroke:none"
             id="path3127" />
        </g>
        <g
           id="g3129"
           transform="translate(593.2891,353.7529)">
          <path
             inkscape:connector-curvature="0"
             d="m 0,0 c -0.804,-1.739 -2.182,-2.503 -4.314,-2.503 -3.069,0 -4.714,1.824 -4.891,5.35 l 15.784,0 c 0.045,0.55 0.045,1.059 0.045,1.568 0,7.771 -4.138,12.099 -11.34,12.099 -6.802,0 -11.026,-4.54 -11.026,-11.927 0,-7.6 4.402,-12.185 11.116,-12.185 5.602,0 9.647,2.888 10.938,7.598 L 0,0 z m -9.205,6.795 c 0.265,3.054 1.909,4.67 4.623,4.67 2.935,0 4.582,-1.616 4.669,-4.67 l -9.292,0 z"
             style="fill:#b1211c;fill-opacity:1;fill-rule:nonzero;stroke:none"
             id="path3131" />
        </g>
        <g
           id="g3133"
           transform="translate(604.0908,369.4609)">
          <path
             inkscape:connector-curvature="0"
             d="m 0,0 6.179,0 0,-2.676 c 1.779,2.166 4.181,3.27 7.16,3.27 5.202,0 7.783,-2.59 7.783,-7.769 l 0,-15.366 -6.314,0 0,13.628 c 0,3.054 -0.936,4.498 -3.647,4.498 -2.935,0 -4.848,-1.782 -4.848,-4.752 l 0,-13.374 -6.313,0 L 0,0 z"
             style="fill:#b1211c;fill-opacity:1;fill-rule:nonzero;stroke:none"
             id="path3135" />
        </g>
        <g
           id="g3137"
           transform="translate(637.5273,346.623)">
          <path
             inkscape:connector-curvature="0"
             d="m 0,0 c -5.201,0 -6.312,1.696 -6.312,6.408 l 0,12.187 -3.116,0 0,4.243 3.116,0 0,6.156 6.266,0 0,-6.156 3.648,0 0,-4.243 -3.648,0 0,-12.483 c 0,-1.188 0.403,-1.442 2.092,-1.442 l 1.556,0 0,-4.543 C 1.867,0.084 0.668,0 0,0"
             style="fill:#b1211c;fill-opacity:1;fill-rule:nonzero;stroke:none"
             id="path3139" />
        </g>
        <g
           id="g3141"
           transform="translate(534.8164,315.5039)">
          <path
             inkscape:connector-curvature="0"
             d="m 0,0 c 0.092,-2.291 1.691,-3.395 4.937,-3.395 2.534,0 3.869,0.848 3.869,2.249 0,1.955 -2.044,1.826 -6.227,2.843 -5.556,1.361 -8.181,2.972 -8.181,6.793 0,4.541 3.648,7.515 9.694,7.515 6.358,0 10.092,-2.844 10.315,-7.686 l -6.136,0 c -0.087,1.91 -1.556,3.016 -4.135,3.016 -2.4,0 -3.555,-0.679 -3.555,-2.08 0,-1.57 1.954,-1.74 6.445,-2.761 5.47,-1.228 8.135,-2.674 8.135,-6.75 0,-5.093 -3.822,-7.852 -11.069,-7.852 -6.579,0 -10.404,3.014 -10.404,7.852 L -6.312,0 0,0 z"
             style="fill:#b1211c;fill-opacity:1;fill-rule:nonzero;stroke:none"
             id="path3143" />
        </g>
        <g
           id="g3145"
           transform="translate(554.248,299.1201)">
          <path
             inkscape:connector-curvature="0"
             d="m 0,0 6.136,0 0,11.841 c 1.557,-2.335 3.958,-3.566 6.981,-3.566 5.513,0 9.692,4.714 9.692,12.142 0,7.217 -4.044,11.927 -9.784,11.927 -3.067,0 -5.202,-1.186 -7.022,-3.82 l 0,3.056 L 0,31.58 0,0 z m 16.54,20.162 c 0,-4.201 -2.002,-6.663 -5.113,-6.663 -3.335,0 -5.291,2.375 -5.291,6.663 0,4.627 1.823,7.003 5.158,7.003 3.378,0 5.246,-2.419 5.246,-7.003"
             style="fill:#b1211c;fill-opacity:1;fill-rule:nonzero;stroke:none"
             id="path3147" />
        </g>
        <g
           id="g3149"
           transform="translate(580.1689,319.4521)">
          <path
             inkscape:connector-curvature="0"
             d="m 0,0 c 0,-7.515 4.535,-12.057 11.963,-12.057 7.425,0 11.959,4.542 11.959,12.057 0,7.514 -4.534,12.057 -11.959,12.057 C 4.535,12.057 0,7.514 0,0 m 6.403,0 c 0,4.5 2.044,6.962 5.56,6.962 3.511,0 5.51,-2.462 5.51,-6.962 0,-4.501 -1.999,-7.005 -5.51,-7.005 -3.516,0 -5.56,2.504 -5.56,7.005"
             style="fill:#b1211c;fill-opacity:1;fill-rule:nonzero;stroke:none"
             id="path3151" />
        </g>
        <g
           id="g3153"
           transform="translate(608.4043,330.7002)">
          <path
             inkscape:connector-curvature="0"
             d="m 0,0 6.18,0 0,-2.674 c 1.779,2.165 4.178,3.27 7.16,3.27 5.202,0 7.779,-2.591 7.779,-7.768 l 0,-15.367 -6.315,0 0,13.626 c 0,3.055 -0.932,4.498 -3.644,4.498 -2.936,0 -4.848,-1.782 -4.848,-4.753 l 0,-13.371 -6.312,0 L 0,0 z"
             style="fill:#b1211c;fill-opacity:1;fill-rule:nonzero;stroke:none"
             id="path3155" />
        </g>
        <g
           id="g3157"
           transform="translate(639.9287,315.5039)">
          <path
             inkscape:connector-curvature="0"
             d="m 0,0 c 0.09,-2.291 1.688,-3.395 4.934,-3.395 2.533,0 3.869,0.848 3.869,2.249 0,1.955 -2.048,1.826 -6.226,2.843 -5.557,1.361 -8.181,2.972 -8.181,6.793 0,4.541 3.648,7.515 9.692,7.515 6.359,0 10.094,-2.844 10.317,-7.686 l -6.136,0 c -0.087,1.91 -1.556,3.016 -4.137,3.016 -2.4,0 -3.556,-0.679 -3.556,-2.08 0,-1.57 1.957,-1.74 6.448,-2.761 5.468,-1.228 8.137,-2.674 8.137,-6.75 0,-5.093 -3.825,-7.852 -11.073,-7.852 -6.579,0 -10.402,3.014 -10.402,7.852 L -6.314,0 0,0 z"
             style="fill:#b1211c;fill-opacity:1;fill-rule:nonzero;stroke:none"
             id="path3159" />
        </g>
        <g
           id="g3161"
           transform="translate(658.0244,319.4521)">
          <path
             inkscape:connector-curvature="0"
             d="m 0,0 c 0,-7.515 4.535,-12.057 11.96,-12.057 7.425,0 11.96,4.542 11.96,12.057 0,7.514 -4.535,12.057 -11.96,12.057 C 4.535,12.057 0,7.514 0,0 m 6.403,0 c 0,4.5 2.044,6.962 5.557,6.962 3.514,0 5.513,-2.462 5.513,-6.962 0,-4.501 -1.999,-7.005 -5.513,-7.005 -3.513,0 -5.557,2.504 -5.557,7.005"
             style="fill:#b1211c;fill-opacity:1;fill-rule:nonzero;stroke:none"
             id="path3163" />
        </g>
        <g
           id="g3165"
           transform="translate(686.2588,330.7002)">
          <path
             inkscape:connector-curvature="0"
             d="m 0,0 5.869,0 0,-3.861 c 1.643,3.098 3.777,4.499 6.802,4.499 0.31,0 0.624,0 0.934,-0.042 l 0,-6.114 -2.089,0 c -3.425,0 -5.204,-1.697 -5.204,-5.093 l 0,-11.928 -6.312,0 L 0,0 z"
             style="fill:#b1211c;fill-opacity:1;fill-rule:nonzero;stroke:none"
             id="path3167" />
        </g>
        <path
           inkscape:connector-curvature="0"
           d="m 258.804,366.689 31.061,0 0,4.408 -31.061,0 0,-4.408 z"
           style="fill:#547fc9;fill-opacity:1;fill-rule:evenodd;stroke:none"
           id="path3169" />
        <path
           inkscape:connector-curvature="0"
           d="m 258.804,317.389 31.061,0 0,4.407 -31.061,0 0,-4.407 z"
           style="fill:#547fc9;fill-opacity:1;fill-rule:evenodd;stroke:none"
           id="path3171" />
        <path
           inkscape:connector-curvature="0"
           d="m 258.804,358.588 31.061,0 0,4.404 -31.061,0 0,-4.404 z"
           style="fill:#547fc9;fill-opacity:1;fill-rule:evenodd;stroke:none"
           id="path3173" />
        <path
           inkscape:connector-curvature="0"
           d="m 266.588,350.258 13.338,0 0,4.405 -13.338,0 0,-4.405 z"
           style="fill:#547fc9;fill-opacity:1;fill-rule:evenodd;stroke:none"
           id="path3175" />
        <path
           inkscape:connector-curvature="0"
           d="m 266.588,333.824 13.338,0 0,4.407 -13.338,0 0,-4.407 z"
           style="fill:#547fc9;fill-opacity:1;fill-rule:evenodd;stroke:none"
           id="path3177" />
        <path
           inkscape:connector-curvature="0"
           d="m 266.588,342.153 13.338,0 0,4.407 -13.338,0 0,-4.407 z"
           style="fill:#547fc9;fill-opacity:1;fill-rule:evenodd;stroke:none"
           id="path3179" />
        <path
           inkscape:connector-curvature="0"
           d="m 266.588,325.494 13.338,0 0,4.404 -13.338,0 0,-4.404 z"
           style="fill:#547fc9;fill-opacity:1;fill-rule:evenodd;stroke:none"
           id="path3181" />
        <path
           inkscape:connector-curvature="0"
           d="m 258.804,309.061 31.061,0 0,4.374 -31.061,0 0,-4.374 z"
           style="fill:#547fc9;fill-opacity:1;fill-rule:evenodd;stroke:none"
           id="path3183" />
        <g
           id="g3185"
           transform="translate(349.7559,366.6895)">
          <path
             inkscape:connector-curvature="0"
             d="M 0,0 28.63,0 27.653,4.408 0,4.408 0,0 z"
             style="fill:#547fc9;fill-opacity:1;fill-rule:evenodd;stroke:none"
             id="path3187" />
        </g>
        <path
           inkscape:connector-curvature="0"
           d="m 349.518,317.389 21.593,0 0,4.407 -21.593,0 0,-4.407 z"
           style="fill:#547fc9;fill-opacity:1;fill-rule:evenodd;stroke:none"
           id="path3189" />
        <g
           id="g3191"
           transform="translate(349.7559,358.5879)">
          <path
             inkscape:connector-curvature="0"
             d="M 0,0 30.819,0 29.606,4.404 0,4.404 0,0 z"
             style="fill:#547fc9;fill-opacity:1;fill-rule:evenodd;stroke:none"
             id="path3193" />
        </g>
        <g
           id="g3195"
           transform="translate(357.5371,350.2578)">
          <path
             inkscape:connector-curvature="0"
             d="M 0,0 24.725,0 23.744,4.405 0,4.405 0,0 z"
             style="fill:#547fc9;fill-opacity:1;fill-rule:evenodd;stroke:none"
             id="path3197" />
        </g>
        <path
           inkscape:connector-curvature="0"
           d="m 357.537,333.824 13.337,0 0,4.407 -13.337,0 0,-4.407 z"
           style="fill:#547fc9;fill-opacity:1;fill-rule:evenodd;stroke:none"
           id="path3199" />
        <g
           id="g3201"
           transform="translate(375.4551,333.8242)">
          <path
             inkscape:connector-curvature="0"
             d="m 0,0 18.19,0 1.718,4.407 -21.592,0 L 0,0 z"
             style="fill:#547fc9;fill-opacity:1;fill-rule:evenodd;stroke:none"
             id="path3203" />
        </g>
        <g
           id="g3205"
           transform="translate(396.8115,342.1533)">
          <path
             inkscape:connector-curvature="0"
             d="m 0,0 1.954,3.696 0,-3.921 13.34,0 0,4.407 -25.972,0 -1.449,-3.956 -1.214,3.956 -25.699,0 0,-4.407 13.339,0 0,3.921 L -24.017,0 0,0 z"
             style="fill:#547fc9;fill-opacity:1;fill-rule:evenodd;stroke:none"
             id="path3207" />
        </g>
        <path
           inkscape:connector-curvature="0"
           d="m 357.537,325.494 13.337,0 0,4.404 -13.337,0 0,-4.404 z"
           style="fill:#547fc9;fill-opacity:1;fill-rule:evenodd;stroke:none"
           id="path3209" />
        <g
           id="g3211"
           transform="translate(381.7881,317.3887)">
          <path
             inkscape:connector-curvature="0"
             d="m 0,0 5.795,0 1.716,4.407 -9.229,0 L 0,0 z"
             style="fill:#547fc9;fill-opacity:1;fill-rule:evenodd;stroke:none"
             id="path3213" />
        </g>
        <g
           id="g3215"
           transform="translate(384.6846,309.2861)">
          <path
             inkscape:connector-curvature="0"
             d="m 0,0 0,0 1.683,4.403 -3.366,0 L 0,0 z"
             style="fill:#547fc9;fill-opacity:1;fill-rule:evenodd;stroke:none"
             id="path3217" />
        </g>
        <g
           id="g3219"
           transform="translate(378.6221,325.4941)">
          <path
             inkscape:connector-curvature="0"
             d="m 0,0 12.128,0 1.447,4.404 -15.258,0 L 0,0 z"
             style="fill:#547fc9;fill-opacity:1;fill-rule:evenodd;stroke:none"
             id="path3221" />
        </g>
        <path
           inkscape:connector-curvature="0"
           d="m 349.518,309.061 21.829,0 0,4.374 -21.829,0 0,-4.374 z"
           style="fill:#547fc9;fill-opacity:1;fill-rule:evenodd;stroke:none"
           id="path3223" />
        <g
           id="g3225"
           transform="translate(419.6162,366.6895)">
          <path
             inkscape:connector-curvature="0"
             d="M 0,0 -28.632,0 -27.655,4.408 0,4.408 0,0 z"
             style="fill:#547fc9;fill-opacity:1;fill-rule:evenodd;stroke:none"
             id="path3227" />
        </g>
        <path
           inkscape:connector-curvature="0"
           d="m 419.616,317.389 -21.592,0 0,4.407 21.592,0 0,-4.407 z"
           style="fill:#547fc9;fill-opacity:1;fill-rule:evenodd;stroke:none"
           id="path3229" />
        <g
           id="g3231"
           transform="translate(419.6162,358.5879)">
          <path
             inkscape:connector-curvature="0"
             d="M 0,0 -30.819,0 -29.61,4.404 0,4.404 0,0 z"
             style="fill:#547fc9;fill-opacity:1;fill-rule:evenodd;stroke:none"
             id="path3233" />
        </g>
        <g
           id="g3235"
           transform="translate(411.834,350.2578)">
          <path
             inkscape:connector-curvature="0"
             d="M 0,0 -24.723,0 -23.747,4.405 0,4.405 0,0 z"
             style="fill:#547fc9;fill-opacity:1;fill-rule:evenodd;stroke:none"
             id="path3237" />
        </g>
        <path
           inkscape:connector-curvature="0"
           d="m 411.834,333.824 -13.336,0 0,4.407 13.336,0 0,-4.407 z"
           style="fill:#547fc9;fill-opacity:1;fill-rule:evenodd;stroke:none"
           id="path3239" />
        <path
           inkscape:connector-curvature="0"
           d="m 411.834,325.494 -13.336,0 0,4.404 13.336,0 0,-4.404 z"
           style="fill:#547fc9;fill-opacity:1;fill-rule:evenodd;stroke:none"
           id="path3241" />
        <path
           inkscape:connector-curvature="0"
           d="m 419.616,309.061 -21.826,0 0,4.374 21.826,0 0,-4.374 z"
           style="fill:#547fc9;fill-opacity:1;fill-rule:evenodd;stroke:none"
           id="path3243" />
        <g
           id="g3245"
           transform="translate(295.1865,366.6895)">
          <path
             inkscape:connector-curvature="0"
             d="M 0,0 45.608,0 43.653,1.415 40.253,3.249 37.12,3.958 33.244,4.408 0,4.408 0,0 z"
             style="fill:#547fc9;fill-opacity:1;fill-rule:evenodd;stroke:none"
             id="path3247" />
        </g>
        <g
           id="g3249"
           transform="translate(295.4199,313.4346)">
          <path
             inkscape:connector-curvature="0"
             d="M 0,0 45.609,0 43.658,-1.384 40.287,-3.216 37.121,-3.925 33.247,-4.374 0,-4.374 0,0 z"
             style="fill:#547fc9;fill-opacity:1;fill-rule:evenodd;stroke:none"
             id="path3251" />
        </g>
        <g
           id="g3253"
           transform="translate(295.4199,358.3613)">
          <path
             inkscape:connector-curvature="0"
             d="m 0,0 49.485,0 0,1.641 -0.474,1.381 -0.738,1.384 -23.043,0 -25.23,0 c -0.233,0 -0.233,-0.226 -0.233,-0.226 l 0,-3.953 C -0.233,0 0,0 0,0"
             style="fill:#547fc9;fill-opacity:1;fill-rule:evenodd;stroke:none"
             id="path3255" />
        </g>
        <g
           id="g3257"
           transform="translate(295.6914,321.7959)">
          <path
             inkscape:connector-curvature="0"
             d="m 0,0 49.449,0 0,-1.64 -0.472,-1.381 -0.742,-1.386 -23.04,0 -25.195,0 c -0.271,0 -0.271,0.227 -0.271,0.227 l 0,3.923 C -0.271,0 0,0 0,0"
             style="fill:#547fc9;fill-opacity:1;fill-rule:evenodd;stroke:none"
             id="path3259" />
        </g>
        <path
           inkscape:connector-curvature="0"
           d="m 303.201,350.258 13.338,0 0,4.405 -13.338,0 0,-4.405 z"
           style="fill:#547fc9;fill-opacity:1;fill-rule:evenodd;stroke:none"
           id="path3261" />
        <path
           inkscape:connector-curvature="0"
           d="m 303.437,329.898 13.34,0 0,-4.404 -13.34,0 0,4.404 z"
           style="fill:#547fc9;fill-opacity:1;fill-rule:evenodd;stroke:none"
           id="path3263" />
        <g
           id="g3265"
           transform="translate(330.5898,350.0332)">
          <path
             inkscape:connector-curvature="0"
             d="M 0,0 13.337,0 14.078,1.866 14.551,4.404 0,4.182 0,0 z"
             style="fill:#547fc9;fill-opacity:1;fill-rule:evenodd;stroke:none"
             id="path3267" />
        </g>
        <g
           id="g3269"
           transform="translate(330.5898,329.8984)">
          <path
             inkscape:connector-curvature="0"
             d="M 0,0 13.337,0 14.078,-2.086 14.315,-4.179 0,-4.404 0,0 z"
             style="fill:#547fc9;fill-opacity:1;fill-rule:evenodd;stroke:none"
             id="path3271" />
        </g>
        <g
           id="g3273"
           transform="translate(303.2012,341.9287)">
          <path
             inkscape:connector-curvature="0"
             d="M 0,0 36.143,0 37.088,1.157 38.063,2.539 39.041,4.18 0,4.406 0,0 z"
             style="fill:#547fc9;fill-opacity:1;fill-rule:evenodd;stroke:none"
             id="path3275" />
        </g>
        <g
           id="g3277"
           transform="translate(303.4375,338.2314)">
          <path
             inkscape:connector-curvature="0"
             d="m 0,0 36.144,0 1.448,-1.16 1.213,-1.642 0.74,-1.605 L 0,-4.407 0,0 z"
             style="fill:#547fc9;fill-opacity:1;fill-rule:evenodd;stroke:none"
             id="path3279" />
        </g>
        <g
           id="g3281"
           transform="translate(427.541,310.0811)">
          <path
             inkscape:connector-curvature="0"
             d="m 0,0 0,1.785 1.244,0 c 0.637,0 1.313,-0.13 1.313,-0.848 C 2.557,0.054 1.867,0 1.092,0 L 0,0 z m 0,-0.741 1.051,0 1.591,-2.488 1.023,0 -1.714,2.528 c 0.883,0.105 1.563,0.555 1.563,1.586 0,1.139 -0.705,1.64 -2.131,1.64 l -2.299,0 0,-5.754 0.916,0 0,2.488 z m 1.106,-4.588 c 2.848,0 5.27,2.1 5.27,4.985 0,2.869 -2.422,4.966 -5.27,4.966 -2.883,0 -5.317,-2.097 -5.317,-4.966 0,-2.885 2.434,-4.985 5.317,-4.985 m -4.272,4.985 c 0,2.368 1.877,4.139 4.272,4.139 2.365,0 4.224,-1.771 4.224,-4.139 0,-2.396 -1.859,-4.162 -4.224,-4.162 -2.395,0 -4.272,1.766 -4.272,4.162"
             style="fill:#547fc9;fill-opacity:1;fill-rule:nonzero;stroke:none"
             id="path3283" />
        </g>
        <path
           inkscape:connector-curvature="0"
           d="m 380.138,503.267 5.636,0 0,-26.145 -5.636,0 0,26.145 z"
           style="fill:#0c3e6e;fill-opacity:1;fill-rule:nonzero;stroke:none"
           id="path3285" />
        <g
           id="g3287"
           transform="translate(391.1826,496.4307)">
          <path
             inkscape:connector-curvature="0"
             d="m 0,0 5.294,0 0,-2.292 c 1.523,1.855 3.581,2.802 6.132,2.802 4.457,0 6.665,-2.218 6.665,-6.656 l 0,-13.163 -5.408,0 0,11.674 c 0,2.616 -0.801,3.852 -3.123,3.852 -2.515,0 -4.151,-1.526 -4.151,-4.072 l 0,-11.454 -5.409,0 L 0,0 z"
             style="fill:#0c3e6e;fill-opacity:1;fill-rule:nonzero;stroke:none"
             id="path3289" />
        </g>
        <g
           id="g3291"
           transform="translate(419.8223,476.8682)">
          <path
             inkscape:connector-curvature="0"
             d="m 0,0 c -4.455,0 -5.406,1.454 -5.406,5.491 l 0,10.435 -2.666,0 0,3.636 2.666,0 0,5.273 5.37,0 0,-5.273 3.122,0 0,-3.636 -3.122,0 0,-10.691 c 0,-1.017 0.341,-1.236 1.788,-1.236 l 1.334,0 0,-3.889 C 1.6,0.073 0.572,0 0,0"
             style="fill:#0c3e6e;fill-opacity:1;fill-rule:nonzero;stroke:none"
             id="path3293" />
        </g>
        <g
           id="g3295"
           transform="translate(438.4863,482.9756)">
          <path
             inkscape:connector-curvature="0"
             d="m 0,0 c -0.687,-1.49 -1.867,-2.145 -3.695,-2.145 -2.627,0 -4.037,1.563 -4.191,4.582 l 13.522,0 c 0.038,0.474 0.038,0.91 0.038,1.346 0,6.655 -3.541,10.363 -9.712,10.363 -5.827,0 -9.445,-3.891 -9.445,-10.217 0,-6.509 3.77,-10.438 9.521,-10.438 4.8,0 8.266,2.474 9.37,6.509 L 0,0 z m -7.886,5.82 c 0.23,2.617 1.64,3.998 3.962,3.998 2.515,0 3.924,-1.381 4,-3.998 l -7.962,0 z"
             style="fill:#0c3e6e;fill-opacity:1;fill-rule:nonzero;stroke:none"
             id="path3297" />
        </g>
        <g
           id="g3299"
           transform="translate(447.7422,496.4307)">
          <path
             inkscape:connector-curvature="0"
             d="m 0,0 5.025,0 0,-3.309 c 1.411,2.656 3.237,3.854 5.828,3.854 0.266,0 0.533,0 0.798,-0.035 l 0,-5.238 -1.788,0 c -2.933,0 -4.457,-1.454 -4.457,-4.364 l 0,-10.217 -5.406,0 L 0,0 z"
             style="fill:#0c3e6e;fill-opacity:1;fill-rule:nonzero;stroke:none"
             id="path3301" />
        </g>
        <g
           id="g3303"
           transform="translate(462.3662,496.4307)">
          <path
             inkscape:connector-curvature="0"
             d="m 0,0 5.292,0 0,-2.292 c 1.525,1.855 3.581,2.802 6.133,2.802 4.456,0 6.665,-2.218 6.665,-6.656 l 0,-13.163 -5.407,0 0,11.674 c 0,2.616 -0.799,3.852 -3.122,3.852 -2.515,0 -4.154,-1.526 -4.154,-4.072 l 0,-11.454 -5.407,0 L 0,0 z"
             style="fill:#0c3e6e;fill-opacity:1;fill-rule:nonzero;stroke:none"
             id="path3305" />
        </g>
        <g
           id="g3307"
           transform="translate(496.6816,479.5215)">
          <path
             inkscape:connector-curvature="0"
             d="m 0,0 c 0.037,-0.91 0.229,-1.708 0.609,-2.399 l 5.637,0 0,0.874 C 5.333,-1.092 5.104,-0.254 5.104,1.164 l 0,10.981 c 0,3.492 -3.047,5.456 -8.762,5.456 -5.216,0 -8.262,-2.437 -8.262,-6.365 l 0,-0.363 5.065,0 0,0.29 c 0,1.528 1.179,2.4 3.388,2.4 2.324,0 3.315,-0.581 3.315,-2.181 0,-1.854 -1.447,-1.563 -5.638,-2.182 -4.722,-0.689 -6.855,-2.364 -6.855,-6.145 0,-3.965 2.247,-6.145 6.133,-6.145 2.93,0 5.18,1.09 6.512,3.09 m -0.076,7.092 0,-1.819 c 0,-2.727 -1.789,-4.399 -4.724,-4.399 -1.637,0 -2.664,0.909 -2.664,2.325 0,1.492 0.837,2.111 2.55,2.583 1.029,0.291 2.781,0.402 4.838,1.31"
             style="fill:#0c3e6e;fill-opacity:1;fill-rule:nonzero;stroke:none"
             id="path3309" />
        </g>
        <g
           id="g3311"
           transform="translate(512.4121,476.8682)">
          <path
             inkscape:connector-curvature="0"
             d="m 0,0 c -4.456,0 -5.408,1.454 -5.408,5.491 l 0,10.435 -2.666,0 0,3.636 2.666,0 0,5.273 5.37,0 0,-5.273 3.122,0 0,-3.636 -3.122,0 0,-10.691 c 0,-1.017 0.343,-1.236 1.788,-1.236 l 1.334,0 0,-3.889 C 1.598,0.073 0.569,0 0,0"
             style="fill:#0c3e6e;fill-opacity:1;fill-rule:nonzero;stroke:none"
             id="path3313" />
        </g>
        <path
           inkscape:connector-curvature="0"
           d="m 518.734,503.267 5.408,0 0,-4.691 -5.408,0 0,4.691 z m 0,-6.836 5.408,0 0,-19.309 -5.408,0 0,19.309 z"
           style="fill:#0c3e6e;fill-opacity:1;fill-rule:nonzero;stroke:none"
           id="path3315" />
        <g
           id="g3317"
           transform="translate(527.9502,486.7949)">
          <path
             inkscape:connector-curvature="0"
             d="m 0,0 c 0,-6.437 3.885,-10.328 10.245,-10.328 6.361,0 10.245,3.891 10.245,10.328 0,6.436 -3.884,10.327 -10.245,10.327 C 3.885,10.327 0,6.436 0,0 m 5.484,0 c 0,3.854 1.752,5.962 4.761,5.962 3.01,0 4.724,-2.108 4.724,-5.962 0,-3.855 -1.714,-6.001 -4.724,-6.001 -3.009,0 -4.761,2.146 -4.761,6.001"
             style="fill:#0c3e6e;fill-opacity:1;fill-rule:nonzero;stroke:none"
             id="path3319" />
        </g>
        <g
           id="g3321"
           transform="translate(552.1348,496.4307)">
          <path
             inkscape:connector-curvature="0"
             d="m 0,0 5.295,0 0,-2.292 c 1.523,1.855 3.58,2.802 6.131,2.802 4.457,0 6.667,-2.218 6.667,-6.656 l 0,-13.163 -5.411,0 0,11.674 c 0,2.616 -0.799,3.852 -3.122,3.852 -2.514,0 -4.151,-1.526 -4.151,-4.072 l 0,-11.454 -5.409,0 L 0,0 z"
             style="fill:#0c3e6e;fill-opacity:1;fill-rule:nonzero;stroke:none"
             id="path3323" />
        </g>
        <g
           id="g3325"
           transform="translate(586.4521,479.5215)">
          <path
             inkscape:connector-curvature="0"
             d="m 0,0 c 0.036,-0.91 0.228,-1.708 0.607,-2.399 l 5.637,0 0,0.874 C 5.331,-1.092 5.102,-0.254 5.102,1.164 l 0,10.981 c 0,3.492 -3.046,5.456 -8.759,5.456 -5.22,0 -8.266,-2.437 -8.266,-6.365 l 0,-0.363 5.067,0 0,0.29 c 0,1.528 1.18,2.4 3.39,2.4 2.322,0 3.313,-0.581 3.313,-2.181 0,-1.854 -1.448,-1.563 -5.637,-2.182 -4.723,-0.689 -6.856,-2.364 -6.856,-6.145 0,-3.965 2.247,-6.145 6.132,-6.145 C -3.58,-3.09 -1.334,-2 0,0 m -0.077,7.092 0,-1.819 c 0,-2.727 -1.791,-4.399 -4.723,-4.399 -1.638,0 -2.667,0.909 -2.667,2.325 0,1.492 0.839,2.111 2.553,2.583 1.028,0.291 2.779,0.402 4.837,1.31"
             style="fill:#0c3e6e;fill-opacity:1;fill-rule:nonzero;stroke:none"
             id="path3327" />
        </g>
        <path
           inkscape:connector-curvature="0"
           d="m 596.467,503.267 5.409,0 0,-26.145 -5.409,0 0,26.145 z"
           style="fill:#0c3e6e;fill-opacity:1;fill-rule:nonzero;stroke:none"
           id="path3329" />
        <g
           id="g3331"
           transform="translate(629.7178,476.3945)">
          <path
             inkscape:connector-curvature="0"
             d="m 0,0 c -8.076,0 -12.836,5.018 -12.836,13.782 0,8.909 4.724,13.78 13.331,13.78 7.046,0 11.234,-3.455 11.615,-9.345 l -5.559,0 c -0.458,2.946 -2.553,4.546 -6.056,4.546 -4.951,0 -7.58,-3.127 -7.58,-8.981 0,-5.745 2.703,-8.909 7.389,-8.909 3.427,0 5.675,1.708 6.322,4.836 l 5.523,0 C 11.729,3.819 7.084,0 0,0"
             style="fill:#0c3e6e;fill-opacity:1;fill-rule:nonzero;stroke:none"
             id="path3333" />
        </g>
        <g
           id="g3335"
           transform="translate(644.874,486.7949)">
          <path
             inkscape:connector-curvature="0"
             d="m 0,0 c 0,-6.437 3.886,-10.328 10.247,-10.328 6.36,0 10.246,3.891 10.246,10.328 0,6.436 -3.886,10.327 -10.246,10.327 C 3.886,10.327 0,6.436 0,0 m 5.487,0 c 0,3.854 1.75,5.962 4.76,5.962 3.009,0 4.722,-2.108 4.722,-5.962 0,-3.855 -1.713,-6.001 -4.722,-6.001 -3.01,0 -4.76,2.146 -4.76,6.001"
             style="fill:#0c3e6e;fill-opacity:1;fill-rule:nonzero;stroke:none"
             id="path3337" />
        </g>
        <path
           inkscape:connector-curvature="0"
           d="m 669.25,503.267 5.411,0 0,-26.145 -5.411,0 0,26.145 z"
           style="fill:#0c3e6e;fill-opacity:1;fill-rule:nonzero;stroke:none"
           id="path3339" />
        <path
           inkscape:connector-curvature="0"
           d="m 679.724,503.267 5.409,0 0,-26.145 -5.409,0 0,26.145 z"
           style="fill:#0c3e6e;fill-opacity:1;fill-rule:nonzero;stroke:none"
           id="path3341" />
        <g
           id="g3343"
           transform="translate(702.4619,482.9756)">
          <path
             inkscape:connector-curvature="0"
             d="m 0,0 c -0.685,-1.49 -1.866,-2.145 -3.694,-2.145 -2.628,0 -4.036,1.563 -4.19,4.582 l 13.521,0 c 0.037,0.474 0.037,0.91 0.037,1.346 0,6.655 -3.54,10.363 -9.711,10.363 -5.827,0 -9.446,-3.891 -9.446,-10.217 0,-6.509 3.772,-10.438 9.522,-10.438 4.799,0 8.265,2.474 9.37,6.509 L 0,0 z m -7.884,5.82 c 0.229,2.617 1.638,3.998 3.961,3.998 2.514,0 3.923,-1.381 3.999,-3.998 l -7.96,0 z"
             style="fill:#0c3e6e;fill-opacity:1;fill-rule:nonzero;stroke:none"
             id="path3345" />
        </g>
        <g
           id="g3347"
           transform="translate(711.2598,475.2676)">
          <path
             inkscape:connector-curvature="0"
             d="m 0,0 c 0.229,-3.781 3.429,-6.036 8.875,-6.036 3.352,0 5.865,0.691 7.427,1.854 2.17,1.637 2.627,3.819 2.627,7.308 l 0,18.037 -5.14,0 0,-2.328 c -1.221,2.038 -3.124,3.019 -5.828,3.019 -5.143,0 -8.57,-3.855 -8.57,-10.217 0,-5.928 3.427,-9.783 8.645,-9.783 2.704,0 4.494,0.838 5.637,2.728 l 0,-1.71 c 0,-3.417 -0.914,-4.798 -4.532,-4.798 -1.829,0 -2.895,0.654 -3.237,1.926 L 0,0 z m 4.876,11.817 c 0,3.6 1.638,5.6 4.341,5.6 2.818,0 4.456,-1.964 4.456,-5.526 0,-3.745 -1.561,-5.71 -4.38,-5.71 -2.818,0 -4.417,2.002 -4.417,5.636"
             style="fill:#0c3e6e;fill-opacity:1;fill-rule:nonzero;stroke:none"
             id="path3349" />
        </g>
        <path
           inkscape:connector-curvature="0"
           d="m 735.064,503.267 5.409,0 0,-4.691 -5.409,0 0,4.691 z m 0,-6.836 5.409,0 0,-19.309 -5.409,0 0,19.309 z"
           style="fill:#0c3e6e;fill-opacity:1;fill-rule:nonzero;stroke:none"
           id="path3351" />
        <g
           id="g3353"
           transform="translate(756.8877,479.5215)">
          <path
             inkscape:connector-curvature="0"
             d="m 0,0 c 0.037,-0.91 0.229,-1.708 0.609,-2.399 l 5.636,0 0,0.874 C 5.332,-1.092 5.103,-0.254 5.103,1.164 l 0,10.981 c 0,3.492 -3.047,5.456 -8.76,5.456 -5.218,0 -8.264,-2.437 -8.264,-6.365 l 0,-0.363 5.065,0 0,0.29 c 0,1.528 1.18,2.4 3.39,2.4 2.322,0 3.313,-0.581 3.313,-2.181 0,-1.854 -1.447,-1.563 -5.637,-2.182 -4.723,-0.689 -6.855,-2.364 -6.855,-6.145 0,-3.965 2.248,-6.145 6.133,-6.145 C -3.58,-3.09 -1.334,-2 0,0 m -0.077,7.092 0,-1.819 c 0,-2.727 -1.79,-4.399 -4.723,-4.399 -1.637,0 -2.666,0.909 -2.666,2.325 0,1.492 0.84,2.111 2.553,2.583 1.027,0.291 2.78,0.402 4.836,1.31"
             style="fill:#0c3e6e;fill-opacity:1;fill-rule:nonzero;stroke:none"
             id="path3355" />
        </g>
        <g
           id="g3357"
           transform="translate(772.6172,476.8682)">
          <path
             inkscape:connector-curvature="0"
             d="m 0,0 c -4.455,0 -5.409,1.454 -5.409,5.491 l 0,10.435 -2.665,0 0,3.636 2.665,0 0,5.273 5.371,0 0,-5.273 3.123,0 0,-3.636 -3.123,0 0,-10.691 c 0,-1.017 0.344,-1.236 1.79,-1.236 l 1.333,0 0,-3.889 C 1.599,0.073 0.571,0 0,0"
             style="fill:#0c3e6e;fill-opacity:1;fill-rule:nonzero;stroke:none"
             id="path3359" />
        </g>
        <g
           id="g3361"
           transform="translate(791.2803,482.9756)">
          <path
             inkscape:connector-curvature="0"
             d="m 0,0 c -0.687,-1.49 -1.867,-2.145 -3.696,-2.145 -2.628,0 -4.036,1.563 -4.19,4.582 l 13.522,0 c 0.038,0.474 0.038,0.91 0.038,1.346 0,6.655 -3.542,10.363 -9.711,10.363 -5.828,0 -9.446,-3.891 -9.446,-10.217 0,-6.509 3.77,-10.438 9.522,-10.438 4.797,0 8.263,2.474 9.37,6.509 L 0,0 z m -7.886,5.82 c 0.23,2.617 1.639,3.998 3.963,3.998 C -1.41,9.818 0,8.437 0.076,5.82 l -7.962,0 z"
             style="fill:#0c3e6e;fill-opacity:1;fill-rule:nonzero;stroke:none"
             id="path3363" />
        </g>
        <g
           id="g3365"
           transform="translate(385.583,450.0674)">
          <path
             inkscape:connector-curvature="0"
             d="m 0,0 6.932,0 c 5.409,0 8.38,3.056 8.38,8.437 0,5.49 -2.971,8.399 -8.759,8.399 l -12.189,0 0,-26.145 5.636,0 L 0,0 z m 0,4.729 0,7.562 5.789,0 c 2.629,0 3.924,-1.309 3.924,-3.782 0,-2.691 -1.333,-3.78 -4.228,-3.78 L 0,4.729 z"
             style="fill:#0c3e6e;fill-opacity:1;fill-rule:nonzero;stroke:none"
             id="path3367" />
        </g>
        <g
           id="g3369"
           transform="translate(404.8945,460.0684)">
          <path
             inkscape:connector-curvature="0"
             d="m 0,0 5.027,0 0,-3.31 c 1.409,2.654 3.237,3.855 5.827,3.855 0.267,0 0.534,0 0.8,-0.037 l 0,-5.236 -1.791,0 c -2.931,0 -4.455,-1.455 -4.455,-4.363 l 0,-10.219 L 0,-19.31 0,0 z"
             style="fill:#0c3e6e;fill-opacity:1;fill-rule:nonzero;stroke:none"
             id="path3371" />
        </g>
        <g
           id="g3373"
           transform="translate(418.4902,450.4316)">
          <path
             inkscape:connector-curvature="0"
             d="m 0,0 c 0,-6.436 3.887,-10.327 10.245,-10.327 6.362,0 10.245,3.891 10.245,10.327 0,6.436 -3.883,10.326 -10.245,10.326 C 3.887,10.326 0,6.436 0,0 m 5.484,0 c 0,3.854 1.754,5.963 4.761,5.963 3.008,0 4.724,-2.109 4.724,-5.963 0,-3.854 -1.716,-5.999 -4.724,-5.999 -3.007,0 -4.761,2.145 -4.761,5.999"
             style="fill:#0c3e6e;fill-opacity:1;fill-rule:nonzero;stroke:none"
             id="path3375" />
        </g>
        <g
           id="g3377"
           transform="translate(442.2168,438.9053)">
          <path
             inkscape:connector-curvature="0"
             d="m 0,0 c 0.229,-3.783 3.428,-6.037 8.877,-6.037 3.352,0 5.863,0.692 7.426,1.855 2.171,1.635 2.627,3.818 2.627,7.309 l 0,18.036 -5.141,0 0,-2.327 c -1.219,2.036 -3.124,3.017 -5.828,3.017 -5.141,0 -8.568,-3.854 -8.568,-10.217 0,-5.926 3.427,-9.782 8.645,-9.782 2.704,0 4.493,0.836 5.636,2.728 l 0,-1.71 c 0,-3.419 -0.914,-4.801 -4.531,-4.801 -1.829,0 -2.895,0.657 -3.239,1.929 L 0,0 z m 4.876,11.817 c 0,3.601 1.64,5.6 4.343,5.6 2.818,0 4.455,-1.963 4.455,-5.526 0,-3.746 -1.561,-5.71 -4.381,-5.71 -2.816,0 -4.417,2.001 -4.417,5.636"
             style="fill:#0c3e6e;fill-opacity:1;fill-rule:nonzero;stroke:none"
             id="path3379" />
        </g>
        <g
           id="g3381"
           transform="translate(465.9082,460.0684)">
          <path
             inkscape:connector-curvature="0"
             d="m 0,0 5.028,0 0,-3.31 c 1.409,2.654 3.238,3.855 5.826,3.855 0.266,0 0.533,0 0.8,-0.037 l 0,-5.236 -1.79,0 c -2.932,0 -4.457,-1.455 -4.457,-4.363 l 0,-10.219 L 0,-19.31 0,0 z"
             style="fill:#0c3e6e;fill-opacity:1;fill-rule:nonzero;stroke:none"
             id="path3383" />
        </g>
        <g
           id="g3385"
           transform="translate(492.1104,443.1592)">
          <path
             inkscape:connector-curvature="0"
             d="m 0,0 c 0.038,-0.908 0.229,-1.709 0.61,-2.4 l 5.637,0 0,0.873 c -0.913,0.436 -1.143,1.271 -1.143,2.69 l 0,10.983 c 0,3.491 -3.048,5.453 -8.759,5.453 -5.218,0 -8.265,-2.437 -8.265,-6.363 l 0,-0.364 5.065,0 0,0.292 c 0,1.526 1.18,2.399 3.389,2.399 2.323,0 3.314,-0.583 3.314,-2.181 0,-1.855 -1.447,-1.565 -5.637,-2.182 -4.724,-0.69 -6.856,-2.363 -6.856,-6.146 0,-3.962 2.248,-6.145 6.133,-6.145 C -3.58,-3.091 -1.333,-2 0,0 m -0.076,7.091 0,-1.82 c 0,-2.725 -1.789,-4.399 -4.722,-4.399 -1.637,0 -2.665,0.908 -2.665,2.327 0,1.492 0.837,2.109 2.551,2.584 1.028,0.29 2.78,0.397 4.836,1.308"
             style="fill:#0c3e6e;fill-opacity:1;fill-rule:nonzero;stroke:none"
             id="path3387" />
        </g>
        <g
           id="g3389"
           transform="translate(501.9375,460.0684)">
          <path
             inkscape:connector-curvature="0"
             d="m 0,0 5.143,0 0,-2.146 c 1.484,1.782 3.35,2.691 5.597,2.691 2.551,0 4.305,-0.872 5.638,-2.835 1.409,1.853 3.351,2.835 5.751,2.835 4.037,0 6.627,-2.4 6.627,-6.363 l 0,-13.492 -5.332,0 0,12.438 c 0,1.89 -1.144,2.943 -3.01,2.943 -2.057,0 -3.428,-1.38 -3.428,-3.67 l 0,-11.711 -5.293,0 0,12.401 c 0,1.927 -1.103,2.98 -2.934,2.98 -2.056,0 -3.427,-1.38 -3.427,-3.707 l 0,-11.674 L 0,-19.31 0,0 z"
             style="fill:#0c3e6e;fill-opacity:1;fill-rule:nonzero;stroke:none"
             id="path3391" />
        </g>
        <g
           id="g3393"
           transform="translate(535.3398,460.0684)">
          <path
             inkscape:connector-curvature="0"
             d="m 0,0 5.143,0 0,-2.146 c 1.485,1.782 3.351,2.691 5.597,2.691 2.553,0 4.304,-0.872 5.637,-2.835 1.41,1.853 3.352,2.835 5.752,2.835 4.036,0 6.627,-2.4 6.627,-6.363 l 0,-13.492 -5.332,0 0,12.438 c 0,1.89 -1.143,2.943 -3.01,2.943 -2.056,0 -3.427,-1.38 -3.427,-3.67 l 0,-11.711 -5.295,0 0,12.401 c 0,1.927 -1.103,2.98 -2.931,2.98 -2.058,0 -3.427,-1.38 -3.427,-3.707 l 0,-11.674 L 0,-19.31 0,0 z"
             style="fill:#0c3e6e;fill-opacity:1;fill-rule:nonzero;stroke:none"
             id="path3395" />
        </g>
        <path
           inkscape:connector-curvature="0"
           d="m 568.857,466.903 5.407,0 0,-4.69 -5.407,0 0,4.69 z m 0,-6.835 5.407,0 0,-19.31 -5.407,0 0,19.31 z"
           style="fill:#0c3e6e;fill-opacity:1;fill-rule:nonzero;stroke:none"
           id="path3397" />
        <g
           id="g3399"
           transform="translate(579.1016,460.0684)">
          <path
             inkscape:connector-curvature="0"
             d="m 0,0 5.294,0 0,-2.29 c 1.524,1.853 3.58,2.798 6.133,2.798 4.456,0 6.665,-2.219 6.665,-6.655 l 0,-13.163 -5.409,0 0,11.674 c 0,2.617 -0.8,3.854 -3.124,3.854 -2.512,0 -4.151,-1.527 -4.151,-4.072 l 0,-11.456 L 0,-19.31 0,0 z"
             style="fill:#0c3e6e;fill-opacity:1;fill-rule:nonzero;stroke:none"
             id="path3401" />
        </g>
        <g
           id="g3403"
           transform="translate(601.3818,438.9053)">
          <path
             inkscape:connector-curvature="0"
             d="m 0,0 c 0.229,-3.783 3.428,-6.037 8.876,-6.037 3.352,0 5.863,0.692 7.425,1.855 2.171,1.635 2.628,3.818 2.628,7.309 l 0,18.036 -5.143,0 0,-2.327 c -1.217,2.036 -3.122,3.017 -5.826,3.017 -5.142,0 -8.568,-3.854 -8.568,-10.217 0,-5.926 3.426,-9.782 8.645,-9.782 2.704,0 4.494,0.836 5.636,2.728 l 0,-1.71 c 0,-3.419 -0.914,-4.801 -4.532,-4.801 -1.828,0 -2.894,0.657 -3.238,1.929 L 0,0 z m 4.875,11.817 c 0,3.601 1.638,5.6 4.343,5.6 2.818,0 4.455,-1.963 4.455,-5.526 0,-3.746 -1.561,-5.71 -4.38,-5.71 -2.819,0 -4.418,2.001 -4.418,5.636"
             style="fill:#0c3e6e;fill-opacity:1;fill-rule:nonzero;stroke:none"
             id="path3405" />
        </g>
        <g
           id="g3407"
           transform="translate(648.0381,440.0322)">
          <path
             inkscape:connector-curvature="0"
             d="m 0,0 c -8.075,0 -12.836,5.018 -12.836,13.782 0,8.909 4.724,13.78 13.331,13.78 7.044,0 11.236,-3.454 11.616,-9.346 l -5.561,0 c -0.455,2.946 -2.551,4.546 -6.055,4.546 -4.951,0 -7.58,-3.126 -7.58,-8.98 0,-5.746 2.706,-8.909 7.39,-8.909 3.428,0 5.675,1.708 6.321,4.836 l 5.523,0 C 11.731,3.818 7.085,0 0,0"
             style="fill:#0c3e6e;fill-opacity:1;fill-rule:nonzero;stroke:none"
             id="path3409" />
        </g>
        <g
           id="g3411"
           transform="translate(663.1973,450.4316)">
          <path
             inkscape:connector-curvature="0"
             d="m 0,0 c 0,-6.436 3.884,-10.327 10.244,-10.327 6.36,0 10.245,3.891 10.245,10.327 0,6.436 -3.885,10.326 -10.245,10.326 C 3.884,10.326 0,6.436 0,0 m 5.483,0 c 0,3.854 1.753,5.963 4.761,5.963 3.01,0 4.723,-2.109 4.723,-5.963 0,-3.854 -1.713,-5.999 -4.723,-5.999 -3.008,0 -4.761,2.145 -4.761,5.999"
             style="fill:#0c3e6e;fill-opacity:1;fill-rule:nonzero;stroke:none"
             id="path3413" />
        </g>
        <g
           id="g3415"
           transform="translate(687.3809,460.0684)">
          <path
             inkscape:connector-curvature="0"
             d="m 0,0 5.295,0 0,-2.29 c 1.522,1.853 3.578,2.798 6.133,2.798 4.455,0 6.663,-2.219 6.663,-6.655 l 0,-13.163 -5.407,0 0,11.674 c 0,2.617 -0.799,3.854 -3.124,3.854 -2.513,0 -4.151,-1.527 -4.151,-4.072 l 0,-11.456 L 0,-19.31 0,0 z"
             style="fill:#0c3e6e;fill-opacity:1;fill-rule:nonzero;stroke:none"
             id="path3417" />
        </g>
        <g
           id="g3419"
           transform="translate(716.0215,440.5049)">
          <path
             inkscape:connector-curvature="0"
             d="m 0,0 c -4.456,0 -5.408,1.454 -5.408,5.49 l 0,10.436 -2.667,0 0,3.637 2.667,0 0,5.272 5.371,0 0,-5.272 3.122,0 0,-3.637 -3.122,0 0,-10.69 C -0.037,4.218 0.305,4 1.752,4 l 1.333,0 0,-3.892 C 1.601,0.073 0.571,0 0,0"
             style="fill:#0c3e6e;fill-opacity:1;fill-rule:nonzero;stroke:none"
             id="path3421" />
        </g>
        <g
           id="g3423"
           transform="translate(734.6836,446.6133)">
          <path
             inkscape:connector-curvature="0"
             d="m 0,0 c -0.685,-1.491 -1.866,-2.145 -3.694,-2.145 -2.628,0 -4.036,1.563 -4.189,4.582 l 13.52,0 c 0.039,0.472 0.039,0.909 0.039,1.344 0,6.655 -3.541,10.364 -9.713,10.364 -5.827,0 -9.445,-3.891 -9.445,-10.217 0,-6.51 3.771,-10.437 9.521,-10.437 4.799,0 8.266,2.473 9.37,6.509 L 0,0 z m -7.883,5.819 c 0.228,2.618 1.638,3.998 3.96,3.998 2.514,0 3.923,-1.38 4,-3.998 l -7.96,0 z"
             style="fill:#0c3e6e;fill-opacity:1;fill-rule:nonzero;stroke:none"
             id="path3425" />
        </g>
        <g
           id="g3427"
           transform="translate(748.2051,447.0498)">
          <path
             inkscape:connector-curvature="0"
             d="m 0,0 c 0.077,-1.964 1.447,-2.909 4.229,-2.909 2.17,0 3.312,0.728 3.312,1.927 0,1.673 -1.752,1.564 -5.332,2.436 -4.76,1.164 -7.009,2.547 -7.009,5.819 0,3.89 3.124,6.435 8.304,6.435 5.445,0 8.645,-2.437 8.837,-6.58 l -5.256,0 C 7.008,8.763 5.751,9.709 3.542,9.709 1.484,9.709 0.495,9.127 0.495,7.927 c 0,-1.345 1.676,-1.49 5.522,-2.364 4.686,-1.054 6.97,-2.29 6.97,-5.782 0,-4.362 -3.275,-6.726 -9.483,-6.726 -5.638,0 -8.913,2.583 -8.913,6.726 L -5.409,0 0,0 z"
             style="fill:#0c3e6e;fill-opacity:1;fill-rule:nonzero;stroke:none"
             id="path3429" />
        </g>
        <g
           id="g3431"
           transform="translate(770.6377,440.5049)">
          <path
             inkscape:connector-curvature="0"
             d="m 0,0 c -4.456,0 -5.409,1.454 -5.409,5.49 l 0,10.436 -2.665,0 0,3.637 2.665,0 0,5.272 5.371,0 0,-5.272 3.123,0 0,-3.637 -3.123,0 0,-10.69 C -0.038,4.218 0.306,4 1.752,4 l 1.333,0 0,-3.892 C 1.601,0.073 0.571,0 0,0"
             style="fill:#0c3e6e;fill-opacity:1;fill-rule:nonzero;stroke:none"
             id="path3433" />
        </g>
        <g
           id="g3435"
           transform="translate(209.4102,448.3057)">
          <path
             inkscape:connector-curvature="0"
             d="m 0,0 c 0.102,-2.417 0.606,-4.543 1.618,-6.378 l 14.978,0 0,2.32 c -2.429,1.158 -3.035,3.38 -3.035,7.15 l 0,29.179 c 0,9.275 -8.098,14.491 -23.278,14.491 -13.863,0 -21.961,-6.472 -21.961,-16.908 l 0,-0.966 13.461,0 0,0.773 c 0,4.058 3.137,6.377 9.006,6.377 6.174,0 8.805,-1.547 8.805,-5.797 0,-4.929 -3.846,-4.154 -14.976,-5.799 C -27.932,22.607 -33.6,18.164 -33.6,8.114 c 0,-10.531 5.97,-16.328 16.294,-16.328 7.792,0 13.763,2.9 17.306,8.214 m -0.203,18.84 0,-4.831 c 0,-7.245 -4.755,-11.692 -12.549,-11.692 -4.352,0 -7.084,2.415 -7.084,6.184 0,3.961 2.226,5.603 6.779,6.859 2.735,0.775 7.388,1.063 12.854,3.48"
             style="fill:#0c3e6e;fill-opacity:1;fill-rule:nonzero;stroke:none"
             id="path3437" />
        </g>
        <g
           id="g3439"
           transform="translate(279.6426,461.252)">
          <path
             inkscape:connector-curvature="0"
             d="m 0,0 c -1.213,-13.043 -10.625,-21.062 -24.389,-21.062 -15.482,0 -24.996,10.142 -24.996,27.438 0,17.198 9.715,27.439 25.503,27.439 13.966,0 22.77,-7.534 23.782,-19.999 l -14.269,0 c -0.81,5.411 -4.15,8.407 -9.412,8.407 -7.185,0 -10.627,-5.412 -10.627,-16.039 0,-9.954 3.846,-15.364 10.627,-15.364 5.363,0 8.602,3.092 9.613,9.18 L 0,0 z"
             style="fill:#0c3e6e;fill-opacity:1;fill-rule:nonzero;stroke:none"
             id="path3441" />
        </g>
        <g
           id="g3443"
           transform="translate(286.2227,493.2334)">
          <path
             inkscape:connector-curvature="0"
             d="m 0,0 13.662,0 0,-5.7 c 3.945,4.732 8.905,7.148 14.875,7.148 6.781,0 11.438,-2.318 14.98,-7.536 3.743,4.928 8.905,7.536 15.28,7.536 10.728,0 17.609,-6.377 17.609,-16.907 l 0,-35.847 -14.168,0 0,33.043 c 0,5.025 -3.036,7.826 -7.995,7.826 -5.465,0 -9.108,-3.67 -9.108,-9.756 l 0,-31.113 -14.068,0 0,32.948 c 0,5.12 -2.934,7.921 -7.791,7.921 -5.465,0 -9.108,-3.67 -9.108,-9.854 l 0,-31.015 L 0,-51.306 0,0 z"
             style="fill:#0c3e6e;fill-opacity:1;fill-rule:nonzero;stroke:none"
             id="path3445" />
        </g>
        <g
           id="g3447"
           transform="translate(241.125,543.3613)">
          <path
             inkscape:connector-curvature="0"
             d="m 0,0 c 0,4.517 5.135,8.19 11.443,8.19 6.308,0 11.44,-3.673 11.44,-8.19 0,-4.518 -5.132,-8.191 -11.44,-8.191 C 5.135,-8.191 0,-4.518 0,0 m -4.3,0 c 0,-6.78 7.064,-12.298 15.743,-12.298 8.68,0 15.741,5.518 15.741,12.298 0,6.781 -7.061,12.296 -15.741,12.296 C 2.764,12.296 -4.3,6.781 -4.3,0"
             style="fill:#547fc9;fill-opacity:1;fill-rule:nonzero;stroke:none"
             id="path3449" />
        </g>
        <g
           id="g3451"
           transform="translate(209.9844,531.2627)">
          <path
             inkscape:connector-curvature="0"
             d="m 0,0 c 0,4.07 4.151,7.382 9.254,7.382 5.101,0 9.252,-3.312 9.252,-7.382 0,-4.367 -4.795,-6.356 -9.252,-6.356 C 4.798,-6.356 0,-4.367 0,0 m -4.302,0 c 0,-6.062 5.7,-10.464 13.556,-10.464 7.853,0 13.553,4.402 13.553,10.464 0,6.335 -6.08,11.487 -13.553,11.487 C 1.779,11.487 -4.302,6.335 -4.302,0"
             style="fill:#547fc9;fill-opacity:1;fill-rule:nonzero;stroke:none"
             id="path3453" />
        </g>
        <g
           id="g3455"
           transform="translate(182.4766,524.2539)">
          <path
             inkscape:connector-curvature="0"
             d="m 0,0 c 0,2.854 3.619,3.452 6.658,3.452 3.035,0 6.656,-0.598 6.656,-3.452 0,-2.854 -3.621,-3.455 -6.656,-3.455 C 3.619,-3.455 0,-2.854 0,0 m -4.302,0 c 0,-4.735 4.096,-7.561 10.96,-7.561 6.862,0 10.957,2.826 10.957,7.561 0,4.732 -4.095,7.558 -10.957,7.558 -6.864,0 -10.96,-2.826 -10.96,-7.558"
             style="fill:#547fc9;fill-opacity:1;fill-rule:nonzero;stroke:none"
             id="path3457" />
        </g>
        <g
           id="g3459"
           transform="translate(156.8027,518.7471)">
          <path
             inkscape:connector-curvature="0"
             d="M 0,0 C 0,0.884 0,2.727 4.378,2.727 4.935,2.727 9.83,2.649 9.83,0 9.83,-2.65 4.935,-2.727 4.378,-2.727 0,-2.727 0,-0.888 0,0 m -4.3,0 c 0,-2.056 0.845,-6.835 8.678,-6.835 5.924,0 9.753,2.684 9.753,6.835 0,4.149 -3.829,6.832 -9.753,6.832 C -3.455,6.832 -4.3,2.055 -4.3,0"
             style="fill:#547fc9;fill-opacity:1;fill-rule:nonzero;stroke:none"
             id="path3461" />
        </g>
        <g
           id="g3463"
           transform="translate(335.4707,645.8906)">
          <path
             inkscape:connector-curvature="0"
             d="m 0,0 c -49.839,38.021 -72.196,1.78 -72.196,1.78 -2.096,13.119 -9.549,13.786 -9.549,13.786 -7.685,1.557 -18.398,-8.895 -18.398,-8.895 -5.125,18.233 -18.63,18.233 -18.63,18.233 -17.236,-1.335 -23.524,-8.894 -23.524,-8.894 -9.315,-10.005 1.63,-20.901 1.63,-20.901 -24.687,-10.228 -22.124,-19.122 -22.124,-19.122 1.164,-8.671 23.057,-14.897 23.057,-14.897 -15.372,-20.011 -7.881,-28.832 -7.881,-28.832 l -4.892,0 c -5.589,11.563 5.551,26.608 5.551,26.608 -45.412,16.899 -0.464,38.021 -0.464,38.021 -11.179,20.903 12.11,28.906 12.11,28.906 27.714,12.228 37.263,-11.783 37.263,-11.783 21.426,14.674 27.715,-3.559 27.715,-3.559 C -41.221,37.801 0,5.264 0,5.264 L 0,0 z m -27.742,83.349 -142.732,0 c -15.329,0 -27.753,-11.923 -27.753,-26.628 l 0,-97.845 c 0,-14.706 12.424,-26.629 27.753,-26.629 l 142.732,0 c 15.328,0 27.753,11.923 27.753,26.629 l 0,97.845 c 0,14.705 -12.425,26.628 -27.753,26.628"
             style="fill:#547fc9;fill-opacity:1;fill-rule:nonzero;stroke:none"
             id="path3465" />
        </g>
        <g
           id="g3467"
           transform="translate(335.4707,651.1543)">
          <path
             inkscape:connector-curvature="0"
             d="m 0,0 0,-5.264 c 0,0 28.956,-15.932 1.477,-38.91 0,0 12.729,-4.892 6.83,-22.384 0,0 -7.918,-26.385 -41.61,-26.237 0,0 -19.873,-1.186 -46.734,13.341 0,0 -12.887,-12.896 -27.947,-12.599 0,0 -13.508,-1.186 -22.203,15.566 0,0 -12.499,-4.153 -17.428,3.481 l -4.892,0 c 0,0 3.068,-10.746 19.991,-8.375 0,0 8.385,-14.674 24.532,-14.674 0,0 12.731,-1.185 28.568,11.413 0,0 28.103,-14.378 49.374,-12.007 0,0 29.034,-0.591 41.608,26.535 0,0 7.919,14.968 -3.88,26.237 0,0 27.326,21.94 -7.686,43.877"
             style="fill:#547fc9;fill-opacity:1;fill-rule:nonzero;stroke:none"
             id="path3469" />
        </g>
        <g
           id="g3471"
           transform="translate(377.4004,769.4229)">
          <path
             inkscape:connector-curvature="0"
             d="m 0,0 43.004,-20.528 1.922,3.674 L 1.922,3.673 0,0 z"
             style="fill:#fab41d;fill-opacity:1;fill-rule:nonzero;stroke:none"
             id="path3473" />
        </g>
        <g
           id="g3475"
           transform="translate(396.2832,802.5723)">
          <path
             inkscape:connector-curvature="0"
             d="m 0,0 38.706,-32.848 2.857,3.07 L 2.857,3.068 0,0 z"
             style="fill:#fab41d;fill-opacity:1;fill-rule:nonzero;stroke:none"
             id="path3477" />
        </g>
        <g
           id="g3479"
           transform="translate(433.3691,828.9551)">
          <path
             inkscape:connector-curvature="0"
             d="m 0,0 20.426,-45.165 3.949,1.629 L 3.949,1.628 0,0 z"
             style="fill:#fab41d;fill-opacity:1;fill-rule:nonzero;stroke:none"
             id="path3481" />
        </g>
        <path
           inkscape:connector-curvature="0"
           d="m 477.271,788.71 4.304,0 0,51.323 -4.304,0 0,-51.323 z"
           style="fill:#fab41d;fill-opacity:1;fill-rule:nonzero;stroke:none"
           id="path3483" />
        <g
           id="g3485"
           transform="translate(503.2266,784.3252)">
          <path
             inkscape:connector-curvature="0"
             d="M 0,0 4.004,-1.496 23.357,45.723 19.351,47.217 0,0 z"
             style="fill:#fab41d;fill-opacity:1;fill-rule:nonzero;stroke:none"
             id="path3487" />
        </g>
        <g
           id="g3489"
           transform="translate(524.2002,772.7715)">
          <path
             inkscape:connector-curvature="0"
             d="M 0,0 2.909,-3.023 42.689,31.876 39.782,34.899 0,0 z"
             style="fill:#fab41d;fill-opacity:1;fill-rule:nonzero;stroke:none"
             id="path3491" />
        </g>
        <g
           id="g3493"
           transform="translate(538.6709,753.5918)">
          <path
             inkscape:connector-curvature="0"
             d="M 0,0 1.924,-3.672 47.079,17.884 45.155,21.557 0,0 z"
             style="fill:#fab41d;fill-opacity:1;fill-rule:nonzero;stroke:none"
             id="path3495" />
        </g>
        <g
           id="g3497"
           transform="translate(460.3008,679.6904)">
          <path
             inkscape:connector-curvature="0"
             d="m 0,0 3.728,-28.239 15.137,0 0,33.574 8.152,6.447 -25.386,6.672 25.386,10.004 -27.482,6.672 15.824,13.96 -50.854,0 C -35.489,48.609 -34.932,12.587 0,0"
             style="fill:#fab41d;fill-opacity:1;fill-rule:nonzero;stroke:none"
             id="path3499" />
        </g>
        <g
           id="g3501"
           transform="translate(501.291,709.2607)">
          <path
             inkscape:connector-curvature="0"
             d="m 0,0 -25.852,-10.228 21.426,-5.781 -13.04,-10.227 0,-31.574 13.972,0 4.193,28.46 c 35.247,14.17 34.042,48.572 34.031,48.87 l -54.111,0 L -32.372,7.561 0,0 z"
             style="fill:#fab41d;fill-opacity:1;fill-rule:nonzero;stroke:none"
             id="path3503" />
        </g>
        <path
           inkscape:connector-curvature="0"
           d="m 501.873,627.549 -40.756,0 0,4.001 40.756,0 0,-4.001 z m 0,-9.339 -40.756,0 0,4.224 40.756,0 0,-4.224 z m -13.857,-9.229 -13.973,0 0,4.226 13.973,0 0,-4.226 z M 461,641 l 40.756,0 0,-4.001 -40.756,0 0,4.001 z m 89.53,87.78 -9.167,0 c -0.701,-41.352 -35.18,-52.427 -35.18,-52.427 l -4.427,-29.349 -41.455,0 -4.192,29.573 c -36.338,12.889 -36.85,51.723 -36.855,52.203 l -11.454,0 c -15.326,0 -27.753,-11.925 -27.753,-26.629 l 0,-97.843 c 0,-14.705 12.427,-26.629 27.753,-26.629 l 142.73,0 c 15.329,0 27.757,11.924 27.757,26.629 l 0,97.843 c 0,14.704 -12.428,26.629 -27.757,26.629"
           style="fill:#fab41d;fill-opacity:1;fill-rule:nonzero;stroke:none"
           id="path3505" />
        <g
           id="g3507"
           transform="translate(424.8057,728.7803)">
          <path
             inkscape:connector-curvature="0"
             d="M 0,0 0,0.011"
             style="fill:#fab41d;fill-opacity:1;fill-rule:nonzero;stroke:none"
             id="path3509" />
        </g>
        <g
           id="g3511"
           transform="translate(419.2539,728.791)">
          <path
             inkscape:connector-curvature="0"
             d="M 0,0 0,-0.011"
             style="fill:#fab41d;fill-opacity:1;fill-rule:nonzero;stroke:none"
             id="path3513" />
        </g>
        <path
           inkscape:connector-curvature="0"
           d="m 541.363,728.787 -5.342,0 0,-0.007 5.342,0 0,0.007 z"
           style="fill:#fab41d;fill-opacity:1;fill-rule:nonzero;stroke:none"
           id="path3515" />
        <g
           id="g3517"
           transform="translate(728.1162,783.4512)">
          <path
             inkscape:connector-curvature="0"
             d="m 0,0 -2.275,-0.747 0.065,-0.126 -2.481,-0.982 3.854,-1.647 C 0.711,-6.456 7.037,-18.536 9.09,-22.457 l -34.115,0 c 1.932,4.304 8.39,18.695 8.39,18.695 l 0.741,1.653 -2.419,1.376 c -27.098,15.356 -43.121,36.822 -47.63,63.797 -0.783,4.686 -1.17,9.207 -1.17,13.538 0,20.077 8.335,36.075 24.168,45.829 20.754,12.786 51.262,12.34 72.542,-1.059 15.6,-9.822 23.827,-24.744 23.827,-42.74 0,-3.692 -0.346,-7.511 -1.044,-11.443 C 44.092,20.598 9.611,3.9 1.679,0.642 0.913,0.356 0.34,0.135 0,0 m 39.348,1.517 c 1.055,-0.713 2.438,-2.047 2.255,-5.39 -0.127,-2.281 -0.946,-3.832 -2.502,-4.74 C 32.6,-12.405 15.72,-5.972 6.393,-2.076 16.352,1.312 33.15,5.696 39.348,1.517 M -59.327,-8.781 c -1.207,0.829 -2.206,2.041 -0.458,4.753 5.606,8.696 24.531,3.306 34.197,-0.6 -8.901,-6.93 -27.944,-8.129 -33.739,-4.153 M 56.618,66.502 c 0.747,4.2 1.115,8.281 1.115,12.227 0,19.363 -8.897,35.448 -25.769,46.072 -22.637,14.252 -55.121,14.706 -77.239,1.08 -17.127,-10.551 -26.148,-27.727 -26.148,-49.202 0,-4.568 0.409,-9.327 1.235,-14.261 4.218,-25.252 18.05,-45.855 41.128,-61.377 -10.397,3.499 -27.766,7.355 -34.388,-2.918 -2.593,-4.024 -2.006,-7.755 1.611,-10.237 7.627,-5.235 28.306,-3.442 38.604,4.075 -3.024,-6.736 -8.313,-18.523 -8.313,-18.523 l 47.593,0 c 0,0 -7.21,13.767 -10.71,20.452 14.028,-5.776 28.523,-10.372 36.007,-6.006 2.817,1.643 4.348,4.345 4.552,8.028 0.272,4.95 -2.06,7.604 -4.067,8.958 -5.034,3.396 -14.005,2.749 -22.386,0.998 1.931,1.38 3.934,2.921 5.978,4.658 11.417,9.701 26.096,27.287 31.197,55.976"
             style="fill:#b1211c;fill-opacity:1;fill-rule:nonzero;stroke:none"
             id="path3519" />
        </g>
        <g
           id="g3521"
           transform="translate(793.6699,728.7803)">
          <path
             inkscape:connector-curvature="0"
             d="m 0,0 -142.73,0 c -15.328,0 -27.753,-11.925 -27.753,-26.629 l 0,-97.844 c 0,-14.705 12.425,-26.629 27.753,-26.629 l 3.862,0 c 64.728,20.42 115.324,53.767 117.809,88.447 2.484,34.687 -44.962,62.647 -44.962,62.647 l 7.888,0 c 43.475,-29.941 55.395,-62.35 28.69,-95.554 -0.148,-0.184 -0.298,-0.37 -0.449,-0.551 -26.731,-32.552 -88.532,-54.512 -89.881,-54.989 l 119.773,0 c 15.328,0 27.755,11.924 27.755,26.629 l 0,97.844 C 27.755,-11.925 15.328,0 0,0"
             style="fill:#b1211c;fill-opacity:1;fill-rule:nonzero;stroke:none"
             id="path3523" />
        </g>
        <g
           id="g3525"
           transform="translate(735.5215,728.7871)">
          <path
             inkscape:connector-curvature="0"
             d="m 0,0 c 0,0 -16.647,8.503 -19.441,28.07 l -4.658,0 c 0,0 0.685,-17.398 16.211,-28.07 L 0,0 z"
             style="fill:#b1211c;fill-opacity:1;fill-rule:nonzero;stroke:none"
             id="path3527" />
        </g>
        <text
           transform="matrix(0.99999992,3.803754e-4,4.0137772e-4,-0.95472591,675.4216,845.7728)"
           id="text3529">
          <tspan
             style="font-size:42.85240173px;font-variant:normal;font-weight:bold;font-stretch:normal;writing-mode:lr-tb;fill:#0c3e6e;fill-opacity:1;fill-rule:nonzero;stroke:none;font-family:Helvetica;-inkscape-font-specification:Helvetica-Bold"
             x="0 23.825937 47.651875 71.477806"
             y="0"
             sodipodi:role="line"
             id="tspan3531">2014</tspan>
        </text>
      </g>
    </g>
  </g>
</svg>
