<?xml version="1.0" encoding="utf-8"?>
<!-- Generator: Adobe Illustrator 19.1.0, SVG Export Plug-In . SVG Version: 6.00 Build 0)  -->
<svg version="1.1" id="Layer_1" xmlns="http://www.w3.org/2000/svg" xmlns:xlink="http://www.w3.org/1999/xlink" x="0px" y="0px"
	 viewBox="0 0 960 560" style="enable-background:new 0 0 960 560;" xml:space="preserve">
<style type="text/css">
	.st0{fill:none;}
	.st1{fill:url(#SVGID_1_);}
	.st2{fill:#043586;stroke:#000000;stroke-width:5;stroke-miterlimit:10;}
	.st3{fill:#FB2127;stroke:#000000;stroke-width:5;}
</style>
<pattern  width="26.1" height="26.1" patternUnits="userSpaceOnUse" id="New_Pattern_7" viewBox="4.5 -30.6 26.1 26.1" style="overflow:visible;">
	<g>
		<polygon class="st0" points="4.5,-30.6 30.6,-30.6 30.6,-4.5 4.5,-4.5 		"/>
		<path d="M28.6-4.5c0,2.5-2,4.5-4.5,4.5s-4.5-2-4.5-4.5s2-4.5,4.5-4.5S28.6-7,28.6-4.5z"/>
		<path d="M15.6-4.5C15.6-2,13.5,0,11,0S6.5-2,6.5-4.5S8.5-9,11-9S15.6-7,15.6-4.5z"/>
		<path d="M35.1-17.6c0,2.5-2,4.5-4.5,4.5s-4.5-2-4.5-4.5s2-4.5,4.5-4.5S35.1-20.1,35.1-17.6z"/>
		<path d="M22.1-17.6c0,2.5-2,4.5-4.5,4.5s-4.5-2-4.5-4.5s2-4.5,4.5-4.5S22.1-20.1,22.1-17.6z"/>
		<path d="M9-17.6C9-15.1,7-13,4.5-13S0-15.1,0-17.6s2-4.5,4.5-4.5S9-20.1,9-17.6z"/>
		<path d="M28.6-30.6c0,2.5-2,4.5-4.5,4.5s-4.5-2-4.5-4.5s2-4.5,4.5-4.5S28.6-33.1,28.6-30.6z"/>
		<path d="M15.6-30.6c0,2.5-2,4.5-4.5,4.5s-4.5-2-4.5-4.5s2-4.5,4.5-4.5S15.6-33.1,15.6-30.6z"/>
	</g>
</pattern>
<pattern  id="SVGID_1_" xlink:href="#New_Pattern_7" patternTransform="matrix(1 0 0 1 1 13.0078)">
</pattern>
<polygon class="st1" points="112.7,104.7 268.8,111.6 323.4,2.6 426.3,88.3 522.9,10.7 571.8,137.8 679.9,134.3 656.7,190.1 
	868.5,198.8 810.6,307.1 838.2,373.3 749.3,395.5 734.4,444.9 623.3,405.4 581.3,523.9 549.2,432.6 435.9,496.1 432.1,429.9 
	269.1,539.7 257.8,411.9 62.5,512.6 162.9,359.6 95.2,264.1 159.8,211.5 "/>
<polygon class="st2" points="67.6,185.6 224.3,153.2 247.9,44.8 373.8,94.2 447.9,2.8 531.9,101.6 638.1,72 630.7,126.3 843.1,81.8 
	815.9,190.5 885.1,242.4 786.3,301.7 786.3,341.2 680.1,378.2 657.9,479.5 586.2,390.6 497.3,447.4 475.1,390.6 344.2,526.4 
	297.3,417.7 131.8,553.6 188.6,395.5 94.7,328.8 144.1,267.1 "/>
<g>
	<path d="M284.3,217.1c-12.6,4.7-27.6,10.5-45,17.2L195,251.4c0-18.5-5.1-27.8-15.4-27.8c-14.6,0-29.2,8.3-43.8,24.9
		c-10.3,12.2-14.6,24.1-13,35.5c1.2,7.5,8.7,11.2,22.5,11.2c7.5,0,17.4-1.2,29.6-3.6c17-3.6,32-5.3,45-5.3c33.1,0,52.5,11.4,58,34.3
		c1.6,7.1,2.4,14.6,2.4,22.5c0,25.2-9.5,52.5-28.4,81.7c-24.5,38.3-58.8,70.4-103,96.5c-23.3,13.8-46.2,20.7-68.6,20.7
		c-20.5,0-40.6-5.7-60.4-17.2c9.9-23.7,25.6-58.6,47.3-104.7c12.6,8.7,26,13,40.2,13c6.3,0,12.8-1,19.5-3
		c12.2-3.2,23.9-7.7,34.9-13.6c15.8-8.7,23.7-17.5,23.7-26.6c0-9.9-8.1-14.8-24.3-14.8c-11,0-27.1,2.3-48.2,6.8
		c-21.1,4.5-37.2,6.8-48.2,6.8c-14.6,0-25.8-2.8-33.7-8.3c-15.4-10.3-21.7-26.2-18.9-47.9c5.1-43.8,33.3-94.5,84.6-152.1
		c52.5-59.2,97.6-90.1,135.5-92.9c36.7-2.4,55,25.2,55,82.8C287.3,184.2,286.3,199.7,284.3,217.1z"/>
	<path d="M285.8,229c15.9-6.5,29.5-10.2,40.8-11c12.7-0.9,22.6,1.7,29.8,7.9c9.9,8.8,15.3,20,16.3,33.6c0.4,4.9,0.1,10.2-0.8,15.8
		c-3.7,25.3-15.2,47.9-34.3,68c-19.2,20.1-41.2,32.6-66.1,37.7c0.1-3.1,0.9-12.5,2.5-28.1l9.9-98.7C285.1,239.3,285.8,231,285.8,229
		z M318.6,261.8c-4.5,28.2-7.6,54.7-9.2,79.7c7.9-8.7,14.8-18.5,20.7-29.6c7.3-13.6,10.6-25.1,9.9-34.4
		C339.1,265.5,332,260.2,318.6,261.8z"/>
	<path d="M381.5,222.8l45.1-15c-2.1,16.4-3.4,29.3-3.9,38.6c13.7-15.8,26.1-30.9,37.3-45.2l36.8,17.3l-46.3,54.4l44.8,105.4
		l-44.8,32.6l-32.9-98.9c-1.6,29.7-2.1,59-1.5,87.8l-40.8,17.7L381.5,222.8z"/>
	<path d="M477.8,323.3c27.1-68.6,47.7-138.4,62-209.4l71.9-11.7l-10.4,110.4l28.2-102l69.1-12c-8.2,65.4-12.3,124.4-12.3,176.9
		c0,10.4,0,20.8,0,31l-61.4,10.8l10.8-131.8l-39.4,145.9l-33.1,4.5l19.9-185.3l-42.7,164.3L477.8,323.3z"/>
	<path d="M692.7,293.8c7-41.8,11.5-81.6,13.3-119.4l45.3-17.7c1.2,32.3,6.5,69.7,16,112.2l-31.1,14.4l-1.7-19.8l-9.9,4.2l-0.4,14.3
		L692.7,293.8z M732.5,242.4l-5.1-59.8l-0.2,0l-2,62.8L732.5,242.4z"/>
	<path d="M790.9,132.6l38.6-7.8c-0.3,4.6-0.4,11.2-0.4,19.6c0,20.2,0.7,38,2,53.3c0.7,8.8,1.9,15.8,3.3,21.2l15.2-87l38.4-7.1
		c-15.5,59.6-25.6,111.3-30.3,155l-35.2,9.8c-0.1-0.3-1.1-2.9-2.9-7.8l-11.6-33c-1.9-5.4-3-8.8-3.3-10.3
		c-3.1,17.5-5.6,34.6-7.4,51.1l-35.7,10.7L790.9,132.6z"/>
	<path d="M881.7,283.5c5.1-1.4,9.7-1.2,14,0.5c5,1.8,7.8,5.2,8.5,10.2c0.9,6.8-2,13.4-8.5,20c-5.1,5.1-10.8,8.6-17.4,10.3
		c-5.2,1.4-9.9,1.4-13.9-0.1c-4.9-1.8-7.6-5.2-8.2-10.2c-0.9-6.8,1.8-13.5,8-20.1C869.1,288.8,875,285.3,881.7,283.5z M889.4,142.7
		l47.2,1.9c-9.5,23.5-16.3,41.8-20.5,55c-5.7,18-10.3,37.2-13.9,57.7l-30.9,2.5L889.4,142.7z"/>
</g>
<g>
	<path class="st3" d="M392.9,240.7c-1-13.6-6.4-24.8-16.3-33.6c-7.1-6.2-17-8.8-29.8-7.9c-11.3,0.8-24.9,4.5-40.8,11
		c0,2-0.7,10.4-2,25.1l-6.5,64.6c-6.2-21.5-25.3-32.3-57.4-32.3c-13,0-28,1.8-45,5.3c-12.2,2.4-22.1,3.6-29.6,3.6
		c-13.8,0-21.3-3.7-22.5-11.2c-1.6-11.4,2.8-23.3,13-35.5c14.6-16.6,29.2-24.9,43.8-24.9c10.3,0,15.4,9.3,15.4,27.8l44.4-17.2
		c17.4-6.7,32.3-12.4,45-17.2c2-17.4,3-32.9,3-46.7c0-57.6-18.3-85.2-55-82.8c-37.9,2.8-83,33.7-135.5,92.9
		C65.8,219.3,37.6,270,32.5,313.8c-2.8,21.7,3.6,37.7,18.9,47.9c7.9,5.5,19.1,8.3,33.7,8.3c11,0,27.1-2.3,48.2-6.8
		c21.1-4.5,37.2-6.8,48.2-6.8c16.2,0,24.3,4.9,24.3,14.8c0,9.1-7.9,18-23.7,26.6c-11,5.9-22.7,10.5-34.9,13.6c-6.7,2-13.2,3-19.5,3
		c-14.2,0-27.6-4.3-40.2-13C65.8,447.5,50,482.4,40.2,506.1c19.7,11.4,39.8,17.2,60.4,17.2c22.5,0,45.4-6.9,68.6-20.7
		c44.2-26,78.5-58.2,103-96.5c10-15.4,17.3-30.2,22-44.4c23.9-5.4,45.2-17.7,63.7-37.1c19.2-20.1,30.6-42.7,34.3-68
		C393,250.9,393.3,245.6,392.9,240.7z M350.5,293.2c-5.9,11.1-12.8,21-20.7,29.6c1.6-25,4.7-51.6,9.2-79.7
		c13.4-1.5,20.5,3.7,21.4,15.7C361,268.1,357.7,279.6,350.5,293.2z"/>
	<path class="st3" d="M401.8,204.1l45.1-15c-2.1,16.4-3.4,29.3-3.9,38.6c13.7-15.8,26.1-30.9,37.3-45.2l36.8,17.3l-46.3,54.4
		l44.8,105.4l-44.8,32.6l-32.9-98.9c-1.6,29.7-2.1,59-1.5,87.8l-40.8,17.7L401.8,204.1z"/>
	<path class="st3" d="M498.2,304.6c27.1-68.6,47.7-138.4,62-209.4l71.9-11.7l-10.4,110.4l28.2-102l69.1-12
		c-8.2,65.4-12.3,124.4-12.3,176.9c0,10.4,0,20.8,0,31l-61.4,10.8l10.8-131.8l-39.4,145.9l-33.1,4.5l19.9-185.3l-42.7,164.3
		L498.2,304.6z"/>
	<path class="st3" d="M713,275.1c7-41.8,11.5-81.6,13.3-119.4l45.3-17.7c1.2,32.3,6.5,69.7,16,112.2l-31.1,14.4l-1.7-19.8l-9.9,4.2
		l-0.4,14.3L713,275.1z M752.9,223.7l-5.1-59.8l-0.2,0l-2,62.8L752.9,223.7z"/>
	<path class="st3" d="M811.3,113.9l38.6-7.8c-0.3,4.6-0.4,11.2-0.4,19.6c0,20.2,0.7,38,2,53.3c0.7,8.8,1.9,15.8,3.3,21.2l15.2-87
		l38.4-7.1c-15.5,59.6-25.6,111.3-30.3,155l-35.2,9.8c-0.1-0.3-1.1-2.9-2.9-7.8l-11.6-33c-1.9-5.4-3-8.8-3.3-10.3
		c-3.1,17.5-5.6,34.6-7.4,51.1l-35.7,10.7L811.3,113.9z"/>
	<path class="st3" d="M902,264.8c5.1-1.4,9.7-1.2,14,0.5c5,1.8,7.8,5.2,8.5,10.2c0.9,6.8-2,13.4-8.5,20c-5.1,5.1-10.8,8.6-17.4,10.3
		c-5.2,1.4-9.9,1.4-13.9-0.1c-4.9-1.8-7.6-5.2-8.2-10.2c-0.9-6.8,1.8-13.5,8-20.1C889.5,270.1,895.3,266.6,902,264.8z M909.8,124
		L957,126c-9.5,23.5-16.3,41.8-20.5,55c-5.7,18-10.3,37.2-13.9,57.7l-30.9,2.5L909.8,124z"/>
</g>
</svg>
