<?xml version="1.0" encoding="UTF-8" standalone="no"?>
<!-- Created with Inkscape (http://www.inkscape.org/) -->

<svg
   xmlns:dc="http://purl.org/dc/elements/1.1/"
   xmlns:cc="http://creativecommons.org/ns#"
   xmlns:rdf="http://www.w3.org/1999/02/22-rdf-syntax-ns#"
   xmlns:svg="http://www.w3.org/2000/svg"
   xmlns="http://www.w3.org/2000/svg"
   xmlns:sodipodi="http://sodipodi.sourceforge.net/DTD/sodipodi-0.dtd"
   xmlns:inkscape="http://www.inkscape.org/namespaces/inkscape"
   width="372"
   height="372"
   id="svg2"
   version="1.1"
   inkscape:version="0.48.5 r10040"
   sodipodi:docname="superto.svg">
  <defs
     id="defs4">
    <style
       id="style2989"
       type="text/css">
    .fil0 {fill:none}
    .fil1 {fill:#ffffff}
   <!--D2D3D5 Cor cinza anterior-->
</style>
    <sodipodi:namedview
       inkscape:current-layer="svg2"
       inkscape:window-maximized="1"
       inkscape:window-y="-4"
       inkscape:window-x="-4"
       inkscape:cy="158.20973"
       inkscape:cx="242.70017"
       inkscape:zoom="0.84100809"
       showgrid="false"
       id="namedview16"
       inkscape:window-height="881"
       inkscape:window-width="1600"
       inkscape:pageshadow="2"
       inkscape:pageopacity="0"
       guidetolerance="10"
       gridtolerance="10"
       objecttolerance="10"
       borderopacity="1"
       bordercolor="#666666"
       pagecolor="#ffffff" />
    <marker
       orient="auto"
       markerHeight="3"
       markerWidth="4"
       markerUnits="strokeWidth"
       refY="5"
       refX="10"
       viewBox="0 0 10 10"
       id="ArrowStart">
      <path
         inkscape:connector-curvature="0"
         id="path3061"
         d="M 10,0 0,5 10,10 z" />
    </marker>
    <marker
       orient="auto"
       markerHeight="3"
       markerWidth="4"
       markerUnits="strokeWidth"
       refY="5"
       refX="0"
       viewBox="0 0 10 10"
       id="ArrowEnd">
      <path
         inkscape:connector-curvature="0"
         id="path3058"
         d="M 0,0 10,5 0,10 z" />
    </marker>
  </defs>
  <sodipodi:namedview
     id="base"
     pagecolor="#ffffff"
     bordercolor="#666666"
     borderopacity="1.0"
     inkscape:pageopacity="0.0"
     inkscape:pageshadow="2"
     inkscape:zoom="0.98994949"
     inkscape:cx="7.5587251"
     inkscape:cy="241.66136"
     inkscape:document-units="px"
     inkscape:current-layer="layer1"
     showgrid="false"
     inkscape:window-width="1920"
     inkscape:window-height="1020"
     inkscape:window-x="0"
     inkscape:window-y="27"
     inkscape:window-maximized="1" />
  <metadata
     id="metadata7">
    <rdf:RDF>
      <cc:Work
         rdf:about="">
        <dc:format>image/svg+xml</dc:format>
        <dc:type
           rdf:resource="http://purl.org/dc/dcmitype/StillImage" />
        <dc:title></dc:title>
      </cc:Work>
    </rdf:RDF>
  </metadata>
  <g
     inkscape:label="Camada 1"
     inkscape:groupmode="layer"
     id="layer1"
     transform="translate(0,-680.36218)">
    <g
       id="g3076">
      <rect
         y="681.23694"
         x="0.87477112"
         height="370.25046"
         width="370.25046"
         id="rect3023"
         style="fill:#ffffff;fill-opacity:1;stroke:#ffffff;stroke-width:1.74954784;stroke-opacity:1" />
      <path
         style="fill:#666666;fill-rule:evenodd"
         id="path3133-7"
         class="fil1"
         d="m 68.150165,951.86436 0.550472,-0.93904 -0.06479,-1.19809 0.744759,-0.90666 0.29143,-0.71238 -0.03235,-0.61524 0.356186,-0.64762 0.09714,-0.22666 0.809524,-0.38857 0.420951,-0.42095 0.550472,-1.48952 0.194286,-1.19809 0,-0.0324 -0.323807,-0.61524 0,-0.0323 0.09714,-0.61523 -0.194287,-1.16571 0.09714,-0.61524 0.161899,-0.55047 0.06479,-0.0971 0.679994,-0.22666 0.291429,-0.90666 0.777146,-0.51809 0.129522,-0.0648 0.03235,-0.0971 0.323808,-0.67999 -0.09714,-1.00381 -0.259043,-0.45333 0,-1.1981 -0.323808,-0.74476 0.226665,-0.61523 -0.615237,-1.32761 0.518094,-0.71238 1.003801,-0.71237 0.03235,-0.71239 -0.226664,-0.42095 -0.680003,-0.3238 -0.161899,-1.00381 0.226665,-0.32381 0.259042,-0.38858 -0.03235,-0.45332 0.226665,-0.22667 0.550472,-0.0648 0.12953,-0.0648 0.129522,-0.58286 0.906658,-1.36 -0.323808,-0.74476 0.03235,-0.58285 -0.323808,-0.48571 -0.09714,-0.12953 -0.09714,-0.71238 -0.71238,-0.4857 -0.03235,-0.5181 0,0 0.971423,-0.68 0.550472,-0.93904 0.356186,-0.38857 0.420951,-0.0971 0.518094,0 0.259052,-0.16191 0.259042,-1.0038 0.550472,-0.71238 -0.161899,-0.87428 0.356186,-0.61524 -0.06479,-0.8419 0.712372,-0.3562 0.518094,-0.0323 0.29143,-0.22666 -0.226665,-0.87428 0.679994,-2.55809 1.198096,-0.55048 0.323808,-0.64761 0.744759,-0.45333 0.291429,-0.32381 -0.226664,-0.71238 0.03235,-0.32381 0.841902,-1.87809 0.323808,-1.19808 0.71238,-1.26286 0.03235,-0.0323 -0.323808,-1.87808 -0.356195,-0.16191 -0.09713,-0.25904 0.291421,-1.1981 0.680002,-0.93904 0.841902,-0.67999 0.226665,-0.71238 0.71238,-0.68 1.262853,-0.61523 0.453329,-0.42096 0.388573,-0.77714 0.161899,-1.03618 0.615238,-0.80952 -0.03235,-0.64762 0.550472,-0.80952 0.129521,-1.06857 0.971423,-1.5219 0.841902,-0.71238 -0.09714,-0.3238 0.12953,-0.19429 0.06479,0 0.259052,-0.25905 0.161899,-0.84189 0.485716,-0.90667 0.259043,-1.29523 1.683803,-1.84571 0.09714,-0.55048 0.356195,-0.1619 0.03235,-0.84191 0.453329,-0.80951 0.06479,-1.10095 0.582851,-0.32381 0.291429,-0.5181 0.615238,-0.51809 0,-0.87428 0.194286,-0.38857 0.647616,-0.71237 -0.226665,-0.77715 -0.647615,-0.71237 0,-0.16191 0.29142,-0.19429 -0.194277,-0.42095 0,-0.58285 0.712371,-1.74857 1.16571,-1.23047 0.323808,-0.8419 0.259049,-0.29142 -0.161906,-1.1981 0.03235,-0.12952 0,-0.19429 0.226666,-0.87428 0.12952,-0.22666 0.48572,-0.71238 0.87428,-0.32381 0.67999,-0.5181 0.51809,-1.39237 1.29524,-0.12952 1.06857,-1.1981 1.6838,-1.10094 0.12952,-0.32381 -0.22666,-0.48572 0.61524,-0.38857 1.19808,-1.61904 0.5181,-0.97142 0.45333,-0.8419 0.0323,-0.48572 0.35619,-0.77713 2.26666,-1.94285 0.58285,-0.71238 0.48572,-0.93905 0.74476,-0.68 0.45333,-0.64761 0.74476,-0.25905 2.10475,-1.71618 2.00761,-0.38857 1.32762,-0.0323 0.93904,-0.25905 0.35619,-0.68 0.93904,-0.97143 0.97143,-1.55427 2.5257,-2.78476 0.35619,-0.71237 0.48572,-1.03619 0.45332,-0.51809 0.48572,-0.90667 1.94285,-1.29523 0.42095,-0.8419 0.0323,-0.48572 0.38857,-2.29903 0.35619,-0.61524 0.29143,-0.77714 1.26285,-1.48952 0.22666,-0.1619 1.45714,-0.48572 0.8419,-0.45333 0.55048,-0.48571 0.61523,-1.45714 0.22667,-0.80952 0.55047,-2.10475 0.77715,-1.55428 0.67999,-1.06857 0.29143,-0.48571 0.29143,-0.74476 0.25904,-1.42476 -0.1619,-0.71238 0.25904,-0.71238 0.0971,-0.71238 0.22666,-0.3238 0.0324,-0.0324 0.0648,-0.0971 0.55047,-0.29143 0.0971,-0.12952 0.16191,-0.45333 0.1619,-1.35999 -0.12952,-0.48572 -0.29143,-1.29523 0.58286,-0.87428 0.22666,-1.13333 0.0648,-1.06857 -0.22666,-1.84571 0.0324,-0.22667 0.0971,-0.67999 0.35619,-0.45333 0.29143,-0.45334 -0.0323,-0.3238 -0.48572,-0.42095 -0.64761,-0.19429 -1.32761,-0.48571 -0.8419,-0.51809 -0.87429,-0.8419 -1.13332,-0.71238 -1.52191,-1.10095 -1.23046,-0.61524 -0.45334,-0.48571 -0.38857,-0.5181 -0.90666,-1.6838 -0.1619,-0.25904 -0.80953,-1.68381 -0.0971,-0.93904 0.25904,-1.91047 0.5181,-0.48572 0.90666,-0.90665 1.26286,-1.1981 1.65142,-1.71618 0.71237,-0.61524 0.19429,-0.22666 0.55047,-0.71238 1.06857,-0.93905 0.71238,-1.13332 0.42095,-1.10096 1.00381,-1.42475 0.0971,-0.80952 -0.12953,-0.8419 -0.35618,-2.55809 0.12952,-2.20189 -0.0323,-0.32381 -0.0648,-1.06857 -0.0971,-0.58286 -0.64761,-1.74856 -0.25905,-0.29143 -0.0971,-0.58286 0.12952,-0.93904 0.22667,-0.51809 1.19809,-0.71238 0.22667,-0.38857 0.35618,-0.22666 1.00381,-0.16191 1.65142,-0.74476 1.42476,-1.03618 0.0648,-0.0648 1.84571,-1.13333 0.48571,-0.55048 0.68,-0.71238 2.3638,-0.19428 1.19809,-0.45333 0.16191,-0.0648 0.51809,-0.16189 0.68,-0.22667 1.81332,-0.19429 1.1981,-0.1619 0.45333,0.0648 0.67999,0.0971 0.51809,-0.0648 1.68381,-0.64762 0.0971,-0.0648 0.68,-0.55048 1.13333,-1.16571 2.33142,-0.51809 1.03618,-0.71237 0.45333,-0.48572 0.16191,-0.42095 -0.0324,-1.13333 -0.58286,-1.68381 0.0324,-0.51809 0.22668,-0.71237 0.55047,-0.64762 0.0324,-0.61524 0.67999,-0.8419 0.25905,-0.38857 0.64762,-0.97142 2.23427,-1.58666 0.61524,-0.25906 0.22667,-0.12952 0.74475,-0.64761 0.32381,-0.64762 0.74476,-0.74476 0.32381,-0.1619 2.46095,0 1.10094,0.22666 1.16571,0.71238 0.77714,0.22667 0.0648,-0.1619 0.25905,-1.16571 -0.25905,-0.68001 -0.22666,-0.22666 -0.71237,-0.38857 -0.55049,-0.35619 -0.22666,-0.29143 0,-0.35618 0.22666,-0.32381 -0.29142,-0.5181 -0.29143,-1.39237 -0.25905,-0.71238 -0.22666,-0.90667 0.22666,-0.64761 0.58286,-0.58285 0.55047,-0.38858 0.77714,-0.25904 1.1981,0.0324 1.45714,-0.42095 1.35999,-0.74476 0.64762,-0.58286 0.35618,-0.67999 0.0648,-0.25905 -0.12953,-0.45333 -0.74475,-0.93905 -1.42477,-0.35618 -0.22666,-0.25905 -0.0648,-0.42095 0.19428,-0.68 0.61524,-0.74476 0.67999,-0.42095 0.71239,-0.25905 1.87809,-0.32381 0.93904,-0.58285 0.0648,-0.80952 -0.0648,-0.25904 -0.0324,-0.0648 -0.42095,-0.61523 -0.19429,-0.22667 -1.29523,-1.19809 -0.55048,-0.68 -0.19428,-0.25904 -0.12953,-0.3562 -0.35618,-1.94284 0.0324,-0.16191 0.22666,-1.03618 0.25905,-0.61524 0.35619,-0.42095 0.38857,-0.22666 2.46094,0.12952 0.87428,-0.22666 0.32381,-0.16191 0.29143,-0.12952 0.64762,-0.29143 0.0971,-0.0323 0.58286,-0.84191 0.97142,-1.61904 0.19429,-0.38857 0.1619,-0.77713 -0.25905,-0.64763 -1.6838,-1.06857 -0.0971,-0.0648 -0.61524,-0.16191 -0.22666,-0.29143 -0.80953,-0.35618 -0.74476,-0.12952 -0.19428,0.0323 -1.36,-0.1619 -0.77714,-0.29143 -0.58285,-0.42095 -0.45333,-0.25905 -0.80952,-0.87428 -0.32382,-0.29143 -0.12952,0.12952 0.0323,-0.38857 -0.64761,-0.77714 -0.0648,-0.71237 -0.19429,-0.48572 -0.0971,-0.19429 -0.45333,-0.4857 -0.45333,-0.25905 -0.0324,-0.0324 -0.25905,-0.48571 -0.5181,-0.32381 -0.38856,0 -0.3562,0.3562 -0.8419,-0.0648 -1.03618,0.22667 -0.25905,0.0323 -0.25904,0.0648 -0.5181,0.0648 -0.55047,0.25905 -0.71238,0.29143 -0.90667,0.1619 -2.16951,-0.5181 -1.58666,0.22667 -0.58286,-0.0648 -1.19808,-0.38857 -0.71238,-0.80952 -0.32381,-0.19428 -1.39238,-0.22667 -1.6838,-0.0648 -0.16191,-0.16191 -0.51809,0.0648 -0.12952,-0.0324 -0.55048,-0.22666 -0.25905,-0.25905 -0.1619,-0.25904 -0.0324,-0.29143 0.68,0.1619 0.48571,-0.19428 0.77714,0.19428 0.12952,-0.0324 0.29143,-0.25904 0.25905,-1.00381 0.32381,-0.32381 0.61524,-0.22666 1.29523,0.22666 0.61523,0.32381 0.38857,0.5181 0.80952,0.22666 0.29143,-0.0971 1.03619,-1.03618 0.71237,-1.16571 0,-0.80953 0.29143,-0.77714 0.0648,-0.51809 0.0324,-0.0323 1.00381,-0.97142 0.90666,-0.51809 1.55428,0.0648 0.93905,-0.32381 4.79236,-0.71238 0.48572,0.22666 1.52189,1.13334 1.23048,0.0971 1.00381,0.48571 1.42475,0.38857 0.74476,0.35618 0.0648,0.0324 0.8419,0.55047 0.74476,0.19428 0.55047,0.29143 3.27047,0.22667 1.35999,0.32381 0,0 1.39238,-0.3562 1.65142,-1.13332 0.38857,-0.12953 0.1619,-0.0324 0.58286,0.0324 1.48952,0.16191 0.97142,0.0324 0.19429,0 2.26666,0.77714 0.55047,0.5181 0.22667,0.87428 0.0648,0.35618 0,0.0648 -0.0324,1.52189 1.13333,1.32762 0.74476,0.42095 1.61904,-0.0648 1.16571,-0.25905 1.1981,0.12953 2.62284,1.26285 0.87428,0.35618 2.23428,1.55429 1.78095,0.42095 0.74476,-0.25905 0.38857,0.12953 2.59046,2.42856 0.77715,1.58666 -0.0648,1.23047 0.22667,1.06857 0.0971,0.55047 0.19429,1.10095 -0.90667,1.94285 -0.0323,0.80952 0.42095,1.00381 0.0324,0.0323 0.61524,0.64761 1.29523,2.36381 0.22666,1.10094 0.29143,0.45334 0.0324,2.65523 -0.80952,2.29904 0.42095,0.77714 0.48572,1.03618 -0.0324,0.42095 -0.12952,0.71238 -0.16191,1.06857 0.16191,1.10095 0.71238,2.33141 0.71237,1.26286 0.74476,0.8419 0.22666,0.77714 0.0324,0.0648 0.0971,0.74476 -0.19427,0.38857 -1.23048,2.07237 -0.12952,0.51809 0,1.26285 -0.35619,1.00381 -0.55048,0.97143 -0.0324,0.0648 -0.0324,0.35619 0.74476,1.97523 0,0.0324 -0.38857,0.45333 -0.0323,0 -0.19428,0.12953 -1.26285,1.55427 -0.12953,0.45334 -0.0971,0.45333 -0.19427,1.0038 0,0 0,0.0648 0.0324,0.68001 -0.12953,0.29142 -0.5181,0.8419 -1.03618,1.55428 0.25905,0.74476 -0.0971,0.22666 -0.0648,0.16191 -0.0324,0.35619 0.12952,1.91047 -1.06856,1.42476 -0.55048,1.61904 0.0324,0.19428 0.0971,0.12952 0.25904,0.0972 0.64762,1.26285 0.0648,1.03619 -0.0971,0.38857 -1.03619,1.58666 0,1.23047 -0.25905,0.45333 -0.35618,0.84191 -0.16191,0.25904 -0.32381,0.42095 -0.97142,1.00381 -0.93905,0.45333 -1.13332,1.19809 -0.42095,1.19809 -0.77715,0.87428 -0.74475,0.29143 -0.71238,-0.16191 -0.87428,-0.42095 -0.68,0.0324 -0.38857,0.19429 -1.32762,0.8419 -0.19428,0.42095 -0.0323,0.74476 0.16191,0.38857 0.42095,0.64762 0.0648,0.0648 2.10476,0.80952 0.77715,0.87429 1.06856,1.65141 0.1619,0.12953 0.0971,0.0324 0.22667,0.0323 0.19429,0 0.51809,-0.16189 0.90667,-1.16571 0.61523,-0.25906 0.22667,-0.0648 2.2019,0.0648 0.1619,0.0648 1.81332,1.10094 0.77715,1.16571 0.22666,0.58286 -0.35619,1.19809 -1.03618,0.68 -0.25906,0.12952 -2.39618,0.80952 -0.64762,0.35619 -0.64761,0.93905 1.26285,0.42095 0.61524,-0.42095 1.00381,-0.25906 0.42095,-0.0324 0.71237,0.19429 0.22667,0.42095 0.12953,1.29523 0.80951,0.5181 0,1.35999 0.22667,0.29143 0.29143,-0.0971 0.3238,-0.48572 1.06857,0.0971 0.55048,0.19428 0.1619,0.22667 -0.0324,0.42095 -0.29142,0.25904 -0.32382,0.25905 0,0.0323 0.58286,0.22667 0.22667,0.0648 0.64761,0.0323 0.16191,0.0971 0.25904,0.25905 0,0.0648 -0.25904,0.55048 1.03619,0.51808 0,0.74476 -0.22668,0.58286 0,0.22667 0.22668,0.64761 0.77714,0.0648 0.61523,-0.35618 -0.0648,-0.22668 -0.51809,-0.25904 -0.38858,-0.42095 0.0324,-0.16191 0.64762,-0.19427 0.16191,0.0971 0.29143,0.48572 0.61523,0.22666 0.58285,0.71238 0.42096,0.22667 -0.25905,0.1619 -0.42095,-0.0648 -0.38857,0.16191 0.29143,0.25904 -0.12953,0.16191 0.0971,0.25904 1.36,0.16191 0,0.51809 -0.1619,0.0648 -0.22667,-0.22667 -0.25905,0.12953 0.0971,0.22666 0.38857,0.25905 -0.42095,0.1619 0,0 0.12952,0.48572 0.19429,0.12952 0.3238,0.0971 0.38858,-0.25904 0.51808,0.25904 0.42095,-0.1619 0.12953,0.1619 -0.0648,0.38857 0.51809,-0.1619 0,0.25905 -0.22667,0.51809 0.35619,-0.22667 0.1619,0.12953 0.45334,-0.0323 -0.42095,0.25905 0.45333,0.67999 -0.0971,0.16191 0.29143,0.32381 -0.29143,0.25904 0.55047,0.12953 -0.5181,0.22667 0.0971,0.25904 0.25905,-0.0648 0.22666,0.22666 0.22667,-0.12953 -0.22667,0.29143 0.5181,0.12952 0.38856,0.32382 0.42095,-0.0324 -0.0324,0.22666 0.32382,0.0324 -0.0324,0.19429 0.22666,0.19428 0.42095,-0.22667 0,0.58286 0.61524,-0.0648 -0.25905,0.22666 0.22666,0.3562 0.55048,0.32381 0.29143,0.45332 0.1619,0.12953 0.5181,0.0323 -0.12953,0.71237 0.19428,0.51809 0.42096,-0.12952 0.29143,0.12952 0.19428,-0.12952 0.22667,0.71238 0.42095,-0.0648 -0.38858,0.64761 0.19429,0.25906 0.29143,-0.22667 0.19429,0.0648 -0.12952,0.25906 0.16189,0.22666 -0.25904,0.12952 0.42095,0.42095 -0.38857,0.42095 1.0038,-0.0971 1.06858,0.68 0.1619,0.90666 0.35619,0.32381 -0.12953,0.22666 0.38857,0.22668 0.0648,0.25904 0.87428,0.12952 0.19428,0.16191 0.29143,-0.12953 0.25904,0.19428 0.29143,-0.19428 0.0324,0.35619 0.19429,0.0323 0.38857,-0.77713 0.32381,0.12952 0.0971,-0.22667 0.80951,-0.22666 -0.1619,-0.19429 0.55047,-0.32381 -0.0971,-0.38857 0.16191,-0.38857 0.19428,0.0648 0.19428,-0.12952 0.22667,-0.32381 0.80952,-0.22666 0.0971,0.12952 -0.0648,-0.38857 0.22666,-0.1619 0.42096,-0.0648 0.19428,0.25905 0.42095,0 0.32381,-0.48571 0.29143,-0.0648 0,-0.35619 0.45333,-0.32381 0.16191,0.0323 -0.0971,0.22667 0.22667,0.29143 0.32381,-0.35619 0.38857,-0.12953 0.32381,0.32381 0.19428,0 0.0971,-0.22666 0.32381,0.1619 0.93904,-0.45332 0.0648,0 0.16191,-0.0324 0,0 0.22667,-0.0648 0.0971,0.22667 0.35619,-0.0971 0.1619,-0.25905 0.12952,0.19429 0.16191,-0.0324 0.0971,-0.22667 0.35618,-0.0971 0.25904,-0.29143 0.0324,0.12952 0.19428,0 0.32381,-0.67999 0.42095,0.19428 0.22667,-0.1619 0.22667,0.0648 0.22666,-0.22667 0.29143,0.19429 0.22667,-0.32382 0.42095,-0.0324 0.22666,-0.19428 0.55047,0.25905 0.55048,-0.16191 0.58286,0.0648 0.22666,-0.42095 0.35619,-0.16191 0.45333,0.32381 0.45333,-0.0971 0.48572,-0.29142 0.22666,0 1.0038,-0.0972 0.38858,0.1619 0.22666,0.22667 0.38858,0.0971 0.29142,0.32381 0.19428,-0.0648 0.45334,0.22666 0.22666,0.22667 0.0324,0.51809 0.38857,0.42095 0.25904,-0.0324 1.19809,0.42095 1.23047,0.90666 0.29143,0.51809 -0.0324,0.32381 0.22667,0.19429 0.22666,0.19428 -0.12952,1.13333 0,0.12953 0.0648,0.35618 0.55047,0.58286 -0.0324,0.5181 -0.1619,0.25904 -0.55048,0.16191 -0.29142,0.35618 -0.12953,0.71238 -1.03619,2.03999 -0.0324,0.0324 0,0.1619 0.12953,0.35619 0.0971,0.12953 0.55047,0.1619 0.51809,0.58286 -0.12952,0.3238 -0.58286,0.48571 -0.29143,0.71238 0.0648,1.32762 -0.64762,0.80951 -0.61524,0.3562 -0.51809,0.74476 -0.67999,0.22666 -0.93905,-0.0971 -0.55047,0.22666 -0.74476,0 -1.32762,-0.35618 -1.16571,0.55047 -0.87428,0.16191 -0.32381,0.32381 -1.00381,0.25904 -0.25904,0.45333 -0.42095,0.22667 -0.25905,0.58285 0,0.0323 -0.22667,0.0972 -0.0648,0 -0.25904,-0.32381 -0.0971,-0.0324 -0.48572,-0.0971 -0.45333,0.16191 -1.00381,-0.42095 -0.19428,0.22667 0,0.29143 -0.22667,0.16189 0.25905,0.35619 -0.0648,0.16191 -0.3562,0.22666 -0.55047,-0.22666 0.38858,0.55047 -0.0324,0.38857 0.19429,0.29143 -0.29143,0.58285 0.22667,0.12952 -0.87428,0.97144 -0.22667,-0.22668 -0.22666,0.32382 -0.0324,0 -0.32382,-0.35619 -0.12952,0.19428 -0.22667,-0.16191 -0.0323,0.32382 -0.45333,0.1619 0.0971,0.42095 -0.0323,0.0323 0.1619,0.5181 -0.22667,0.0971 0.19429,0.29143 -0.22667,0.22666 0.42095,0.25905 -0.29143,0.0971 c -13.59995,-7.90092 -24.90086,-14.50661 -28.85132,-16.74089 -1.61904,0.71239 -55.2417,32.21893 -61.39406,35.71606 -3.91808,2.23428 -35.91034,20.75611 -36.71986,21.59802 l 0,0 c 3.33522,2.23427 25.19229,14.63614 30.43798,17.67993 l 10.26472,5.7638 c 4.01523,-2.00762 8.12759,-4.69522 12.14282,-6.99427 4.0476,-2.33142 8.15997,-4.82475 12.14281,-7.05902 7.7714,-4.4038 16.5466,-9.64949 24.25324,-14.31233 -1.19809,-1.03618 -3.36761,-2.10475 -4.92188,-3.01142 l -15.70462,-9.13133 c 0.97142,-1.26285 23.73515,-14.11804 27.07038,-16.02851 1.48951,0.61523 11.98091,6.99426 14.47423,8.41901 l 7.60949,4.4038 -0.38856,0.25904 0.12952,0.19429 -0.0971,0.35619 -0.32381,0 0.19429,0.19428 -0.48572,0.12953 -0.0324,0.29142 0.93904,0.29143 0.12952,-0.12952 0.5181,0.0324 0.51809,0.25905 0.64762,-0.22666 -0.1619,0.29142 0.29142,0.19429 0.32381,-0.0324 0.0971,-0.22666 0.58286,0 0.51809,0.22666 0.22667,-0.0971 1.91047,1.13333 0.19428,0.42095 -0.22666,0.12953 0.0971,0.42095 0.1619,0.1619 0.38857,-0.12953 0.5181,0.12953 0.32381,-0.32381 0.38857,0.22667 -0.0324,0.22667 0.0971,0.12952 0.32381,0.0971 0.38856,0.0648 1.16571,0.68001 0.0971,0.25904 -0.22667,0.71238 0.0971,0.22666 0.5181,0.25905 0.55047,-0.12952 0.22667,0.19428 0.1619,0.51809 -0.3238,0.48572 -0.0971,0.67999 0.45333,0.80953 -0.19428,0.25904 -0.42096,0.0971 -0.0324,0.42095 -0.55047,0.19429 -0.12952,0.32381 0.16191,0.35619 0.38856,0.25905 0.74476,-0.19429 0.25905,0.0971 0.22667,0.58286 0.42095,0.71237 0.71238,0.48572 0.19429,0.29143 0.55047,0.25904 0.45333,0.64762 -0.32381,0.8419 0.12952,0.25905 0.80952,0.22667 0.22667,-0.0971 0.16191,-0.29143 0.71237,-0.32381 1.19809,0.0648 1.06857,-0.29143 0.42095,0.0648 0.68,0.58285 0.87428,0.22667 -0.51809,0.3238 -0.19429,0.29143 -0.0971,0.71238 0.22666,0.29143 0.77714,0.58285 0.68,-0.0324 0.61524,0.22667 0.32381,0.48571 0.93904,-0.19428 0.58285,0.25904 0.0971,0.35619 -0.77714,0.61524 0,0.35619 0.80952,0.67999 0.0324,0.19429 0.77714,0.45333 0.12952,0.29143 -1.94284,1.06857 -0.58286,0.12953 0,0.74476 -0.68,0.97142 -0.0324,0.87428 -0.29143,0.58286 -1.87809,1.13332 0.35619,0.93905 -0.0971,0.55047 0.0648,0.12953 0.16191,0.32381 0.16191,0.0971 0.55047,0.19429 1.45714,-0.0648 0.74476,0.35618 -79.52733,47.04935 c 0.8419,1.03619 14.31232,8.64569 16.64374,9.97331 3.33523,1.94285 1.61905,2.26667 8.51616,-1.74858 l 65.44167,-38.37128 0.67999,0.29142 0.68001,-0.42095 0.55047,0.22668 1.32761,0.12952 1.5219,-0.38857 1.39238,-0.0972 0.38857,0.16191 0.35618,0.35619 0.29143,0.29143 0.97143,0.87428 0.12952,0.0648 1.32762,-0.25905 1.6838,0.25905 2.26665,-1.26285 0.55048,-0.22667 0.51809,0 0.22667,0.25904 0.25905,2.29905 0.67999,0.80953 0.32382,-0.42096 1.03618,-0.0648 1.26285,0.42095 0.0324,0 0.93904,-0.32381 2.23428,-0.45333 1.61904,0.80951 2.29904,0.32381 2.29904,-1.13332 0.48572,-0.45334 0.3238,-0.87428 -0.35619,-0.87428 -0.0323,-0.51809 0.38857,-0.61524 0.19428,-0.0648 0.32381,0.48571 0.77714,0 0,0.12953 -0.0324,0.32381 -0.25905,0.38857 0.35619,1.10094 -0.0324,0.97143 0.1619,0.74477 -0.0648,0.25904 -0.38857,0.25905 -0.42095,0.58285 -0.45333,1.32761 -0.67999,1.0362 -0.61524,0.38856 -1.94286,0.0323 -0.64761,0.19428 -0.71237,0.29142 -0.0971,0.0648 -0.16191,0.22666 -0.0648,0.22666 -0.0648,0.71238 0.48571,0.55047 0.0324,0.12953 -0.3562,1.03619 -0.29142,0.19428 -1.42476,-0.0648 -1.10094,0.42096 -0.58285,0.45334 -0.25906,0.51808 -1.87809,1.06858 -0.71237,0.38856 -0.42095,0.74476 -0.61524,0.0648 -0.19428,0.12953 -4.66284,-2.68761 c -2.10476,-1.1981 -3.78856,-2.13714 -5.63427,-3.27046 -2.13713,-1.32762 -1.94285,-0.77715 -5.66664,1.35999 -14.60376,8.48378 -30.0818,17.45327 -44.55603,26.13133 0.35619,0.45334 17.51803,10.39425 20.65897,12.30472 l -27.07038,15.89899 c -2.49332,-1.1981 -4.95427,-2.84951 -7.28569,-4.17713 -11.68948,-6.60569 -24.318,-14.37709 -36.07224,-21.24182 L 165.746,931.07555 c 1.03619,-0.97142 4.17713,-2.62284 5.60189,-3.46474 2.07237,-1.23048 3.78856,-2.29904 5.76378,-3.4 3.91808,-2.16951 7.80378,-4.56569 11.68949,-6.92949 7.9333,-4.69522 15.54279,-9.16378 23.41134,-13.82661 7.90092,-4.66285 15.54279,-9.26092 23.41134,-13.82663 7.70664,-4.46855 15.70471,-9.22853 23.28182,-13.92376 -0.74476,-0.80951 -14.60376,-8.7752 -16.80566,-10.07043 -3.39998,-2.00761 -1.6838,-1.87809 -8.48377,1.94284 -2.81714,1.58666 -5.66665,3.27047 -8.51616,4.95427 -11.26853,6.70284 -22.76373,13.179 -33.93512,19.91422 -5.63426,3.39998 -11.23614,6.67045 -16.96755,9.9733 -5.76379,3.30284 -11.23615,6.67045 -16.96755,9.94091 -1.91047,1.10095 -32.80179,19.00755 -33.83798,19.94659 l 0,0 c 0.80953,0.8419 68.42071,40.24938 72.69497,42.71032 8.4514,4.85713 15.86662,9.35807 24.5123,14.15043 1.8457,-0.87428 4.11236,-2.3638 5.99045,-3.43237 l 18.48946,-10.75044 c 9.94091,-5.82855 20.85325,-12.30472 31.53893,-18.48946 l 0.48571,0.12953 0.55047,-0.0323 0.42095,0.16191 0.61524,0.22667 0.71238,0.48571 0.16191,0.1619 0.22666,0.58286 0.51809,0.25904 0.71238,0.16191 0.38857,-0.12953 0.58286,-0.1619 0.35618,0.29143 0.0648,0 0.71238,0.0324 0.67999,-0.16191 0.35619,0.12953 1.13333,0.32381 0.19428,0.1619 0.22667,0.16191 -0.0324,0.12952 0.22666,0.45333 -0.19428,0.25905 -2.13714,0.1619 -0.0648,0.0324 -0.93904,0.38856 -1.00381,-0.22666 -0.42095,0.16191 -1.71618,-0.45334 -1.61905,-0.93904 -0.22666,0.0648 -0.22667,0.0648 -0.55047,-0.0324 -0.68,0.22667 -0.61523,-0.12953 -0.38857,0.19429 -0.0648,0.0971 0,0.48572 0.3238,0.35618 0.29143,0.29143 0.29142,0.71238 -0.0323,0.68 -0.0324,0.0323 -0.61523,0.32381 -0.93904,1.32761 -1.71619,0.32381 -0.32381,0.22667 0.19429,0.38857 0.0648,0.0324 0.93905,-0.25904 0.38857,0.51809 0.74476,0.19429 -0.0971,0.29142 -0.51809,0.35619 0.12952,0.38857 0.0648,0.25905 -0.29143,0.55047 -0.61522,0.22667 0.0324,0.1619 0.12952,0.38857 -0.35619,0.25905 -0.61524,-0.29143 -0.22666,0.0971 0.0971,0.71238 -0.1619,0.58285 0.42096,0.64762 0.67999,-0.0648 0.51809,0.25904 0.61524,0.29143 0.38857,0.0648 1.55429,-0.51809 0.90665,0.35618 0.42095,0.16191 0.84191,0.1619 1.16571,-0.1619 0.55047,-0.42095 0.58286,-0.19429 0.42095,0.12952 0.42095,0.58286 -0.19429,0.35619 -0.80952,0.77714 -0.8419,0.0323 -1.74856,0.71237 -1.84571,0.0648 -0.77714,0.12952 -1.00381,0.25905 -0.5181,0.42096 -0.29142,0.25904 -0.61523,0.22666 -0.80953,0.90667 0,0.45333 -0.35618,0.16191 -0.68001,0.29142 -0.12952,0.58286 0.71238,0.48571 0,0.0323 0.0323,0.0324 0.0971,0.29143 -0.38858,0.45333 0.32381,0.42095 -0.12952,0.25905 -0.0648,0.1619 0.77714,0.22667 0.0323,0 0.0971,0.51809 -0.22667,0.45334 0.0648,0.48571 -0.22667,0.71238 -0.19428,0.29143 -0.48571,0.22666 0,0.1619 0.1619,0.0648 0.19429,0.0971 0.0971,0.22666 -0.22667,0.22667 -0.25905,0.3238 1.03619,0.25906 0.0324,0.61523 0.38857,0.35619 -0.29143,0.71238 -0.67999,0.25904 0.0324,0.0648 0.64762,0.68 -0.0323,0.35619 -0.35619,0.58285 0.77714,0.22667 0.3238,0.0971 0.97143,0.0324 0.0324,0.0323 0.25905,0.19429 -0.0971,0.22666 -0.97144,0.25905 -0.25904,0.25905 0.0971,0.22666 -0.16191,0.1619 0.0324,0.25905 0.55048,-0.0324 0.35618,0.2914 0.38858,0.45337 0.55047,0 0.77714,0.45327 0.48571,0.45337 -0.38857,0.22664 -0.0971,0.51815 -0.38857,0.29143 0.0971,0.22664 0.0971,0.22664 0.38857,0.0649 0.3562,-0.22663 0.0971,-0.0649 0.45334,0.12949 0.42095,-0.0649 0.38856,0.48572 0.32381,0.51806 0.0648,0.45337 -0.25904,0.48572 -0.0648,1.36 1.23047,0.16194 2.13714,-0.84194 1.06856,-0.1295 0.25905,0.35613 0,0 -0.35619,0.48572 0.48572,0.71235 -0.38858,0.61531 -1.91046,0.0649 -1.19809,0.22664 -0.87429,0.38857 -0.45333,0.032 -0.0323,0 -0.0971,0.0649 -0.32381,0.97143 -0.29143,0.25908 -0.35619,0.25899 0.29143,0.35622 -0.77714,1.52188 0.77714,0.2267 0.0971,0.2266 0,0.032 0.0971,0.032 0.35619,0.097 0.22667,0.3886 -0.38857,0.4857 -0.87428,0.4534 -0.38858,0.5504 0.32381,0.2591 -0.0324,0.2591 0.45334,0.032 0.55047,0.4532 -0.12952,0.9067 -0.61524,0.4533 0.1619,0.3563 0.0324,0.097 0.0648,0.518 -0.38856,0.3238 0,0.032 0.22667,0.3562 -0.12953,0.5181 0.38857,0.2267 0.0971,0.3886 0.3562,0.3886 -0.5181,0.6475 -0.90667,0.4857 0.38858,0.7448 -0.0648,0.68 -0.5181,0.4858 0.22667,0.4857 -0.58285,1.198 1.1657,-0.259 0.19428,-0.2915 0.42095,-0.1295 2.13714,0.3238 1.03619,-0.6152 0.64762,-0.065 2.13713,-0.5828 0.61524,0.032 0.55047,0.3237 -0.25905,0.2915 -1.35999,0.4533 -0.58286,-0.1296 -0.71238,0.2268 -0.12952,0.2914 -0.35618,0.097 -0.29143,0.259 -1.36,0.032 -0.67999,0.2591 -0.22668,-0.065 -1.61904,0.4209 -0.1619,-0.1295 -0.3238,0.2266 -0.12953,-0.065 -1.0038,0.3239 -1.06857,0 -0.0648,0.1295 -1.32762,0.2914 -0.45333,-0.259 0.22666,-0.4858 -0.35618,-0.3885 0.19428,-0.1619 0.0324,-0.065 -0.0324,-0.5181 0.12953,-0.1295 0.12952,-0.1295 0.0971,-0.3239 -0.0324,-0.7124 0.22666,-0.1942 -0.3238,-0.2267 0.25904,-0.4857 -0.22667,-0.097 0.16191,-0.2266 -0.22667,-0.1943 0.16191,-0.5182 -0.38857,-0.2266 -0.0971,-0.3886 0,0.1295 -0.32381,-0.1943 -0.67999,0.097 -0.32381,-0.1618 -0.12952,-0.065 0,-0.1943 0,-0.1296 -0.19428,0.065 0,-0.5181 -0.25906,-0.1943 -0.71237,4.3067 -0.22667,0.2266 -0.38856,0.032 -0.0971,0.2915 -0.29143,1.1333 -1.06856,0 -7.31807,-0.032 -5.47236,-0.032 -3.20571,1.3277 -0.1619,0.2266 0.19429,0.2267 -0.42095,0.1619 -0.25905,0.6476 -0.25905,0.032 -0.3238,0.4534 0.12952,0.1942 -0.12952,0.1943 -0.0648,-0.1295 -0.29143,0.1943 0.0324,0.4533 -0.0324,0 -0.64761,0.065 -0.12953,-0.2267 -0.0324,-0.1295 -0.22667,0.065 -0.1619,-0.1296 0.0648,-0.4209 -0.64762,0.1943 -0.45334,0.5829 -0.38856,0.065 -0.8419,0.5828 0,0.3886 -0.77715,0.2266 -0.35618,0.4857 -0.45333,0.032 -0.71238,0.3886 0,0.3886 -0.45333,-0.1295 0,-0.2267 -0.19429,0.065 -0.38857,-0.1296 -0.22667,0.162 0.0324,0.2591 -0.22666,0.3561 -0.45334,0.2267 -0.1619,-0.1619 -0.61524,0.2266 -0.0324,0.1296 -0.25904,-0.097 -0.25905,0.3561 -0.19429,-0.065 -0.4857,0.2267 -0.32381,-0.2267 -0.16191,0.2267 -0.38857,0.065 0.0323,0.1943 -0.22667,0.1618 0.22667,0.2915 -0.32381,0.1943 -0.12952,-0.3238 -0.19429,-0.065 -0.19428,-0.065 -0.22667,0.1295 -0.12952,0.2591 -0.1619,-0.065 0,-0.3562 -0.42095,0.2591 -0.68,0.032 -0.35619,0.3562 0.25904,0.097 -0.0324,0.5182 -0.80952,0.2914 -0.42094,-0.1619 -0.25905,0.2266 -0.22667,-0.1943 -0.55047,-0.065 0,-0.032 0.42095,-0.3561 -0.35619,-0.2591 -0.68,0.2268 -0.71238,-0.032 0,0 -0.22666,0.1618 -0.25905,-0.1295 -0.25905,0.065 -0.0971,0.3561 -0.90666,0.3239 0.12952,0.7125 -0.22666,0.2266 -0.71238,0.1295 0.0323,0.3561 -0.3562,0.1621 -0.29142,0.5828 -0.35619,-0.1297 0.22666,-0.2266 -0.35618,0 -0.0648,-0.2913 -0.80951,0.1295 -0.51809,0.259 -0.71238,-0.4857 -0.71239,0.1295 -0.71238,-0.518 -0.16189,-0.259 -0.12953,0 -0.19428,0.065 -0.25905,0.421 -0.25905,-0.032 -0.19428,0.2266 0.0648,0.68 -0.22667,-0.065 -0.87427,0.3563 -0.38858,0.7123 -0.12952,0.065 -0.16191,-0.032 -0.35618,-0.3886 0.1619,-0.4209 -0.90666,-0.7123 0.0324,-0.065 0.22666,-0.2591 0.0648,-0.032 0.74475,-0.097 -0.22666,-0.4534 -0.48572,-0.1618 -0.90665,0.1943 -1.00381,-0.2915 -0.0324,-0.4857 0.42095,-0.9392 -0.55048,-0.065 -0.45333,0.2591 -0.42095,0.032 -0.68,-0.3239 -0.42095,0.065 -0.38857,0.3239 -1.0038,-0.3239 -0.22667,-1.3923 0.32381,-1.0038 -0.3562,-0.2267 -0.22666,-0.032 -0.87428,-0.065 -1.19809,-0.4856 -0.45334,0.2265 -0.3238,-0.2265 -0.0648,0.3885 -0.4857,0.2267 0.0648,0.3237 -0.22667,0.1943 0.22667,0.2268 -0.16191,0.032 0.22667,0.2267 -0.0323,0.1943 -0.32381,0 -0.12952,0.3238 -0.32381,0.065 -0.38857,0.3238 0.68,0.3886 -0.12953,0.5828 -0.35619,0.1943 0.22667,0.065 -0.22667,0.2267 0.16191,0.1295 -0.32381,0.1295 0.19428,0.1943 -0.0648,0.1943 0.55047,0.065 0.0648,0.3562 -0.19428,0.2267 0.51809,0.2914 -0.0648,0.3239 0.35618,0.518 -0.42095,0.4534 -0.3238,0.1295 -0.12953,0.7447 0.0971,0.1943 -0.22667,0.1619 0.35619,0.4857 -0.0971,0.2591 0.29142,0.8095 -0.0324,0.3238 0.61524,0.5505 0.67999,0.1295 -0.22666,0.68 -0.29142,0.2591 -0.22667,0 -0.22667,0.518 -0.48571,0.4534 -0.12953,0.5181 -0.0648,0.065 -0.42095,0.2591 -0.38856,0.5181 -0.16191,0.7448 -5.69903,-5.4077 -0.0648,-0.2266 -1.03619,-0.68 -0.97142,0.2591 -0.77715,-0.1943 -0.22666,0.032 -0.19429,0.1942 -0.61524,0.032 -0.22666,-0.097 -0.22666,-0.4209 -0.25905,0.2266 -0.16191,-0.032 -0.0648,-0.3886 -0.38856,-0.1943 -0.19429,0.032 -0.19428,0.032 0.0971,-0.065 -0.29143,-0.2266 -0.22667,0.1295 -0.25904,-0.1619 -0.35619,0.68 -0.22667,-0.065 -0.19428,0.1943 -0.22667,-0.065 -0.45333,0.2591 -0.22666,-0.162 -0.0648,-0.4209 -0.32381,-0.2266 -0.32381,-0.68 -0.61524,-0.1296 -1.10094,0.2267 -0.29143,-0.3239 -0.19429,0.1296 -0.0648,-0.3239 0.22667,-0.065 -0.19428,-0.421 -0.90667,0.065 0.0323,-0.1295 -0.22666,-0.1943 0.12952,-0.1619 -0.0648,-0.2266 -0.19427,0.065 -0.16191,-0.2268 -0.42095,0.2268 -0.22667,-0.065 -0.12952,0.1943 0.32381,1.0037 -0.25905,-0.065 -0.0324,0.4533 -0.12952,0.065 0.12952,0.1295 -0.22667,0.2591 -0.4857,-0.097 -0.22668,0.2267 -0.42095,-0.162 -0.29142,0.1943 -0.22667,-0.065 -0.1619,0.2591 -0.97142,0.2914 -0.42096,0.065 -0.22666,-0.1619 -0.0648,0.2914 -0.19429,-0.2914 -0.19429,0.097 -0.22666,-0.259 0.74476,-0.8095 -0.12952,-1.1981 -0.29143,-0.1943 -0.25905,-0.097 0.0324,-0.2267 0.19428,-0.3238 0.48572,-0.3885 -0.38857,-0.4534 0,-0.032 -0.0971,-0.2591 -0.0323,-0.097 0,-0.1295 0,-0.3562 0.0323,-0.1943 0.38858,-0.3561 0.0323,-0.3886 0.45333,-0.421 -0.0648,-0.097 -0.51809,0.2267 -0.22667,-0.1296 -0.12952,0.1296 -0.42095,-0.3563 -0.45333,0.2915 -0.3238,-0.065 0.22666,0.097 -0.48572,0.2591 0.0971,0.259 -0.0648,0.1296 -0.71238,0.065 -0.12952,-0.1295 -0.12952,-0.1296 -0.38857,0.2267 -0.29143,-0.2267 -0.32381,0.4857 -0.29143,0.1619 0.12953,0.1295 -0.35619,0.3563 -0.0324,0.032 -0.55048,0 -0.12952,0.2915 -0.16191,-0.097 -0.55047,0.1619 0.16191,-0.259 -0.19429,0 -0.22666,0.2266 -0.16191,-0.032 -0.0324,0.421 -0.22666,0 0.0324,0.1942 -0.74476,0.2915 0.0971,0.065 -0.19428,0.1619 0.1619,0 0,0.065 -0.0324,0.065 -0.16191,-0.032 -0.25904,-0.032 -0.0323,-0.1619 -0.42095,0.097 -0.16191,0 -0.55047,-0.1618 0.0648,0.3237 -0.16191,0.2267 0.32381,0.2266 -0.22666,0.1296 -0.22667,-0.065 -0.22666,-0.2591 -0.48572,0.065 -0.0971,0.1619 -0.35619,0.1295 -0.1619,0.2591 -0.25905,0 -0.29143,0.4209 -0.12952,-0.2266 -0.12952,0.259 -0.51809,0.097 -0.25906,-0.1295 -0.42095,0.2915 -0.61522,-0.1295 -0.12953,0.1618 0.0971,0.1943 -0.25904,0.1619 0.0648,0.1943 -0.29143,0.162 -0.22667,-0.3239 -0.61523,-0.1295 0,-0.065 -0.0648,-0.68 0.0971,-0.065 0.16191,-0.097 -0.22668,-0.032 0.0323,-0.3562 0.19429,-0.032 -0.51809,-0.1943 -0.12953,-0.3238 -0.22666,-0.032 0.12952,-0.518 -0.12952,-0.2591 0.1619,-0.1943 -0.0323,-0.3562 -0.22667,-0.2266 0.12953,-0.2267 -0.12953,-0.518 0.25906,-0.2268 -0.0324,-0.259 0.19429,-0.1619 -0.19429,-0.7771 -0.12952,-0.2591 -0.22667,-0.1295 -0.0324,0.3562 -0.35619,0.032 -0.3238,-0.2267 -0.55048,-0.1295 -0.0971,-0.1943 0,0 -0.61524,0.4857 0.0324,1.0686 -0.42095,0.7123 0,0.2915 -0.64761,0.1295 -0.48572,0.3885 0.0324,0.8096 0.19429,0.2266 -0.22667,0.2915 0,0.8095 -0.22666,0.6476 0.25904,0.2591 0,0.8743 -0.67999,0.3885 -0.48572,0.1296 -0.38856,0.1295 -0.68,-0.9067 0.0971,-0.4534 0.38857,-0.8094 -0.0971,-0.2915 0.19429,-0.065 -0.48572,-0.3237 -0.12952,-0.3239 0.32381,-0.1295 0.4857,-0.5505 -0.0324,-0.4533 0.19429,-0.1296 -0.0324,-0.6152 0,-0.032 0.12952,-0.1619 -0.25904,-0.259 0.25904,-0.2591 -0.42095,-0.2914 0.0323,-0.3238 -0.25904,-0.032 -0.22667,-0.2266 0.29143,-0.097 0.0648,-0.2268 0.32381,-0.1618 0.0324,-0.5182 0.1619,-0.065 0.0648,-0.032 -0.38856,-0.7772 -0.51809,0.032 0.35618,-0.2914 -0.42095,-0.6476 0.0971,-0.2267 -0.29143,-0.032 0.0648,-0.6476 -0.0324,-0.1295 -0.0648,-0.032 -0.42095,0.032 -0.3238,-0.2914 -0.35619,0 -0.42095,-0.7124 -0.0648,-0.6801 -0.0971,-0.1618 -0.35618,-0.1943 -0.38858,0.097 -0.0324,-0.2915 -0.3238,-0.1619 -0.19429,0.097 -0.29143,-0.3238 -0.42095,-0.065 -0.1619,0.3562 -0.22666,0.032 -0.16191,-0.259 -0.29143,0.097 -0.25905,0.259 -0.22666,-0.2267 -0.22667,0.1295 -0.32381,-0.4533 -0.25904,-0.065 -0.19429,-0.5828 0.19429,-0.5829 -0.38858,-0.6153 0.22667,-0.5504 -0.0971,-0.4534 -0.58286,-0.1618 -0.25904,-0.3886 -0.25905,-0.065 -0.19429,-0.2267 -1.0038,-0.8095 -0.0324,0.1943 -0.22666,-0.032 -0.16191,-0.2914 -0.22666,0.032 0,-0.1295 -0.29143,-0.162 0.0324,-0.1295 -0.42095,-0.1296 0.0971,-0.2266 -0.25904,-0.2266 -0.16191,-0.3563 -0.22667,0.065 -0.22666,-0.1619 0,0.1296 -0.5181,0 -0.1619,-0.1619 0.1619,-0.421 -0.25905,-0.4857 0.0324,-0.3238 -0.51809,-0.1943 -0.22667,0.1943 0,-0.1943 -0.3238,-0.032 -0.19429,0.1295 0.22667,0.3238 -0.35619,-0.032 -0.0971,0.065 -0.0648,0.097 -4.50094,5.5695 -0.22666,-0.3562 -1.16571,-0.6475 -0.22666,-0.6477 -0.5181,-0.1943 -0.19428,-0.2266 -0.42096,-0.1296 -0.58285,0.2591 -0.22666,0.1295 -0.19429,-0.1943 -1.13333,-0.2267 -0.32381,-0.3561 0.12953,-0.097 -0.22667,-0.032 0.0324,-0.1296 0.29143,-0.1943 -0.22666,-0.2266 0.55047,-0.3886 0.16191,-0.3886 -0.0971,-0.259 0.22667,-0.2267 -0.71238,-0.065 -0.64762,-0.3885 -0.45333,0 -0.61523,-1.8458 -0.80953,0.421 -0.42095,0.7447 -0.22666,0.065 -0.61524,0.6153 -0.97142,0.5181 -0.3562,0.3238 -0.1619,0.3886 -0.58286,0.2266 -0.0971,0.2267 -0.55048,-0.065 -0.25904,0.065 -0.12953,0.2267 -0.25905,0.032 0,0.032 0.0971,0.3562 -0.68,0.3561 0.1619,0.5829 -0.25904,0.5828 -0.22667,0.162 -0.0324,0.259 -0.22667,-0.065 -0.22666,0.1943 -0.55048,1.0038 -0.0324,0.1619 -0.0323,0.1619 0.19429,0.1619 -0.16191,0.3238 -0.22666,0.1295 -0.77714,1.2953 -1.00381,1.1657 -0.71237,0.5828 -0.77715,1.4896 0.0324,0.2915 0.42095,0.259 0.12953,0.3885 -0.5181,0.68 -0.0971,0.3886 0.45333,0.9391 -0.12953,0.3886 0.1619,0.518 0.0324,0.065 -0.22666,0.5181 0.42095,0.9067 0,0.259 -0.0971,0.4857 -1.26286,0.7772 -4.50093,-2.1048 -6.67045,-3.2057 0,0 -14.05328,-6.8324 -0.22666,-0.3238 -0.22667,-0.097 -1.00381,-0.2914 -0.64761,0.1295 -1.19809,-0.8095 -0.5181,0.2266 -0.61523,-0.4857 -0.71238,-0.1943 -0.97143,0.2268 -0.25904,-0.065 -0.25905,-0.4534 -1.03619,-0.2267 -0.323807,-0.421 -1.16571,0.097 -0.259042,0.162 -0.809524,-0.2267 -1.068566,-0.097 -0.518094,-0.3562 -0.582851,0.1619 -0.161908,-0.2267 -0.29143,0.032 -0.03235,0.1619 -0.582851,-0.2266 -0.194286,-0.2591 -0.226664,0.032 -0.29143,-0.3562 -0.09714,0.097 -0.550473,-0.1618 -0.03235,-0.5182 -0.259043,-0.1295 0.03235,-0.1943 -0.226664,0.162 -0.29143,-0.2268 -0.388564,0.032 0,-0.1618 -0.582859,-0.097 0.06479,-0.1295 -0.420951,-0.1619 -0.161908,0.1295 -0.388573,-0.1619 -0.06479,0.1295 -0.226665,-0.2591 -0.09714,0.065 -0.09714,0.065 -0.161909,-0.4532 -0.161899,-0.097 -0.129521,-0.2268 -0.194287,0.065 -0.09714,-0.1618 0.06479,-0.5505 -0.226665,-0.2591 0.06479,-0.2914 0.226664,-0.2267 0.03235,-0.032 0.03235,-0.1619 -0.09714,-0.5829 0.453329,-0.5504 -0.291429,-0.2914 0.259051,-0.1296 -0.09714,-0.1295 0.453329,-0.1943 0.226664,-0.7123 -0.71238,-0.4534 -0.03235,-0.032 0.194287,-0.065 0.06479,-0.3561 -0.259051,-0.6153 0.226664,-0.1295 -0.03235,0.2591 0.161909,0.1618 0.09713,-0.2266 0.226674,-0.032 0.09714,0.1295 0.129521,0.1942 0.129521,-0.4532 0.259043,0.2266 0.259051,-0.032 -0.194286,-0.2266 0.29143,-0.5505 -0.259052,-0.3563 0.485716,-0.3561 -0.129521,-0.3238 0.226664,-0.1295 0.09714,-0.38863 0.291429,0.22673 0.550472,-0.25908 -0.388573,-1.10092 0.356186,-0.71245 0.161909,-0.0649 0.226664,0.32387 0.09714,0.032 0.129522,-0.032 0.809523,-0.51816 0.194287,-0.35613 0.518094,0 -0.226665,-0.35622 -0.259051,-0.0649 -0.129521,0.032 0,0.22664 -0.259052,0.0649 -0.09713,-0.51807 -0.420951,-0.22663 -0.29143,-0.45337 0.453329,-0.61521 0.194287,-1.29521 0.03235,-0.032 0.485716,-0.35622 -0.03235,-0.38857 0.388564,-0.29143 0.582859,-0.1295 0.161899,-0.45336 0.06479,-0.16194 0.679993,-0.12949 0.03235,0 0.194277,-0.16194 0.09714,-0.12949 0.06479,-0.71235 0.71238,-0.68001 -1.327617,0.48572 0,0.48572 -0.194287,0.16184 -0.356186,0 -0.226664,-0.12949 -0.03235,-0.25908 -0.356185,-0.032 -0.06479,0.22673 0.615228,0.25899 0.03235,0.19429 -0.06479,0.0649 -0.615237,0.032 -0.647616,0.22673 -0.161899,0.19429 0.356186,0.032 0.03235,0.25899 -0.712381,-0.12949 -0.356186,0.38857 -1.068566,0.25908 -0.453329,0.61521 -0.09714,0.0649 -0.161909,0.032 -0.71238,0 -0.291421,0.32378 -1.068566,0.38857 -0.356195,0.25908 -0.194286,0.16185 0.259051,0.0649 0.259043,0.32387 -0.03235,0.16185 -0.744758,-0.25899 -0.226665,0.22664 0.194287,0.45336 -0.06479,0.19429 -0.582859,-0.12959 -0.129522,0.0649 0.06479,0.32387 -0.647615,-0.0649 -0.29143,0.19429 0.356186,0.29143 -0.388564,0.032 -0.161909,0.22664 0.161909,0.45337 -0.226674,0.19428 -0.550472,0.0649 -0.259042,0.51806 -0.518095,0.48572 0.323808,0.19429 -0.06479,0.22663 -0.712372,0.1295 -0.550481,0.38857 0.323807,0.87428 -0.06479,0.162 -0.226665,0.065 -0.420951,-0.3563 -0.647615,0.421 0.09713,0.1943 0.03235,0 0.194286,-0.2267 0.161899,-0.032 0.09714,0.032 0,0.065 -0.356186,0.2914 0.226664,0.3238 -0.226664,0.3562 0.226664,0.4858 -0.129521,0.1942 -0.259051,0.162 -0.971423,-0.162 -0.129522,0.3563 -0.647615,0.259 -0.03235,0.259 0.485716,0.2267 0.06479,0.3562 -0.09713,0.2266 -0.680003,0.1296 -0.161899,0.3561 0.129521,0.162 0.518094,-0.032 0.1619,0.1295 -0.420951,0.2266 0.09714,0.4857 -0.420951,0.162 -0.420951,0.3885 0.420951,1.0686 -0.29143,0.097 -0.161899,0.2266 0.161899,0.3886 -0.226664,0.5505 -0.712371,0.7124 -0.09714,-0.6476 -0.323807,-0.3238 -0.550482,0.2914 -1.651416,0 -1.457139,-0.68 -0.129522,-0.2915 0.906658,-0.5504 0.06479,-0.065 0,-0.065 -0.06479,-0.065 -0.161899,-0.032 -0.874289,0.032 -0.485707,0.7124 -0.226664,0.1295 -0.226674,-0.065 -0.194277,-0.2914 0.06479,-0.4858 0.647616,-0.9714 -0.1619,-0.1943 -0.71238,0.1943 -0.259043,-0.1943 0.388564,-0.4533 0.194286,-1.0685 -0.647615,-0.5829 0.323808,-0.6152 -0.161899,-0.1296 -0.550482,0.032 -0.453329,-0.939 0,-0.2267 0.388573,-0.3886 -0.03235,-0.518 -0.420951,-0.2267 -2.03999,0.065 -0.06479,-0.93906 -0.226665,-0.58286 0.194287,-0.45327 0.388572,-0.22673 0.971424,0.29143 0.259051,-0.19429 -0.06479,-0.61521 -0.777137,-0.45336 0.420951,-0.71236 0.58285,-0.51806 0.259052,-1.32766 0.647615,-0.97143 -0.323808,-0.87429 0.518085,-0.29143 0.712381,0.22673 0,0 0.161908,-0.12959 0.226665,-1.06848 -0.680003,-0.48572 0.259052,-1.32765 -0.226665,-0.71235 -0.550472,-0.80959 0.291421,-0.84186 -0.259043,-0.25904 -0.259051,-0.77715 0.194286,-0.25904 0.712381,-0.45334 0.03235,-0.0971 -0.129521,-0.42095 -0.809524,-0.77715 0.259052,-1.06856 -0.518094,-0.19429 -1.100945,0.0323 -0.388572,-0.68 0.356185,-0.58285 0,-1.29524 0.388573,-0.58285 -0.226664,-0.68001 0.388563,-1.71618 -0.03235,-0.67999 -0.87428,-0.77715 -0.03235,-0.38856 0.420951,-0.64762 -0.291429,-0.35619 -0.03235,-0.35619 0.09714,-0.45333 1.198097,-0.97143 0.09714,-0.74476 -0.615237,-0.80952 0.388573,-0.55047 0.841892,-0.48571 0.06479,-0.71238 -0.971423,-0.71238 -1.068566,-0.19429 -0.194287,-0.1619 -0.09714,-1.35999 -0.29143,-0.42095 -0.291429,-0.42095 -0.323808,-1.42476 -0.259043,-0.48571 -0.388572,-0.68 0.03235,-0.32381 1.133322,-1.03619 0.323808,-0.25904 0.744759,-0.29143 0.323817,-0.42095 0.161899,-0.35619 0.03235,-0.87429 -0.09714,-0.97142 0.259052,-0.35619 0.03235,-0.29143 0.03235,-0.55047 -0.03235,-0.19428 -0.29143,-0.25905 -0.161899,-0.0971 -0.356186,0 -0.712381,-0.0324 -1.100953,-0.12952 -0.09714,-0.0324 -0.09714,-0.0971 -1.036179,-1.48951 -0.03235,-0.0972 0.259051,-0.97142 -0.226664,-0.51809 0.03235,-1.06857 -0.161908,-0.71238 0.12953,-0.77715 0,0 0,-0.0971 0,-0.12953 z m 54.140755,16.12565 c 0.0323,4.85713 -0.1619,16.44947 0.22666,21.79235 12.04568,-6.57335 27.68562,-15.80189 39.99034,-23.11995 -0.97144,-0.84191 -3.59428,-2.29905 -4.85713,-3.0438 l -12.79043,-7.54474 c -2.97904,-1.84571 -1.84571,-1.65142 -7.90093,1.94285 l -12.79042,7.51235 c -1.29524,0.71238 -1.87809,0.64762 -1.87809,2.46094 l 0,0 0,-0.0324 z"
         inkscape:connector-curvature="0" />
    </g>
  </g>
</svg>
