<?xml version="1.0" encoding="UTF-8" standalone="no"?>
<!-- Created with Inkscape (http://www.inkscape.org/) -->

<svg
   xmlns:dc="http://purl.org/dc/elements/1.1/"
   xmlns:cc="http://creativecommons.org/ns#"
   xmlns:rdf="http://www.w3.org/1999/02/22-rdf-syntax-ns#"
   xmlns:svg="http://www.w3.org/2000/svg"
   xmlns="http://www.w3.org/2000/svg"
   xmlns:sodipodi="http://sodipodi.sourceforge.net/DTD/sodipodi-0.dtd"
   xmlns:inkscape="http://www.inkscape.org/namespaces/inkscape"
   width="39.178326mm"
   height="38.847008mm"
   viewBox="0 0 39.178326 38.847008"
   version="1.1"
   id="svg8"
   inkscape:version="0.92.4 (5da689c313, 2019-01-14)"
   sodipodi:docname="usp.svg">
  <defs
     id="defs2">
    <clipPath
       clipPathUnits="userSpaceOnUse"
       id="clipPath20">
      <path
         d="M 0,2994.81 V 0 h 7385.68 v 2994.81 z"
         id="path18"
         inkscape:connector-curvature="0" />
    </clipPath>
  </defs>
  <sodipodi:namedview
     id="base"
     pagecolor="#ffffff"
     bordercolor="#666666"
     borderopacity="1.0"
     inkscape:pageopacity="0.0"
     inkscape:pageshadow="2"
     inkscape:zoom="2.8"
     inkscape:cx="126.08965"
     inkscape:cy="28.804941"
     inkscape:document-units="mm"
     inkscape:current-layer="layer1"
     showgrid="false"
     fit-margin-top="0"
     fit-margin-left="0"
     fit-margin-right="0"
     fit-margin-bottom="0"
     showguides="true"
     inkscape:guide-bbox="true"
     inkscape:window-width="2560"
     inkscape:window-height="1017"
     inkscape:window-x="-8"
     inkscape:window-y="-8"
     inkscape:window-maximized="1">
    <sodipodi:guide
       position="19.560268,29.104167"
       orientation="1,0"
       id="guide3806"
       inkscape:locked="false" />
    <sodipodi:guide
       position="26.36384,19.560268"
       orientation="0,1"
       id="guide3808"
       inkscape:locked="false" />
  </sodipodi:namedview>
  <metadata
     id="metadata5">
    <rdf:RDF>
      <cc:Work
         rdf:about="">
        <dc:format>image/svg+xml</dc:format>
        <dc:type
           rdf:resource="http://purl.org/dc/dcmitype/StillImage" />
        <dc:title></dc:title>
      </cc:Work>
    </rdf:RDF>
  </metadata>
  <g
     inkscape:label="Layer 1"
     inkscape:groupmode="layer"
     id="layer1"
     transform="translate(-32.54031,-5.3668736)">
    <g
       id="g10"
       transform="matrix(0.04557635,0,0,-0.04557635,41.273997,28.466692)">
      <g
         id="g12"
         transform="matrix(0.11576117,0,0,0.11576117,-189.16128,-90.119112)">
        <g
           id="g14">
          <g
             id="g16"
             clip-path="url(#clipPath20)">
            <path
               d="m 2395.31,698.602 c 0,-274.832 -224.18,-499 -499,-499 V 0 c 253.58,0 476.36,136.34 598.79,339.488 v 359.114 z m 199.59,0 c 0,-274.832 224.2,-499 499.08,-499 V 0 C 2840.27,0 2617.56,136.34 2495.1,339.488 V 698.602 Z M 4990.27,2296.18 c 0,274.85 224.13,498.99 499.01,498.99 v 199.64 c -253.65,0 -476.46,-136.38 -598.82,-339.5 v -359.13 z m -199.68,-0.32 h 99.87 v 359.09 c -122.39,203.15 -345.24,339.5 -598.91,339.5 v -199.58 c 274.94,0 499.04,-224.2 499.04,-499.01 z m 0,-1597.008 c 0,-274.782 -224.1,-499.563 -499.04,-499.563 V 0.269531 c 384.84,0 698.72,313.890469 698.72,698.582469 z M 7185.95,2295.79 h 199.73 c 0,384.79 -313.87,698.6 -698.75,698.6 v -199.52 c 274.79,0 499.02,-224.2 499.02,-499.08 z M 199.609,698.852 H 0 C 0,314.16 313.824,0.269531 698.629,0.269531 V 199.898 c -274.875,0 -499.02,224.172 -499.02,498.954 z M 3094.12,2994.39 c -365.71,0 -699.43,-315.41 -698.81,-698.35 h 199.77 c 0,283.7 231.8,499.13 499.02,499.23 -0.67,95 -0.59,126.58 0.02,199.12 z M 4990.27,199.84 V 0.0898438 H 6187.95 V 998.371 H 7385.68 V 2295.79 H 7185.95 V 1198 h -998 V 2295.79 H 5988.31 V 199.898 Z m 499.01,2794.97 1197.65,-0.42 v -199.73 l -1197.65,0.51 z m -498.55,-1855.17 -0.46,-440.788 h -199.68 v 357.998 l -1167.54,1169.4 139.93,141.49 z m -2595.42,715.39 1227.74,-1228.069 139.93,141.5 -1167.9,1169.369 v 358.21 H 2395.31 Z M 0,2994.39 H 2395.31 V 2794.87 H 1397.27 V 703.102 H 1197.62 V 2794.87 H 199.609 V 698.852 H 0 Z M 698.629,199.898 H 1896.49 V 0.0898438 H 698.629 Z m 2395.381,2794.442 1197.68,0.05 v -199.73 l -1197.68,0.61 z m -0.03,-2794.738 1197.71,-0.723 V 0.21875 l -1197.68,0.3125 -0.03,199.07075 v 0"
               style="fill:#1b181a;fill-opacity:1;fill-rule:evenodd;stroke:none"
               id="path22"
               inkscape:connector-curvature="0" />
          </g>
        </g>
      </g>
    </g>
  </g>
</svg>
