<?xml version="1.0" encoding="UTF-8" standalone="no"?>
<!-- Created with Inkscape (http://www.inkscape.org/) -->

<svg
   xmlns:dc="http://purl.org/dc/elements/1.1/"
   xmlns:cc="http://creativecommons.org/ns#"
   xmlns:rdf="http://www.w3.org/1999/02/22-rdf-syntax-ns#"
   xmlns:svg="http://www.w3.org/2000/svg"
   xmlns="http://www.w3.org/2000/svg"
   xmlns:sodipodi="http://sodipodi.sourceforge.net/DTD/sodipodi-0.dtd"
   xmlns:inkscape="http://www.inkscape.org/namespaces/inkscape"
   width="77"
   height="77"
   id="svg3046"
   version="1.1"
   inkscape:version="0.48.4 r9939"
   sodipodi:docname="desenho.svg">
  <defs
     id="defs3048" />
  <sodipodi:namedview
     id="base"
     pagecolor="#ffffff"
     bordercolor="#666666"
     borderopacity="1.0"
     inkscape:pageopacity="0.0"
     inkscape:pageshadow="2"
     inkscape:zoom="7.9195959"
     inkscape:cx="52.773788"
     inkscape:cy="37.23892"
     inkscape:document-units="px"
     inkscape:current-layer="g3173"
     showgrid="false"
     inkscape:window-width="1920"
     inkscape:window-height="1056"
     inkscape:window-x="0"
     inkscape:window-y="24"
     inkscape:window-maximized="1" />
  <metadata
     id="metadata3051">
    <rdf:RDF>
      <cc:Work
         rdf:about="">
        <dc:format>image/svg+xml</dc:format>
        <dc:type
           rdf:resource="http://purl.org/dc/dcmitype/StillImage" />
        <dc:title></dc:title>
      </cc:Work>
    </rdf:RDF>
  </metadata>
  <g
     inkscape:label="Camada 1"
     inkscape:groupmode="layer"
     id="layer1"
     transform="translate(0,-975.36218)">
    <g
       id="g3173"
       inkscape:export-filename="/home/vinicius/Documentos/git_project/UFT Servicos/Assets/logo_s.png"
       inkscape:export-xdpi="200"
       inkscape:export-ydpi="200">
      <g
         id="g3286"
         inkscape:export-filename="/home/vinicius/Documentos/git_project/UFT Servicos/Assets/logo_s.png"
         inkscape:export-xdpi="200"
         inkscape:export-ydpi="200">
        <path
           sodipodi:type="arc"
           style="fill:#ffffff;fill-opacity:1;stroke:none"
           id="path3169"
           sodipodi:cx="10.543468"
           sodipodi:cy="43.7281"
           sodipodi:rx="41.984467"
           sodipodi:ry="41.984467"
           d="m 52.527935,43.7281 a 41.984467,41.984467 0 1 1 -83.968933,0 41.984467,41.984467 0 1 1 83.968933,0 z"
           transform="matrix(0.90075189,0,0,0.90075189,29.002951,974.47401)" />
        <g
           id="g3131"
           transform="matrix(0.10512939,0,0,0.10512939,35.383665,906.64469)">
          <g
             transform="translate(-3.0762715e-6,1.5657723e-5)"
             id="g3251">
            <g
               transform="matrix(0.03543307,0,0,0.03543307,-361.16619,697.61612)"
               class="com.sun.star.drawing.ClosedBezierShape"
               id="g127">
              <g
                 id="id16">
                <path
                   d="m 9030,8705 0,-4001 750,0 0,5001 -1501,0 c 250,0 751,-499 751,-1000 z"
                   id="path130"
                   inkscape:connector-curvature="0"
                   style="fill:#808285;stroke:none" />
              </g>
            </g>
            <g
               transform="matrix(0.03543307,0,0,0.03543307,-361.16619,697.61612)"
               class="com.sun.star.drawing.PolyPolygonShape"
               id="g132">
              <g
                 id="id17">
                <path
                   d="m 3529,10455 15001,0 0,-501 -15001,0 0,501 z"
                   id="path135"
                   inkscape:connector-curvature="0"
                   style="fill:#008477;stroke:none" />
              </g>
            </g>
            <g
               transform="matrix(0.03543307,0,0,0.03543307,-361.16619,697.61612)"
               class="com.sun.star.drawing.PolyPolygonShape"
               id="g137">
              <g
                 id="id18">
                <path
                   d="m 16279,6953 0,-749 1751,0 0,3501 -2751,0 0,-2752 1000,0 z"
                   id="path140"
                   inkscape:connector-curvature="0"
                   style="fill:#808285;stroke:none" />
              </g>
            </g>
            <g
               transform="matrix(0.03543307,0,0,0.03543307,-361.16619,697.61612)"
               class="com.sun.star.drawing.ClosedBezierShape"
               id="g142">
              <g
                 id="id19">
                <path
                   d="m 5779,8705 0,-2501 -1750,0 0,3501 2751,0 c -499,0 -1001,-501 -1001,-1000 z"
                   id="path145"
                   inkscape:connector-curvature="0"
                   style="fill:#808285;stroke:none" />
              </g>
            </g>
            <g
               transform="matrix(0.03543307,0,0,0.03543307,-361.16619,697.61612)"
               class="com.sun.star.drawing.PolyPolygonShape"
               id="g147">
              <g
                 id="id20">
                <path
                   d="m 3529,4954 15001,0 0,1001 -15001,0 0,-1001 z"
                   id="path150"
                   inkscape:connector-curvature="0"
                   style="fill:#004a80;stroke:none" />
              </g>
            </g>
            <g
               transform="matrix(0.03543307,0,0,0.03543307,-361.16619,697.61612)"
               class="com.sun.star.drawing.ClosedBezierShape"
               id="g152">
              <g
                 id="id21">
                <path
                   d="m 7029,6204 1001,0 0,2501 c 0,250 -251,500 -501,500 -251,0 -500,-250 -500,-500 l 0,-2501 z"
                   id="path155"
                   inkscape:connector-curvature="0"
                   style="fill:#808285;stroke:none" />
              </g>
            </g>
            <g
               transform="matrix(0.03543307,0,0,0.03543307,-361.16619,697.61612)"
               class="com.sun.star.drawing.PolyPolygonShape"
               id="g157">
              <g
                 id="id22">
                <path
                   d="m 14030,6953 -1001,0 0,-749 -500,0 0,749 -1500,0 0,751 1000,0 0,750 -1000,0 0,1251 3001,0 0,-2752 z"
                   id="path160"
                   inkscape:connector-curvature="0"
                   style="fill:#808285;stroke:none" />
              </g>
            </g>
            <g
               transform="matrix(0.03543307,0,0,0.03543307,-361.16619,697.61612)"
               class="com.sun.star.drawing.PolyPolygonShape"
               id="g162">
              <g
                 id="id23">
                <path
                   d="m 4029,3954 5001,0 0,751 -5001,0 0,-751 z"
                   id="path165"
                   inkscape:connector-curvature="0"
                   style="fill:#808285;stroke:none" />
              </g>
            </g>
            <g
               transform="matrix(0.03543307,0,0,0.03543307,-361.16619,697.61612)"
               class="com.sun.star.drawing.PolyPolygonShape"
               id="g167">
              <g
                 id="id24">
                <path
                   d="m 18030,3954 -8251,0 0,751 8251,0 0,-751 z"
                   id="path170"
                   inkscape:connector-curvature="0"
                   style="fill:#808285;stroke:none" />
              </g>
            </g>
            <g
               transform="matrix(0.03543307,0,0,0.03543307,-361.16619,697.61612)"
               class="com.sun.star.drawing.ClosedBezierShape"
               id="g172">
              <g
                 id="id25">
                <path
                   d="m 4027,11749 c 3,218 115,325 336,322 221,3 334,-105 337,-323 l 0,-545 -166,0 0,494 c 0,73 -12,131 -37,174 -27,44 -71,67 -134,67 -61,0 -105,-23 -132,-67 -27,-43 -40,-101 -39,-174 l 0,-494 -165,0 0,546 z m 0,0 0,0 z m 878,307 159,0 0,-638 2,0 316,638 201,0 0,-853 -158,0 0,638 -2,0 -315,-638 -203,0 0,853 z m 0,0 0,0 z m 875,0 166,0 0,-853 -166,0 0,853 z m 0,0 0,0 z m 554,0 203,0 278,-853 -164,0 -210,670 -2,0 -211,-670 -178,0 284,853 z m 0,0 0,0 z m 613,0 490,0 0,-133 -325,0 0,-241 295,0 0,-133 -295,0 0,-213 323,0 0,-133 -488,0 0,853 z m 0,0 0,0 z m 831,-720 54,0 c 21,0 42,0 63,1 21,3 39,7 56,15 16,7 30,19 41,33 9,16 14,37 14,63 0,26 -5,47 -14,63 -11,16 -25,28 -41,36 -17,8 -35,14 -56,16 -21,4 -42,5 -63,5 l -54,0 0,-232 z m 0,0 0,0 z m -166,720 166,0 0,-354 53,0 c 34,0 59,7 75,20 16,13 29,36 40,68 l 99,266 184,0 -133,-333 c -8,-21 -19,-40 -33,-58 -14,-18 -32,-28 -55,-31 l 0,-2 c 54,-9 96,-31 126,-68 30,-36 45,-80 45,-130 -1,-60 -12,-106 -34,-137 -23,-33 -54,-55 -92,-68 -38,-14 -80,-22 -125,-25 -46,0 -92,-1 -137,-1 l -179,0 0,853 z m 0,0 0,0 z m 1203,-697 14,-140 c -60,-21 -126,-30 -197,-30 -75,0 -141,19 -198,57 -58,41 -89,108 -90,203 0,34 5,64 16,89 11,26 25,47 42,65 18,17 38,33 59,45 20,13 42,25 65,34 46,18 87,37 124,57 16,9 30,22 41,36 9,15 14,33 14,53 -1,37 -17,65 -48,83 -32,18 -64,27 -98,27 -67,-1 -129,-19 -187,-53 l 0,0 -15,152 c 39,10 74,18 104,24 29,6 65,10 107,10 87,0 160,-21 220,-61 58,-40 89,-105 90,-198 0,-36 -4,-68 -14,-94 -11,-25 -25,-47 -41,-65 -17,-18 -36,-35 -58,-48 -21,-12 -43,-23 -66,-32 -23,-9 -45,-19 -65,-28 -22,-8 -41,-17 -59,-27 -17,-10 -31,-21 -42,-33 -11,-12 -16,-27 -16,-45 0,-23 4,-43 13,-58 8,-17 19,-29 32,-37 13,-9 27,-15 42,-19 14,-3 28,-5 43,-5 59,1 115,14 168,38 z m 0,0 0,0 z m 221,697 166,0 0,-853 -166,0 0,853 z m 0,0 0,0 z m 352,0 226,0 c 65,0 126,-7 182,-20 57,-13 108,-35 152,-67 45,-32 80,-76 106,-132 25,-54 37,-123 37,-208 0,-86 -12,-156 -37,-211 -26,-55 -61,-98 -106,-130 -91,-58 -203,-86 -334,-85 l -226,0 0,853 z m 0,0 0,0 z m 166,-720 92,0 c 73,0 136,25 189,76 54,51 81,123 83,217 -2,94 -29,166 -83,217 -53,51 -116,77 -189,77 l -92,0 0,-587 z m 0,0 0,0 z m 1180,392 -249,0 124,-354 2,0 123,354 z m 0,0 0,0 z m -549,328 177,0 74,-196 346,0 73,196 190,0 -335,-853 -193,0 -332,853 z m 0,0 0,0 z m 967,0 226,0 c 65,0 125,-7 182,-20 57,-13 107,-35 152,-67 44,-32 80,-76 105,-132 25,-54 37,-123 37,-208 0,-86 -12,-156 -37,-211 -25,-55 -61,-98 -105,-130 -92,-58 -203,-86 -334,-85 l -226,0 0,853 z m 0,0 0,0 z m 165,-720 92,0 c 73,0 136,25 190,76 53,51 81,123 83,217 -2,94 -30,166 -83,217 -54,51 -117,77 -190,77 l -92,0 0,-587 z m 0,0 0,0 z m 716,720 490,0 0,-133 -324,0 0,-241 294,0 0,-133 -294,0 0,-213 322,0 0,-133 -488,0 0,853 z m 0,0 0,0 z m 1018,0 165,0 0,-374 280,0 0,-133 -280,0 0,-213 294,0 0,-133 -459,0 0,853 z m 0,0 0,0 z m 610,0 490,0 0,-133 -324,0 0,-241 294,0 0,-133 -294,0 0,-213 322,0 0,-133 -488,0 0,853 z m 0,0 0,0 z m 679,0 226,0 c 64,0 125,-7 181,-20 58,-13 108,-35 153,-67 44,-32 79,-76 105,-132 25,-54 37,-123 37,-208 0,-86 -12,-156 -37,-211 -26,-55 -61,-98 -105,-130 -92,-58 -203,-86 -334,-85 l -226,0 0,853 z m 0,0 0,0 z m 165,-720 92,0 c 73,0 136,25 189,76 54,51 82,123 83,217 -1,94 -29,166 -83,217 -53,51 -116,77 -189,77 l -92,0 0,-587 z m 0,0 0,0 z m 716,720 490,0 0,-133 -325,0 0,-241 295,0 0,-133 -295,0 0,-213 323,0 0,-133 -488,0 0,853 z m 0,0 0,0 z m 831,-720 54,0 c 21,0 42,0 64,1 20,3 38,7 55,15 16,7 30,19 41,33 10,16 14,37 14,63 0,26 -4,47 -14,63 -11,16 -25,28 -41,36 -17,8 -35,14 -55,16 -22,4 -43,5 -64,5 l -54,0 0,-232 z m 0,0 0,0 z m -166,720 166,0 0,-354 53,0 c 34,0 59,7 75,20 16,13 29,36 40,68 l 99,266 184,0 -133,-333 c -8,-21 -19,-40 -33,-58 -14,-18 -32,-28 -55,-31 l 0,-2 c 55,-9 96,-31 126,-68 30,-36 45,-80 45,-130 -1,-60 -12,-106 -34,-137 -23,-33 -54,-55 -92,-68 -38,-14 -80,-22 -125,-25 -46,0 -92,-1 -137,-1 l -179,0 0,853 z m 0,0 0,0 z m 1224,-328 -250,0 124,-354 2,0 124,354 z m 0,0 0,0 z m -550,328 177,0 75,-196 345,0 74,196 188,0 -334,-853 -193,0 -332,853 z m 0,0 0,0 z m 966,0 487,0 0,-133 -321,0 0,-720 -166,0 0,853 z"
                   id="path175"
                   inkscape:connector-curvature="0"
                   style="fill:#231f20;stroke:none" />
              </g>
            </g>
            <g
               transform="matrix(0.03543307,0,0,0.03543307,-361.16619,697.61612)"
               class="com.sun.star.drawing.ClosedBezierShape"
               id="g177">
              <g
                 id="id26">
                <path
                   d="m 4068,14208 225,0 c 65,0 126,-7 182,-20 57,-13 108,-36 152,-67 45,-32 80,-77 106,-132 25,-55 37,-124 37,-208 0,-85 -12,-155 -37,-211 -26,-54 -61,-97 -106,-129 -91,-59 -203,-88 -334,-86 l -225,0 0,853 z m 0,0 0,0 z m 165,-719 92,0 c 73,0 136,25 189,76 54,50 81,122 83,216 -2,94 -29,166 -83,216 -53,52 -116,78 -189,78 l -92,0 0,-586 z m 0,0 0,0 z m 675,290 c 0,133 35,239 104,319 68,81 169,122 301,124 132,-2 232,-44 301,-126 68,-80 102,-186 103,-317 0,-132 -34,-237 -104,-316 -69,-81 -169,-121 -300,-123 -132,1 -232,41 -301,122 -69,79 -104,185 -104,317 z m 0,0 0,0 z m 173,0 c 0,-79 19,-149 56,-209 36,-63 95,-94 176,-96 82,2 141,33 178,96 36,60 53,130 53,209 0,81 -17,151 -52,212 -17,30 -41,53 -71,71 -30,18 -66,27 -108,27 -83,-1 -142,-34 -179,-98 -36,-61 -53,-132 -53,-212 z m 0,0 0,0 z m 1176,429 306,0 0,-1332 438,0 0,-245 -1183,0 0,245 439,0 0,1332 z m 0,0 0,0 z m 903,-794 c 0,246 64,443 192,590 126,150 312,227 557,231 243,-4 429,-82 557,-233 126,-149 189,-345 190,-588 0,-244 -64,-439 -192,-585 -128,-147 -313,-222 -555,-225 -244,1 -429,76 -557,223 -128,146 -192,342 -192,587 z m 0,0 0,0 z m 320,0 c 0,-146 34,-275 102,-388 68,-115 177,-174 327,-177 151,3 261,62 329,177 66,113 98,242 98,388 0,150 -31,280 -95,393 -32,55 -76,99 -132,132 -55,33 -122,50 -200,50 -153,-3 -263,-64 -331,-182 -67,-113 -99,-244 -98,-393 z m 0,0 0,0 z m 2610,509 0,0 c -37,18 -85,33 -147,46 -62,13 -125,20 -187,20 -164,-2 -291,-56 -382,-163 -92,-103 -138,-237 -138,-402 0,-167 47,-304 140,-411 89,-107 213,-162 372,-164 55,0 110,5 164,15 55,13 110,36 167,69 l 0,0 21,-265 c -121,-43 -236,-64 -345,-64 -549,6 -828,286 -839,843 1,266 81,462 236,590 151,132 352,198 603,198 118,-2 233,-18 347,-49 l -12,-263 z m 0,0 0,0 z m 1141,-322 -462,0 228,-655 4,0 230,655 z m 0,0 0,0 z m -1018,607 328,0 138,-362 640,0 136,362 349,0 -618,-1577 -358,0 -615,1577 z m 0,0 0,0 z m 1775,0 293,0 0,-1180 4,0 584,1180 374,0 0,-1577 -293,0 0,1180 -5,0 -582,-1180 -375,0 0,1577 z m 0,0 0,0 z m 1922,0 306,0 0,-1332 438,0 0,-245 -1183,0 0,245 439,0 0,1332 z m 0,0 0,0 z m 953,0 306,0 0,-1577 -306,0 0,1577 z m 0,0 0,0 z m 638,0 293,0 0,-1180 5,0 584,1180 373,0 0,-1577 -293,0 0,1180 -4,0 -582,-1180 -376,0 0,1577 z m 0,0 0,0 z m 2466,-1290 27,-259 c -112,-37 -233,-55 -365,-55 -138,0 -260,35 -366,106 -109,75 -165,201 -167,375 0,63 10,119 30,166 20,46 46,86 76,119 34,32 71,60 110,83 38,24 78,45 120,63 86,33 162,68 229,105 31,18 57,40 78,67 16,27 25,60 25,97 -1,70 -32,121 -90,154 -57,33 -118,50 -181,50 -123,-2 -238,-34 -345,-98 l 0,0 -29,282 c 74,19 138,33 194,43 53,13 119,19 198,19 161,0 296,-38 405,-112 109,-74 165,-195 168,-366 0,-68 -8,-126 -26,-174 -20,-47 -46,-87 -76,-120 -31,-34 -67,-65 -107,-89 -39,-22 -80,-42 -123,-59 -42,-18 -82,-35 -120,-52 -39,-15 -76,-31 -109,-50 -31,-18 -57,-38 -77,-60 -20,-23 -30,-51 -30,-84 0,-43 8,-79 23,-108 17,-31 36,-53 60,-69 24,-16 50,-27 78,-34 26,-6 52,-9 79,-9 110,2 213,25 311,69 z"
                   id="path180"
                   inkscape:connector-curvature="0"
                   style="fill:#231f20;stroke:none" />
              </g>
            </g>
          </g>
        </g>
      </g>
    </g>
  </g>
</svg>
