<?xml version="1.0" encoding="UTF-8" standalone="no"?>
<!-- Created with Inkscape (http://www.inkscape.org/) -->

<svg
   xmlns:dc="http://purl.org/dc/elements/1.1/"
   xmlns:cc="http://creativecommons.org/ns#"
   xmlns:rdf="http://www.w3.org/1999/02/22-rdf-syntax-ns#"
   xmlns:svg="http://www.w3.org/2000/svg"
   xmlns="http://www.w3.org/2000/svg"
   xmlns:sodipodi="http://sodipodi.sourceforge.net/DTD/sodipodi-0.dtd"
   xmlns:inkscape="http://www.inkscape.org/namespaces/inkscape"
   id="svg2"
   version="1.1"
   inkscape:version="0.48.4 r9939"
   width="150"
   height="150"
   xml:space="preserve"
   sodipodi:docname="Banco_do_Brasil.eps"><metadata
     id="metadata8"><rdf:RDF><cc:Work
         rdf:about=""><dc:format>image/svg+xml</dc:format><dc:type
           rdf:resource="http://purl.org/dc/dcmitype/StillImage" /><dc:title></dc:title></cc:Work></rdf:RDF></metadata><defs
     id="defs6" /><sodipodi:namedview
     pagecolor="#ffffff"
     bordercolor="#666666"
     borderopacity="1"
     objecttolerance="10"
     gridtolerance="10"
     guidetolerance="10"
     inkscape:pageopacity="0"
     inkscape:pageshadow="2"
     inkscape:window-width="1855"
     inkscape:window-height="1056"
     id="namedview4"
     showgrid="false"
     inkscape:zoom="1.9463918"
     inkscape:cx="8.2265652"
     inkscape:cy="164.36508"
     inkscape:window-x="65"
     inkscape:window-y="24"
     inkscape:window-maximized="1"
     inkscape:current-layer="g10" /><g
     id="g10"
     inkscape:groupmode="layer"
     inkscape:label="ink_ext_XXXXXX"
     transform="matrix(1.25,0,0,-1.25,0,150)"><g
       id="g3772"
       transform="matrix(0.6225487,0,0,0.6225487,0.09804901,0.21393826)"><path
         d="m 0.259766,0.566797 192.756004,0 0,192.756003 -192.756004,0 0,-192.756003 z"
         style="fill:#fff101;fill-opacity:1;fill-rule:evenodd;stroke:none"
         id="path14"
         inkscape:connector-curvature="0" /><path
         d="m 96.6555,176.398 -78.8492,-52.85 32.8183,-21.311 39.2121,26.426 -15.5535,10.217 21.3043,14.274 46.2315,-30.679 0,0 -75.8448,-50.9184 16.4047,-10.8648 94.3791,62.8482 -0.213,0.213 -79.8895,52.645"
         style="fill:#2e3192;fill-opacity:1;fill-rule:evenodd;stroke:none"
         id="path16"
         inkscape:connector-curvature="0" /><path
         d="m 175.287,176.376 -32.809,-21.731 16.405,-11.078 16.404,11.078 0,21.731"
         style="fill:#2e3192;fill-opacity:1;fill-rule:evenodd;stroke:none"
         id="path18"
         inkscape:connector-curvature="0" /><path
         d="M 17.2652,17.491 50.0742,39.2219 33.6695,50.3 17.2652,39.2219 l 0,-21.7309"
         style="fill:#2e3192;fill-opacity:1;fill-rule:evenodd;stroke:none"
         id="path20"
         inkscape:connector-curvature="0" /><path
         d="M 96.6199,17.5363 175.469,70.3867 142.651,91.6973 103.439,65.2723 118.993,55.0551 97.6879,40.7809 51.457,71.4594 l 0,0 75.844,50.9176 -16.405,10.866 -94.3784,-62.8485 0.2129,-0.2132 79.8894,-52.645"
         style="fill:#2e3192;fill-opacity:1;fill-rule:evenodd;stroke:none"
         id="path22"
         inkscape:connector-curvature="0" /></g></g></svg>