<?xml version="1.0" encoding="UTF-8" standalone="no"?>
<!-- Created with Inkscape (http://www.inkscape.org/) -->

<svg
   xmlns:dc="http://purl.org/dc/elements/1.1/"
   xmlns:cc="http://creativecommons.org/ns#"
   xmlns:rdf="http://www.w3.org/1999/02/22-rdf-syntax-ns#"
   xmlns:svg="http://www.w3.org/2000/svg"
   xmlns="http://www.w3.org/2000/svg"
   xmlns:sodipodi="http://sodipodi.sourceforge.net/DTD/sodipodi-0.dtd"
   xmlns:inkscape="http://www.inkscape.org/namespaces/inkscape"
   width="150"
   height="150"
   viewBox="0 0 150 150"
   id="svg3465"
   version="1.1"
   inkscape:version="0.48.4 r9939"
   sodipodi:docname="logo_caccomp.svg">
  <defs
     id="defs3467" />
  <sodipodi:namedview
     id="base"
     pagecolor="#ffffff"
     bordercolor="#666666"
     borderopacity="1.0"
     inkscape:pageopacity="0.0"
     inkscape:pageshadow="2"
     inkscape:zoom="3.959798"
     inkscape:cx="114.31843"
     inkscape:cy="67.329153"
     inkscape:document-units="px"
     inkscape:current-layer="g3382"
     showgrid="false"
     units="px"
     inkscape:window-width="1855"
     inkscape:window-height="1056"
     inkscape:window-x="65"
     inkscape:window-y="24"
     inkscape:window-maximized="1" />
  <metadata
     id="metadata3470">
    <rdf:RDF>
      <cc:Work
         rdf:about="">
        <dc:format>image/svg+xml</dc:format>
        <dc:type
           rdf:resource="http://purl.org/dc/dcmitype/StillImage" />
        <dc:title />
      </cc:Work>
    </rdf:RDF>
  </metadata>
  <g
     inkscape:label="Camada 1"
     inkscape:groupmode="layer"
     id="layer1"
     transform="translate(0,-902.36216)">
    <g
       id="g2990">
      <rect
         ry="0"
         rx="7438.3687"
         y="902.36218"
         x="0"
         height="150"
         width="150"
         id="rect2988"
         style="fill:none;stroke:none" />
      <g
         inkscape:export-ydpi="90"
         inkscape:export-xdpi="90"
         transform="matrix(1.194999,0,0,1.194999,18.264829,185.7431)"
         id="g3382">
        <g
           id="g3005">
          <path
             sodipodi:nodetypes="szsscscssssssssscsss"
             inkscape:connector-curvature="0"
             id="path3027"
             d="M 53.004311,670.85471 C 42.648974,669.13 35.461336,658.95744 35.256599,650.13054 c -0.20475,-8.8269 6.489734,-17.91566 15.787933,-20.26697 6.84735,-1.73156 14.289132,0.16079 19.255111,4.89633 l 1.147342,1.09407 -3.318235,3.0884 c -2.976463,2.77031 -3.348523,3.06607 -3.612428,2.87159 -0.16183,-0.11932 -0.692116,-0.54222 -1.178415,-0.93993 -1.021344,-0.83527 -2.772339,-1.70776 -4.123952,-2.05489 -6.008818,-1.54321 -12.05494,1.77044 -14.105585,7.73073 -1.453148,4.22367 -0.158127,9.09369 3.25274,12.23206 1.249686,1.14984 2.74763,2.02354 4.396698,2.56443 1.103834,0.36206 1.630993,0.43387 3.286744,0.44773 1.181947,0.01 2.33417,-0.0741 2.875896,-0.20948 1.200084,-0.30001 3.1321,-1.19329 4.127226,-1.90822 0.442007,-0.31754 0.869949,-0.57736 0.950944,-0.57736 0.272378,0 6.116803,6.57242 6.005127,6.75312 -0.249103,0.40306 -2.746881,2.11061 -4.113001,2.81175 -1.776048,0.91154 -3.464222,1.53145 -5.32693,1.9561 -1.88467,0.42965 -5.68127,0.54753 -7.559503,0.23471 z"
             style="fill:#76d6fe" />
          <path
             sodipodi:nodetypes="csscsssssssssssscscsscc"
             inkscape:connector-curvature="0"
             id="path3019"
             d="m 54.056434,687.26674 c -7.16792,-0.60651 -13.083236,-2.56933 -18.363297,-6.09319 -8.997544,-6.00487 -14.733248,-15.07064 -16.409356,-25.93645 -0.383146,-2.48383 -0.382753,-7.87377 8.22e-4,-10.35321 2.333679,-15.08765 13.039765,-27.11384 27.419321,-30.80026 3.745147,-0.96013 4.767998,-1.07619 9.488957,-1.07678 3.851365,-4.9e-4 4.582967,0.0428 6.326972,0.37473 5.424136,1.03221 10.009396,2.8755 14.317054,5.75545 2.639154,1.76446 6.471586,5.05487 6.471586,5.5563 0,0.2004 -7.593875,7.2901 -7.808521,7.2901 -0.06364,0 -0.77647,-0.5858 -1.584076,-1.30177 -7.318468,-6.48821 -16.921713,-8.52679 -26.036708,-5.52708 -2.051025,0.67498 -5.416348,2.42638 -7.133977,3.71272 -11.450587,8.57532 -14.169289,23.97675 -6.314501,35.77156 3.288485,4.93801 8.210367,8.62402 13.956164,10.45181 8.292981,2.63807 17.439736,0.9026 24.297546,-4.61013 l 1.126005,-0.90517 0.368076,0.39037 c 2.935211,3.11291 6.840532,7.60133 6.77115,7.78213 -0.14633,0.38134 -2.217564,2.01826 -4.296806,3.39582 -4.498477,2.98038 -9.989395,5.05877 -15.300947,5.79159 -1.842058,0.25408 -5.984894,0.44231 -7.295403,0.33146 z"
             style="fill:#075e85" />
          <path
             sodipodi:nodetypes="cssssssssscsssssssssscsscc"
             inkscape:connector-curvature="0"
             id="path3017"
             d="m 45.609164,696.9454 c -9.203114,-0.80382 -18.134868,-4.40793 -25.472234,-10.27831 -1.967872,-1.5745 -5.452854,-5.08651 -7.069304,-7.12419 -2.603592,-3.2821 -4.8668345,-7.03178 -6.4648164,-10.71081 -7.11186757,-16.37357 -4.6464998,-35.10092 6.4648164,-49.10784 1.61645,-2.03768 5.101432,-5.54969 7.069304,-7.12415 6.680946,-5.34525 14.39101,-8.6936 23.007173,-9.99164 3.417427,-0.51484 9.400874,-0.51484 12.818289,0 8.616506,1.29808 16.330789,4.64842 23.007173,9.99207 2.59881,2.08004 6.1008,5.76096 7.324649,7.6989 0.308884,0.48912 0.308773,0.49114 -0.01447,0.2563 -0.179219,-0.13019 -0.769542,-0.66065 -1.311858,-1.17878 -5.114479,-4.88649 -12.198682,-8.60785 -19.473925,-10.22974 -4.365574,-0.97323 -9.719911,-1.23643 -14.050807,-0.69068 -12.234329,1.54167 -22.828972,8.09061 -29.846,18.44892 -1.526564,2.25346 -3.588136,6.4831 -4.589871,9.41683 -2.724845,7.98015 -2.998805,16.42184 -0.796594,24.54622 0.682036,2.51615 1.467581,4.56216 2.867583,7.46882 4.982288,10.34411 14.438221,18.30562 25.592506,21.54761 4.01463,1.16692 7.539772,1.65607 11.901411,1.65154 9.431862,-0.0123 18.826261,-3.25292 25.766304,-8.89437 1.592967,-1.29489 2.195418,-1.69808 2.332502,-1.561 0.149568,0.14956 -4.053478,4.26751 -5.701406,5.58599 -3.128911,2.5033 -7.185933,4.97116 -10.60742,6.45236 -7.402149,3.2046 -15.082206,4.49598 -22.752992,3.82595 z"
             style="fill:#040404" />
          <g
             id="text3496"
             style="font-size:62.62625504px;font-style:normal;font-weight:normal;line-height:125%;letter-spacing:0px;word-spacing:0px;fill:#000000;fill-opacity:1;stroke:none;font-family:sans-serif">
            <path
               id="path2991"
               style="font-size:26.09427261px;font-variant:normal;font-weight:100;font-stretch:normal;fill:#000000;font-family:Advent Pro;-inkscape-font-specification:Advent Pro Thin"
               d="m 7.5025792,722.19454 c 1.2699132,0 2.6703048,-0.29574 4.2011778,-0.88721 l 0.156566,0.4697 c -1.478685,0.57407 -2.8877747,0.86111 -4.2272725,0.86111 -0.2783455,0 -0.7045515,-0.0261 -1.2786193,-0.0783 -0.5566829,-0.0522 -1.1568506,-0.24355 -1.8005048,-0.57408 -0.6262658,-0.34792 -1.1394526,-0.8872 -1.5395621,-1.61784 -0.3827179,-0.74803 -0.5740757,-1.67003 -0.574074,-2.76599 l 0,-8.37627 c -1.7e-6,-1.32209 0.182658,-2.32237 0.5479797,-3.00084 0.3827134,-0.67843 0.9567868,-1.25251 1.722222,-1.72222 0.7654273,-0.43489 1.696122,-0.65234 2.7920872,-0.65236 1.4090825,2e-5 2.6442098,0.28706 3.7053868,0.86111 l -0.208754,0.44361 c -1.2177421,-0.53927 -2.3571908,-0.80891 -3.41835,-0.80893 -0.7828343,2e-5 -1.4699828,0.1218 -2.0614475,0.36532 -0.5914744,0.22617 -1.0524728,0.50451 -1.3829965,0.83502 -0.3305305,0.31315 -0.6175672,0.76545 -0.861111,1.3569 -0.2261527,0.59149 -0.3392277,1.28734 -0.3392255,2.08755 l 0,8.55892 c -2.2e-6,1.13075 0.2261479,2.07015 0.6784511,2.81818 0.4696935,0.73064 1.052465,1.21773 1.7483162,1.46128 0.695842,0.24354 1.4090847,0.36532 2.1397304,0.36532" />
            <path
               id="path2993"
               style="font-size:26.09427261px;font-variant:normal;font-weight:100;font-stretch:normal;fill:#000000;font-family:Advent Pro;-inkscape-font-specification:Advent Pro Thin"
               d="m 22.133311,714.54892 -3.313972,-9.39394 -3.313973,9.39394 6.627945,0 m 3.287879,7.82828 -0.54798,0 -2.557239,-7.33249 -6.993265,0 -2.583333,7.33249 -0.495791,0 6.393097,-18.26599 0.365319,0 6.419192,18.26599" />
            <path
               id="path2995"
               style="font-size:26.09427261px;font-variant:normal;font-weight:100;font-stretch:normal;fill:#000000;font-family:Advent Pro;-inkscape-font-specification:Advent Pro Thin"
               d="m 31.099549,722.19454 c 1.269913,0 2.670304,-0.29574 4.201178,-0.88721 l 0.156565,0.4697 c -1.478685,0.57407 -2.887774,0.86111 -4.227272,0.86111 -0.278345,0 -0.704551,-0.0261 -1.278619,-0.0783 -0.556683,-0.0522 -1.156851,-0.24355 -1.800505,-0.57408 -0.626266,-0.34792 -1.139453,-0.8872 -1.539562,-1.61784 -0.382718,-0.74803 -0.574076,-1.67003 -0.574074,-2.76599 l 0,-8.37627 c -2e-6,-1.32209 0.182658,-2.32237 0.54798,-3.00084 0.382713,-0.67843 0.956786,-1.25251 1.722222,-1.72222 0.765427,-0.43489 1.696122,-0.65234 2.792087,-0.65236 1.409082,2e-5 2.64421,0.28706 3.705386,0.86111 l -0.208754,0.44361 c -1.217741,-0.53927 -2.35719,-0.80891 -3.418349,-0.80893 -0.782835,2e-5 -1.469983,0.1218 -2.061448,0.36532 -0.591474,0.22617 -1.052473,0.50451 -1.382996,0.83502 -0.330531,0.31315 -0.617568,0.76545 -0.861111,1.3569 -0.226153,0.59149 -0.339228,1.28734 -0.339226,2.08755 l 0,8.55892 c -2e-6,1.13075 0.226148,2.07015 0.678451,2.81818 0.469694,0.73064 1.052465,1.21773 1.748316,1.46128 0.695842,0.24354 1.409085,0.36532 2.139731,0.36532" />
            <path
               id="path2997"
               style="font-size:26.09427261px;font-variant:normal;font-weight:100;font-stretch:normal;fill:#000000;font-family:Advent Pro;-inkscape-font-specification:Advent Pro Thin"
               d="m 42.311928,722.19454 c 1.269913,0 2.670305,-0.29574 4.201178,-0.88721 l 0.156566,0.4697 c -1.478685,0.57407 -2.887775,0.86111 -4.227272,0.86111 -0.278346,0 -0.704552,-0.0261 -1.27862,-0.0783 -0.556683,-0.0522 -1.15685,-0.24355 -1.800505,-0.57408 -0.626265,-0.34792 -1.139452,-0.8872 -1.539562,-1.61784 -0.382718,-0.74803 -0.574075,-1.67003 -0.574074,-2.76599 l 0,-8.37627 c -1e-6,-1.32209 0.182658,-2.32237 0.54798,-3.00084 0.382713,-0.67843 0.956787,-1.25251 1.722222,-1.72222 0.765427,-0.43489 1.696122,-0.65234 2.792087,-0.65236 1.409083,2e-5 2.64421,0.28706 3.705387,0.86111 l -0.208754,0.44361 c -1.217742,-0.53927 -2.357191,-0.80891 -3.41835,-0.80893 -0.782834,2e-5 -1.469983,0.1218 -2.061447,0.36532 -0.591475,0.22617 -1.052473,0.50451 -1.382997,0.83502 -0.33053,0.31315 -0.617567,0.76545 -0.861111,1.3569 -0.226153,0.59149 -0.339228,1.28734 -0.339225,2.08755 l 0,8.55892 c -3e-6,1.13075 0.226147,2.07015 0.678451,2.81818 0.469693,0.73064 1.052465,1.21773 1.748316,1.46128 0.695842,0.24354 1.409085,0.36532 2.13973,0.36532" />
            <path
               id="path2999"
               style="font-size:26.09427261px;font-variant:normal;font-weight:100;font-stretch:normal;fill:#000000;font-family:Advent Pro;-inkscape-font-specification:Advent Pro Thin"
               d="m 58.847543,717.57585 0,-8.50673 c -1.2e-5,-1.49606 -0.41752,-2.6703 -1.252525,-3.52273 -0.835027,-0.86979 -2.078852,-1.30469 -3.731481,-1.30471 -1.652643,2e-5 -2.896468,0.44362 -3.731481,1.33081 -0.835019,0.86982 -1.252527,2.05276 -1.252525,3.54882 l 0,8.45454 c -2e-6,1.51347 0.48709,2.66162 1.461279,3.44445 0.974182,0.76543 2.157121,1.14814 3.548821,1.14814 1.391686,0 2.565927,-0.36532 3.522727,-1.09596 0.956778,-0.73063 1.435173,-1.89618 1.435185,-3.49663 m 0.495791,-8.40235 0,8.37626 c -1.2e-5,1.75701 -0.539293,3.05303 -1.617845,3.88804 -1.061177,0.81762 -2.339795,1.22643 -3.835858,1.22643 -1.496077,0 -2.792091,-0.40881 -3.888046,-1.22643 -1.078566,-0.83501 -1.617847,-2.13103 -1.617845,-3.88804 l 0,-8.40236 c -2e-6,-1.79179 0.487091,-3.14869 1.461279,-4.07071 0.991578,-0.92197 2.348479,-1.38297 4.070707,-1.38299 1.722213,2e-5 3.053019,0.48711 3.992423,1.46128 0.956778,0.9742 1.435173,2.3137 1.435185,4.01852" />
            <path
               id="path3001"
               style="font-size:26.09427261px;font-variant:normal;font-weight:100;font-stretch:normal;fill:#000000;font-family:Advent Pro;-inkscape-font-specification:Advent Pro Thin"
               d="m 77.082954,722.3772 -0.469697,0 0,-16.90909 -6.314814,16.90909 -0.469697,0 -6.262625,-16.90909 0,16.90909 -0.469697,0 0,-18.26599 0.469697,0 6.523568,17.48316 6.523568,-17.48316 0.469697,0 0,18.26599" />
            <path
               id="path3003"
               style="font-size:26.09427261px;font-variant:normal;font-weight:100;font-stretch:normal;fill:#000000;font-family:Advent Pro;-inkscape-font-specification:Advent Pro Thin"
               d="m 81.684927,722.3772 -0.495791,0 0,-18.26599 6.419191,0 c 1.652628,10e-6 2.879057,0.5045 3.679293,1.51346 0.817607,1.009 1.226417,2.3659 1.226431,4.07071 -1.4e-5,3.56623 -1.748328,5.34933 -5.244949,5.34933 l -5.584175,0 0,7.33249 m 0,-7.82828 5.531986,0 c 3.200886,0 4.801334,-1.61784 4.801346,-4.85354 -1.2e-5,-1.54825 -0.356634,-2.77467 -1.069865,-3.67929 -0.695858,-0.92198 -1.800515,-1.38298 -3.313972,-1.383 l -5.949495,0 0,9.91583" />
          </g>
        </g>
      </g>
    </g>
  </g>
</svg>
