<?xml version="1.0" encoding="UTF-8" standalone="no"?>
<svg
   xmlns:dc="http://purl.org/dc/elements/1.1/"
   xmlns:cc="http://creativecommons.org/ns#"
   xmlns:rdf="http://www.w3.org/1999/02/22-rdf-syntax-ns#"
   xmlns:svg="http://www.w3.org/2000/svg"
   xmlns="http://www.w3.org/2000/svg"
   xmlns:sodipodi="http://sodipodi.sourceforge.net/DTD/sodipodi-0.dtd"
   xmlns:inkscape="http://www.inkscape.org/namespaces/inkscape"
   viewBox="0 0 372 372"
   height="372"
   width="372"
   xml:space="preserve"
   id="svg2"
   version="1.1"
   inkscape:version="0.48.5 r10040"
   sodipodi:docname="Volunteers_front_artwork.svg"><sodipodi:namedview
     pagecolor="#ffffff"
     bordercolor="#666666"
     borderopacity="1"
     objecttolerance="10"
     gridtolerance="10"
     guidetolerance="10"
     inkscape:pageopacity="0"
     inkscape:pageshadow="2"
     inkscape:window-width="1920"
     inkscape:window-height="1020"
     id="namedview220"
     showgrid="false"
     showguides="true"
     inkscape:guide-bbox="true"
     inkscape:zoom="2.5284424"
     inkscape:cx="140.23263"
     inkscape:cy="250.24299"
     inkscape:window-x="0"
     inkscape:window-y="27"
     inkscape:window-maximized="1"
     inkscape:current-layer="svg2"><sodipodi:guide
       orientation="0,1"
       position="234.92724,286.34229"
       id="guide3839" /><sodipodi:guide
       orientation="1,0"
       position="187.46719,325.10133"
       id="guide3841" /></sodipodi:namedview><metadata
     id="metadata8"><rdf:RDF><cc:Work
         rdf:about=""><dc:format>image/svg+xml</dc:format><dc:type
           rdf:resource="http://purl.org/dc/dcmitype/StillImage" /><dc:title></dc:title></cc:Work></rdf:RDF></metadata><defs
     id="defs6"><clipPath
       id="clipPath30"
       clipPathUnits="userSpaceOnUse"><path
         id="path28"
         d="M 0,792 H 612 V 0 H 0 z"
         inkscape:connector-curvature="0" /></clipPath><clipPath
       id="clipPath204"
       clipPathUnits="userSpaceOnUse"><path
         id="path202"
         d="M 0,792 H 612 V 0 H 0 z"
         inkscape:connector-curvature="0" /></clipPath><clipPath
       id="clipPath220"
       clipPathUnits="userSpaceOnUse"><path
         id="path218"
         d="M 0,792 H 612 V 0 H 0 z"
         inkscape:connector-curvature="0" /></clipPath><clipPath
       id="clipPath236"
       clipPathUnits="userSpaceOnUse"><path
         id="path234"
         d="M 0,792 H 612 V 0 H 0 z"
         inkscape:connector-curvature="0" /></clipPath><clipPath
       id="clipPath252"
       clipPathUnits="userSpaceOnUse"><path
         id="path250"
         d="M 0,792 H 612 V 0 H 0 z"
         inkscape:connector-curvature="0" /></clipPath><clipPath
       id="clipPath268"
       clipPathUnits="userSpaceOnUse"><path
         id="path266"
         d="M 0,792 H 612 V 0 H 0 z"
         inkscape:connector-curvature="0" /></clipPath><clipPath
       id="clipPath284"
       clipPathUnits="userSpaceOnUse"><path
         id="path282"
         d="M 0,792 H 612 V 0 H 0 z"
         inkscape:connector-curvature="0" /></clipPath><clipPath
       id="clipPath300"
       clipPathUnits="userSpaceOnUse"><path
         id="path298"
         d="M 0,792 H 612 V 0 H 0 z"
         inkscape:connector-curvature="0" /></clipPath><clipPath
       id="clipPath318"
       clipPathUnits="userSpaceOnUse"><path
         id="path316"
         d="M 0,792 H 612 V 0 H 0 z"
         inkscape:connector-curvature="0" /></clipPath><clipPath
       id="clipPath334"
       clipPathUnits="userSpaceOnUse"><path
         id="path332"
         d="M 0,792 H 612 V 0 H 0 z"
         inkscape:connector-curvature="0" /></clipPath><clipPath
       id="clipPath350"
       clipPathUnits="userSpaceOnUse"><path
         id="path348"
         d="M 0,792 H 612 V 0 H 0 z"
         inkscape:connector-curvature="0" /></clipPath><clipPath
       id="clipPath364"
       clipPathUnits="userSpaceOnUse"><path
         id="path362"
         d="M 0,792 H 612 V 0 H 0 z"
         inkscape:connector-curvature="0" /></clipPath><clipPath
       id="clipPath380"
       clipPathUnits="userSpaceOnUse"><path
         id="path378"
         d="M 0,792 H 612 V 0 H 0 z"
         inkscape:connector-curvature="0" /></clipPath><clipPath
       id="clipPath422"
       clipPathUnits="userSpaceOnUse"><path
         id="path420"
         d="M 0,792 H 612 V 0 H 0 z"
         inkscape:connector-curvature="0" /></clipPath></defs><rect
     style="fill:#ffffff;fill-opacity:1;stroke:#ffffff;stroke-width:2.83192873;stroke-opacity:1"
     id="rect3843"
     width="369.16806"
     height="369.16806"
     x="1.4159698"
     y="1.4159698"
     inkscape:export-filename="/home/vinicius/Documentos/git_project/viniciusaires7.github.io/images/maratonato.png"
     inkscape:export-xdpi="90"
     inkscape:export-ydpi="90" /><g
     clip-path="url(#clipPath380)"
     id="g376"
     transform="matrix(1.0819959,0,0,-1.0819959,-236.80353,702.74599)"
     inkscape:export-filename="/home/vinicius/Documentos/git_project/viniciusaires7.github.io/images/maratonato.png"
     inkscape:export-xdpi="90"
     inkscape:export-ydpi="90"><g
       transform="translate(435.1307,329.7949)"
       id="g382"><path
         id="path384"
         style="fill:none;stroke:#ffffff;stroke-width:0.5;stroke-linecap:butt;stroke-linejoin:miter;stroke-miterlimit:4;stroke-opacity:1;stroke-dasharray:none"
         d="m 0,0 c -0.02,-0.931 -0.286,-1.572 -0.798,-1.924 -0.513,-0.351 -1.073,-0.527 -1.681,-0.527 -0.383,0 -0.709,0.106 -0.977,0.317 -0.267,0.212 -0.401,0.555 -0.401,1.03 0,0.534 0.219,0.928 0.657,1.182 0.259,0.15 0.686,0.277 1.28,0.381 l 0.633,0.117 C -0.97,0.635 -0.721,0.698 -0.54,0.767 -0.358,0.835 -0.178,0.924 0,1.035 z M -2.656,2.217 C -3.738,2.08 -4.558,1.852 -5.116,1.533 -6.132,0.947 -6.64,0 -6.64,-1.309 c 0,-1.009 0.315,-1.788 0.947,-2.338 0.632,-0.551 1.433,-0.826 2.402,-0.826 0.76,0 1.441,0.173 2.043,0.518 0.504,0.293 0.95,0.648 1.336,1.064 0.02,-0.241 0.046,-0.455 0.078,-0.644 0.033,-0.189 0.091,-0.391 0.176,-0.606 h 3.027 v 0.411 c -0.182,0.084 -0.319,0.191 -0.41,0.322 -0.091,0.13 -0.146,0.377 -0.166,0.742 -0.013,0.482 -0.019,0.892 -0.019,1.23 V 3.447 C 2.774,4.73 2.319,5.602 1.41,6.064 0.501,6.527 -0.538,6.758 -1.709,6.758 -3.507,6.758 -4.775,6.289 -5.514,5.352 -5.978,4.753 -6.24,3.988 -6.299,3.057 h 2.686 c 0.066,0.41 0.198,0.735 0.396,0.976 0.277,0.326 0.749,0.488 1.415,0.488 0.594,0 1.045,-0.083 1.352,-0.249 C -0.144,4.106 0.01,3.805 0.01,3.369 0.01,3.011 -0.19,2.747 -0.59,2.578 -0.813,2.48 -1.184,2.399 -1.702,2.334 z"
         inkscape:connector-curvature="0" /></g><path
       id="path386"
       style="fill:none;stroke:#ffffff;stroke-width:0.5;stroke-linecap:butt;stroke-linejoin:miter;stroke-miterlimit:4;stroke-opacity:1;stroke-dasharray:none"
       d="m 443.178,340.049 h -2.783 v -14.395 h 2.783 z"
       inkscape:connector-curvature="0" /><g
       transform="translate(445.2285,329.0527)"
       id="g388"><path
         id="path390"
         style="fill:none;stroke:#ffffff;stroke-width:0.5;stroke-linecap:butt;stroke-linejoin:miter;stroke-miterlimit:4;stroke-opacity:1;stroke-dasharray:none"
         d="m 0,0 c 0,-1.094 0.399,-1.994 1.199,-2.7 0.799,-0.707 2.037,-1.06 3.713,-1.06 1.644,0 2.859,0.334 3.645,1.001 0.786,0.667 1.179,1.529 1.179,2.583 0,0.801 -0.273,1.468 -0.82,2.002 C 8.363,2.354 7.531,2.747 6.423,3.008 4.76,3.372 3.791,3.629 3.517,3.779 3.242,3.922 3.105,4.154 3.105,4.473 3.105,4.727 3.234,4.948 3.492,5.137 3.75,5.325 4.183,5.42 4.79,5.42 5.527,5.42 6.05,5.231 6.357,4.854 6.52,4.645 6.621,4.362 6.66,4.004 H 9.443 C 9.319,5.306 8.838,6.222 8,6.753 7.161,7.283 6.077,7.549 4.746,7.549 3.343,7.549 2.255,7.196 1.482,6.489 0.709,5.783 0.322,4.938 0.322,3.955 0.322,3.122 0.57,2.484 1.064,2.041 1.559,1.592 2.411,1.217 3.621,0.918 5.301,0.521 6.272,0.241 6.533,0.078 c 0.26,-0.163 0.391,-0.4 0.391,-0.713 0,-0.325 -0.162,-0.57 -0.486,-0.732 -0.324,-0.163 -0.76,-0.244 -1.31,-0.244 -0.935,0 -1.576,0.185 -1.923,0.556 C 3.009,-0.846 2.881,-0.495 2.822,0 z"
         inkscape:connector-curvature="0" /></g><g
       transform="translate(379.0312,507.8149)"
       id="g392"><path
         id="path394"
         style="fill:none;stroke:#b1211c;stroke-width:5.99499989;stroke-linecap:butt;stroke-linejoin:miter;stroke-miterlimit:4;stroke-opacity:1;stroke-dasharray:none"
         d="M 0,0 -8.88,-20.707 H 28.582 L 17.73,0.989 c 0,0 40.431,13.802 49.302,66.052 C 81.119,149.961 -60.335,156.91 -45.359,63.102 -38.77,21.792 -6.711,4.022 0,0 z"
         inkscape:connector-curvature="0" /></g><g
       transform="translate(396.7617,508.8037)"
       id="g396"><path
         id="path398"
         style="fill:none;stroke:#b1211c;stroke-width:5.99499989;stroke-linecap:butt;stroke-linejoin:miter;stroke-miterlimit:4;stroke-opacity:1;stroke-dasharray:none"
         d="M 0,0 C 0,0 40.431,16.761 39.451,-1.976 38.6,-17.999 8.881,-3.944 0,0 z"
         inkscape:connector-curvature="0" /></g><g
       transform="translate(376.0713,506.8276)"
       id="g400"><path
         id="path402"
         style="fill:none;stroke:#b1211c;stroke-width:5.99499989;stroke-linecap:butt;stroke-linejoin:miter;stroke-miterlimit:4;stroke-opacity:1;stroke-dasharray:none"
         d="M 0,0 C 0,0 -28.599,13.806 -36.487,0.987 -44.376,-11.831 -9.866,-11.831 0,0 z"
         inkscape:connector-curvature="0" /></g><g
       transform="translate(456.2061,458.1431)"
       id="g404"><path
         id="path406"
         style="fill:#b1211c;fill-opacity:1;fill-rule:evenodd;stroke:none"
         d="m 0,0 h -130.894 c -14.05,0 -25.439,-11.452 -25.439,-25.578 v -93.979 c 0,-14.124 11.389,-25.576 25.439,-25.576 h 3.547 c 59.356,19.615 104.042,52.498 106.326,85.806 2.278,33.323 -39.53,59.317 -39.53,59.317 h 9.488 c 39.858,-28.759 49.354,-60.695 24.863,-92.584 -0.138,-0.177 -0.272,-0.355 -0.408,-0.531 -24.51,-31.264 -76.227,-51.548 -77.463,-52.008 H 0 c 14.054,0 25.446,11.452 25.446,25.576 v 93.979 C 25.446,-11.452 14.054,0 0,0"
         inkscape:connector-curvature="0" /></g><g
       transform="translate(405.1426,458.1504)"
       id="g408"><path
         id="path410"
         style="fill:#b1211c;fill-opacity:1;fill-rule:evenodd;stroke:none"
         d="m 0,0 c 0,0 -15.467,7.925 -18.029,26.72 l -6.336,0.24 c 0,0 0.469,-16.708 15.132,-26.96 z"
         inkscape:connector-curvature="0" /></g></g><path
     inkscape:connector-curvature="0"
     style="fill:#b1211c;fill-opacity:1;fill-rule:evenodd;stroke:#ffffff;stroke-width:0.15527536;stroke-miterlimit:4;stroke-opacity:1;stroke-dasharray:none"
     d="m 157.52673,101.59279 0.13993,-0.27442 -0.0127,-0.3447 0.19216,-0.26705 0.0769,-0.21525 -0.005,-0.17716 0.0888,-0.18567 0.0228,-0.0692 0.21119,-0.113921 0.10448,-0.12094 0.13845,-0.431622 0.0474,-0.34249 0,-0.003 -0.0873,-0.1779 0,-0.006 0.022,-0.17975 -0.0474,-0.33249 0.0205,-0.17272 0.0366,-0.15831 0.0127,-0.0259 0.16755,-0.0632 0.0806,-0.26555 0.20149,-0.15127 0.0287,-0.0218 0.01,-0.0225 0.0862,-0.19269 -0.0238,-0.28738 -0.0705,-0.12871 -0.002,-0.3473 -0.0858,-0.21784 0.0544,-0.17457 -0.15037,-0.38724 0.12798,-0.20823 0.25299,-0.20638 0.009,-0.20564 -0.0586,-0.12501 -0.16681,-0.098 -0.0351,-0.28959 0.0549,-0.0939 0.0671,-0.1154 -0.006,-0.13204 0.0597,-0.0662 0.1377,-0.0196 0.0298,-0.0229 0.0332,-0.17161 0.23247,-0.39834 -0.0851,-0.22413 0.01,-0.16495 -0.0832,-0.13944 -0.0228,-0.0384 -0.0209,-0.21415 -0.18023,-0.14498 -0.008,-0.14794 0,-4.1e-4 0.24702,-0.19751 0.13806,-0.26999 0.0918,-0.11466 0.10708,-0.0233 0.13172,0 0.0657,-0.0481 0.069,-0.28663 0.14068,-0.21489 -0.0392,-0.25446 0.0959,-0.17383 -0.0134,-0.24448 0.18582,-0.11021 0.13246,-0.007 0.078,-0.0599 -0.0623,-0.2589 0.16755,-0.74008 0.30112,-0.156451 0.0854,-0.187513 0.19403,-0.129083 0.0754,-0.09764 -0.0623,-0.20675 0.004,-0.09394 0.21269,-0.544798 0.0843,-0.349513 0.1821,-0.370227 0.004,-0.01329 -0.0836,-0.549237 -0.0888,-0.04733 -0.022,-0.07989 0.0784,-0.352476 0.16977,-0.273692 0.21793,-0.190105 0.056,-0.203422 0.17537,-0.190471 0.32426,-0.17938 0.11604,-0.1202 0.0993,-0.226727 0.0425,-0.296623 0.15074,-0.235229 -0.0119,-0.181964 0.13918,-0.241889 0.0343,-0.306977 0.24255,-0.4368 0.21716,-0.202685 -0.0209,-0.09801 0.0284,-0.05251 0.0164,9.12e-4 0.0686,-0.07841 0.0384,-0.250389 0.12537,-0.261857 0.0698,-0.376517 0.43321,-0.539618 0.0254,-0.157558 0.0959,-0.04439 0.01,-0.245213 0.11942,-0.237442 0.0127,-0.31697 0.14515,-0.09246 0.078,-0.147568 0.15149,-0.149425 0,-0.255197 0.0459,-0.114659 0.16455,-0.200089 -0.0548,-0.230791 -0.16268,-0.204158 7.5e-4,-0.04808 0.0765,-0.04993 -0.0462,-0.125754 0,-0.166064 0.17985,-0.514101 0.29104,-0.361345 0.0828,-0.245587 0.0675,-0.08432 -0.0351,-0.35654 0.007,-0.03774 -0.003,-0.05141 0.0556,-0.25372 0.0329,-0.06583 0.1209,-0.211928 0.2209,-0.09616 0.16715,-0.146093 0.12949,-0.406472 0.33023,-0.03809 0.26829,-0.351731 0.4235,-0.31734 0.0291,-0.09986 -0.0571,-0.138321 0.15598,-0.115765 0.30299,-0.465649 0.13134,-0.284418 0.11269,-0.244477 0.004,-0.143134 0.0918,-0.227458 0.57911,-0.561813 0.14366,-0.203417 0.12611,-0.277021 0.19329,-0.194178 0.11195,-0.185296 0.18806,-0.07989 0.53097,-0.502636 0.5071,-0.114655 0.34142,-0.0055 0.23993,-0.07915 0.0925,-0.189735 0.24143,-0.278868 0.24553,-0.447524 0.63507,-0.814052 0.0952,-0.214517 0.12314,-0.300695 0.11231,-0.151642 0.12277,-0.265926 0.49217,-0.381682 0.11045,-0.248546 0.0108,-0.137215 0.0966,-0.672398 0.0925,-0.17753 0.0787,-0.227463 0.32687,-0.433101 0.0586,-0.03957 0.36866,-0.142018 0.21456,-0.134627 0.14031,-0.139071 0.15746,-0.425334 0.0586,-0.23597 0.13432,-0.612477 0.20448,-0.452333 0.16941,-0.311416 0.0743,-0.137219 0.0746,-0.219691 0.0675,-0.416457 -0.0411,-0.205268 0.0705,-0.19972 0.0238,-0.210081 0.0515,-0.100232 0.008,-0.0055 0.0137,-0.02441 0.13619,-0.0921 0.0254,-0.03587 0.0403,-0.128717 0.0336,-0.394263 -0.0276,-0.137959 -0.0758,-0.378359 0.14665,-0.260381 0.063,-0.326949 0.0179,-0.309569 -0.0589,-0.541841 0.008,-0.06065 0.0257,-0.191215 0.094,-0.130189 0.0806,-0.135737 -0.005,-0.09431 -0.12015,-0.12686 -0.16082,-0.054 -0.34106,-0.143874 -0.21343,-0.151267 -0.22314,-0.244843 -0.28359,-0.202681 -0.38545,-0.316966 -0.31604,-0.172354 -0.11866,-0.137955 -0.0992,-0.149425 -0.22762,-0.497822 -0.037,-0.08063 -0.21082,-0.48451 -0.0265,-0.271842 0.0716,-0.551824 0.13247,-0.144245 0.23136,-0.264075 0.32611,-0.356169 0.41829,-0.506701 0.17686,-0.17901 0.0433,-0.06621 0.13545,-0.20823 0.27052,-0.277391 0.18395,-0.329171 0.10822,-0.316965 0.25448,-0.417198 0.0246,-0.241145 -0.0314,-0.250022 -0.0937,-0.744887 0.0291,-0.64392 -0.006,-0.09727 -0.0179,-0.304759 -0.0228,-0.169026 -0.16531,-0.507812 -0.0724,-0.08506 -0.0246,-0.167546 0.0339,-0.271841 0.0601,-0.150906 0.30299,-0.205639 0.0526,-0.11539 0.0896,-0.05992 0.25411,-0.04808 0.41642,-0.221912 0.35971,-0.298845 0.0187,-0.01294 0.46791,-0.323992 0.12351,-0.15534 0.1709,-0.214887 0.59665,-0.05067 0.30187,-0.133146 0.0414,-0.02181 0.1347,-0.04512 0.16867,-0.06399 0.4597,-0.05363 0.2989,-0.04549 0.11716,0.02034 0.1694,0.02998 0.1347,-0.01699 0.43322,-0.184556 0.0272,-0.01664 0.16754,-0.155711 0.28732,-0.335457 0.59516,-0.152011 0.25746,-0.199719 0.11232,-0.142398 0.0403,-0.125379 -0.004,-0.32732 -0.14366,-0.486733 0.0119,-0.14979 0.062,-0.215257 0.13508,-0.183075 0.005,-0.175312 0.17015,-0.246694 0.0634,-0.114284 0.15821,-0.286269 0.56941,-0.453073 0.15672,-0.07878 0.0538,-0.03587 0.19516,-0.183819 0.081,-0.189365 0.19329,-0.218214 0.0877,-0.04734 0.62164,0.0031 0.27613,0.06806 0.29516,0.200464 0.1985,0.06472 0.0161,-0.0466 0.0713,-0.338048 -0.0627,-0.192323 -0.0507,-0.06917 -0.17949,-0.113544 -0.14216,-0.102819 -0.0601,-0.08766 -0.002,-0.107258 0.0541,-0.09542 -0.0743,-0.153489 -0.0731,-0.404251 -0.0709,-0.20712 -0.0627,-0.266296 0.0534,-0.188994 0.14366,-0.163847 0.13656,-0.116136 0.20112,-0.07878 0.30525,0.0081 0.36715,-0.121681 0.34292,-0.217104 0.15859,-0.169397 0.0881,-0.190475 0.0179,-0.0736 -0.031,-0.130929 -0.19179,-0.271105 -0.36381,-0.105778 -0.0548,-0.07915 -0.0145,-0.125383 0.0459,-0.194174 0.15709,-0.220432 0.17016,-0.125009 0.1791,-0.07435 0.47352,-0.09542 0.24067,-0.166805 0.0153,-0.236335 -0.0183,-0.08359 -0.0105,-0.02146 -0.10486,-0.174937 -0.0474,-0.06954 -0.33134,-0.346185 -0.13582,-0.197502 -0.0451,-0.08137 -0.0339,-0.109479 -0.094,-0.563656 0.005,-0.04251 0.0567,-0.296622 0.0638,-0.172721 0.0933,-0.121315 0.10336,-0.07212 0.62164,0.03145 0.2265,-0.06103 0.0828,-0.03921 0.0735,-0.03475 0.15821,-0.08729 0.0202,-0.01111 0.14292,-0.242991 0.2485,-0.469719 0.0481,-0.115394 0.0384,-0.22931 -0.0702,-0.181228 -0.43396,-0.309198 -0.0261,-0.0174 -0.15,-0.04771 -0.0593,-0.09024 -0.21157,-0.10393 -0.18807,-0.03698 -0.0455,0.0078 -0.34554,-0.04327 -0.20373,-0.08987 -0.14814,-0.122791 -0.11231,-0.08174 -0.20783,-0.256308 -0.0858,-0.08692 -0.0306,0.03404 0.009,-0.113914 -0.16269,-0.233008 -0.0134,-0.205273 -0.0489,-0.137585 -0.0257,-0.04882 -0.11269,-0.143871 -0.11455,-0.07471 -0.008,-0.0059 -0.0608,-0.138325 -0.13358,-0.09986 -0.10374,0 -0.0937,0.107998 -0.21455,-0.01851 -0.26306,0.07397 -0.0709,0.01258 -0.0671,0.01775 -0.13172,0.01811 -0.14179,0.07545 -0.17761,0.08507 -0.22725,0.04327 -0.55373,-0.151642 -0.40038,0.05881 -0.14552,-0.02217 -0.30113,-0.115025 -0.17238,-0.238928 -0.0806,-0.05621 -0.35597,-0.07212 -0.42873,-0.01887 -0.0418,-0.0414 -0.12799,0.01811 -0.0306,-0.0063 -0.13955,-0.05769 -0.0717,-0.07841 -0.0377,-0.07323 -0.005,-0.08987 0.16866,0.04251 0.12426,-0.05659 0.19963,0.05437 0.0314,-0.01035 0.0765,-0.08248 0.0623,-0.288485 0.0821,-0.09912 0.15187,-0.06879 0.33097,0.0662 0.15187,0.100231 0.10112,0.152378 0.21008,0.06399 0.0735,-0.02257 0.26045,-0.295882 0.18433,-0.3325 0,-0.23634 0.0746,-0.227833 0.0142,-0.154594 0.009,-0.01071 0.25187,-0.286268 0.23171,-0.14979 0.39218,0.01958 0.2388,-0.09801 1.21046,-0.200094 0.12724,0.06436 0.38171,0.322886 0.31606,0.03033 0.25038,0.140547 0.35933,0.115396 0.19142,0.101338 0.0187,0.01294 0.21865,0.157557 0.1918,0.05178 0.1388,0.08691 0.82874,0.06916 0.3459,0.09801 7.6e-4,-4.15e-4 0.3556,-0.104666 0.41232,-0.326584 0.0966,-0.03364 0.0369,-0.0081 0.1474,0.01071 0.3776,0.04845 0.24665,0.01182 0.0466,0.0022 0.57315,0.231901 0.13768,0.146093 0.0623,0.251128 0.0194,0.10319 0,0.01851 -0.007,0.444566 0.28246,0.391675 0.19217,0.121681 0.40895,-0.02182 0.29143,-0.07619 0.30933,0.03623 0.66829,0.368746 0.225,0.106518 0.56978,0.445306 0.45075,0.12057 0.19404,-0.08063 0.10372,0.03034 0.65412,0.702355 0.19963,0.46084 -0.0134,0.360238 0.056,0.305871 0.0238,0.159774 0.0466,0.312901 -0.22948,0.564026 -0.004,0.240408 0.1112,0.294776 0.003,0.0089 0.1567,0.181597 0.3336,0.690516 0.0526,0.318076 0.0802,0.13278 0.006,0.777436 -0.20634,0.674246 0.10895,0.233007 0.1209,0.295513 -0.007,0.121315 -0.0261,0.215627 -0.0374,0.310304 0.0358,0.318447 0.17575,0.675727 0.17911,0.368746 0.19068,0.248171 0.0522,0.23116 0.005,0.02034 0.0205,0.223024 -0.0459,0.117982 -0.31568,0.599536 -0.0287,0.147939 -0.003,0.374295 -0.0929,0.294776 -0.13582,0.278497 -0.007,0.01481 -0.01,0.103565 0.18845,0.57549 0.002,0.0063 -0.0974,0.136104 -0.004,0.0036 -0.0462,0.03845 -0.32238,0.446414 -0.0276,0.133521 -0.0202,0.131294 -0.0452,0.286268 0,0.0031 0.002,0.02182 0.01,0.198979 -0.0295,0.09062 -0.1295,0.245213 -0.25857,0.449005 0.0634,0.217474 -0.0224,0.06694 -0.0134,0.0418 -0.004,0.103559 0.0298,0.551455 -0.26715,0.415346 -0.1418,0.471199 0.005,0.05658 0.0197,0.03181 0.0716,0.02998 0.15932,0.369852 0.0134,0.299584 -0.0205,0.113174 -0.2597,0.455666 -0.004,0.358017 -0.0664,0.128711 -0.091,0.242626 -0.0374,0.07804 -0.0873,0.123163 -0.24925,0.293294 -0.23545,0.135739 -0.28097,0.343223 -0.1071,0.35691 -0.20111,0.258529 -0.18844,0.09061 -0.17537,-0.04251 -0.22351,-0.12612 -0.16531,0.0067 -0.0981,0.04956 -0.34105,0.243362 -0.0503,0.119834 -0.005,0.219696 0.0421,0.115025 0.1112,0.181968 0.0149,0.01847 0.52725,0.234488 0.19701,0.25187 0.26754,0.474897 0.0384,0.03623 0.0213,0.01111 0.0601,0.0092 0.0452,-0.0018 0.12799,-0.04808 0.23247,-0.336937 0.15149,-0.07878 0.0649,-0.01517 0.5586,0.01923 0.0396,0.0137 0.45896,0.31623 0.19888,0.333238 0.0563,0.170504 -0.0907,0.35617 -0.25858,0.197872 -0.0586,0.03216 -0.60635,0.235965 -0.16044,0.108369 -0.15859,0.275544 0.32687,0.122422 0.15262,-0.122056 0.25037,-0.07841 0.1056,-0.0096 0.18433,0.05326 0.0497,0.119835 0.0302,0.379469 0.20933,0.152012 0.002,0.396485 0.0579,0.08729 0.078,-0.02329 0.0847,-0.141654 0.26641,0.02552 0.13359,0.0503 0.0396,0.06288 -0.0119,0.125384 -0.078,0.07915 -0.0813,0.08285 0.002,0.01146 0.14814,0.05696 0.0604,0.01775 0.16231,0.01 0.0392,0.02405 0.0679,0.07582 0.002,0.01294 -0.0716,0.161625 0.26157,0.150531 -0.002,0.223024 -0.0515,0.163107 0.002,0.06139 0.0534,0.187147 0.19888,0.0207 0.15262,-0.105407 -0.0142,-0.05733 -0.13433,-0.07656 -0.0963,-0.118357 0.009,-0.04734 0.16455,-0.04956 0.0392,0.02329 0.0761,0.143876 0.15037,0.06694 0.14665,0.210819 0.10895,0.06583 -0.0709,0.04882 -0.11082,-0.01958 -0.0963,0.04586 0.0795,0.08248 -0.0298,0.04697 0.0238,0.08396 0.34292,0.04513 -0.002,0.152007 -0.0388,0.01923 -0.0538,-0.06251 -0.0653,0.03734 0.0232,0.05806 0.0963,0.08211 -0.10821,0.04771 0,0.004 0.0276,0.143504 0.0485,0.03069 0.0839,0.02516 0.0966,-0.08137 0.12911,0.08211 0.10521,-0.0455 0.0314,0.04439 -0.0164,0.116135 0.1306,-0.0418 -7.6e-4,0.08359 -0.0645,0.152753 0.0925,-0.06324 0.0388,0.03921 0.11195,-0.0089 -0.10448,0.07767 0.11232,0.195285 -0.0224,0.04697 0.0772,0.0969 -0.0727,0.08063 0.14067,0.03698 -0.1306,0.05696 0.0224,0.07508 0.0601,-0.01699 0.0582,0.06694 0.0548,-0.0344 -0.0582,0.08544 0.13022,0.03252 0.0963,0.09875 0.10448,-0.0052 -0.01,0.06029 0.0817,0.0063 -0.005,0.05548 0.053,0.04956 0.10971,-0.07249 0.002,0.17235 0.14963,-0.0174 -0.0653,0.06509 0.056,0.108369 0.14029,0.09986 0.0727,0.133886 0.0388,0.0344 0.13321,0.01071 -0.0295,0.211558 0.0497,0.145722 0.11082,-0.03881 0.0735,0.03698 0.0474,-0.03734 0.0593,0.198613 0.10971,-0.02217 -0.10299,0.182708 0.0433,0.07767 0.0772,-0.07027 0.0444,0.01553 -0.0329,0.07767 0.0366,0.06288 -0.0589,0.03292 0.10523,0.126119 -0.10299,0.125754 0.2571,-0.02922 0.26604,0.19639 0.0384,0.267408 0.0952,0.09357 -0.0298,0.06879 0.10224,0.06066 0.0161,0.07878 0.22426,0.03734 0.0444,0.04327 0.0743,-0.03292 0.0709,0.05326 0.0769,-0.05363 0.01,0.102079 0.0452,0.01071 0.097,-0.227088 0.0858,0.03105 0.0205,-0.05806 0.20635,-0.07139 -0.0388,-0.05585 0.13956,-0.100232 -0.0254,-0.113178 0.0361,-0.116132 0.0462,0.0207 0.0455,-0.03623 0.0503,-0.09912 0.2097,-0.0577 0.0269,0.03957 -0.0168,-0.116872 0.0538,-0.04251 0.10523,-0.01517 0.0497,0.07545 0.10634,0 0.0817,-0.139066 0.0784,-0.02217 0,-0.106518 0.11717,-0.09986 0.0396,0.01 -0.0202,0.06213 0.0571,0.08913 0.0869,-0.107999 0.097,-0.03216 0.081,0.09357 0.0474,0.0022 0.0213,-0.07027 0.0821,0.04251 0.23919,-0.130559 0.0142,0.0031 0.0392,-0.01147 4.2e-4,0 0.0526,-0.01592 0.022,0.06436 0.0925,-0.0244 0.037,-0.07324 0.031,0.05548 0.0377,-0.0055 0.0194,-0.07397 0.0937,-0.02293 0.0664,-0.08803 0.0101,0.03587 0.0485,9.11e-4 0.0847,-0.192322 0.11195,0.05104 0.0556,-0.04439 0.0541,0.01887 0.0545,-0.06583 0.0746,0.054 0.0526,-0.100969 0.10709,-0.0092 0.0541,-0.04956 0.13545,0.08063 0.13657,-0.04808 0.14477,0.02034 0.0601,-0.121681 0.0899,-0.04104 0.11754,0.09764 0.11679,-0.02775 0.12091,-0.09246 0.0503,-0.0048 0.25598,-0.02405 0.1,0.04771 0.0638,0.0699 0.1,0.02369 0.0754,0.09431 0.0444,-0.02146 0.11717,0.07138 0.0507,0.06583 0.005,0.147202 0.0981,0.127231 0.0664,-0.0096 0.29702,0.122055 0.31494,0.265186 0.0735,0.150531 -0.005,0.100968 0.056,0.05326 0.056,0.05326 -0.0302,0.323251 -0.004,0.03551 0.0191,0.108369 0.13693,0.166064 -0.0108,0.147939 -0.0343,0.06954 -0.14179,0.04251 -0.0802,0.109846 -0.0336,0.210083 -0.26306,0.591768 -0.005,0.01182 0,0.03957 0.0291,0.102083 0.0243,0.03145 0.13768,0.0418 0.12985,0.170513 -0.0287,0.09394 -0.14851,0.143875 -0.0784,0.20231 0.0179,0.39168 -0.1582,0.2404 -0.15299,0.10948 -0.12725,0.220061 -0.16791,0.06917 -0.23731,-0.02628 -0.13918,0.06103 -0.19179,0.0027 -0.33658,-0.106884 -0.28881,0.161996 -0.22014,0.03992 -0.0847,0.09357 -0.25298,0.08248 -0.0702,0.127601 -0.1056,0.07212 -0.0612,0.167915 -0.002,0.0055 -0.0497,0.02998 -0.0172,-0.0027 -0.072,-0.09543 -0.0232,-0.0074 -0.12501,-0.02846 -0.1179,0.04623 -0.25113,-0.121685 -0.0485,0.07471 -0.002,0.09173 -0.0601,0.04586 0.0713,0.107999 -0.0153,0.04363 -0.0944,0.06731 -0.14031,-0.06879 0.0959,0.161626 -0.0104,0.116876 0.0489,0.08507 -0.0769,0.164583 0.0642,0.03105 -0.22463,0.278131 -0.062,-0.05733 -0.0503,0.100232 -0.004,-0.0014 -0.0825,-0.104665 -0.0332,0.04845 -0.0638,-0.04033 -0.007,0.09246 -0.11568,0.0455 0.0235,0.124268 -0.006,0.0048 0.0366,0.153123 -0.0552,0.02699 0.0485,0.08433 -0.062,0.05843 0.1041,0.08137 -0.0884,0.03516 0.0455,0.07286 0.003,0.0048 -0.005,0.0211 -0.0582,0.03292 -0.009,0.07102 -0.0806,0.02516 -0.005,0.0014 0.007,0.02552 0.0137,0.04697 -0.0538,0.08877 -0.14926,-0.04439 0.0302,0.08729 -0.0478,0.0092 0.0254,0.04697 -0.0462,-0.02293 -7.6e-4,0.06584 -0.006,0.0078 -0.0478,-0.05955 -0.0675,0.119098 -0.009,-0.03662 -0.009,-0.03698 -0.0302,-0.0014 -0.006,0.09209 -0.0503,-0.01958 0.003,0.07841 -0.0556,0.03328 0.0302,0.04216 -0.005,0.01111 -0.10484,-0.0022 -0.0579,-0.04771 0.0134,0.06176 -0.0437,0.04623 0.069,-0.0022 0.009,0.03475 0.069,-0.03292 0.0739,0.06177 -0.0571,0.0281 0.0563,0.01958 -0.0109,0.03587 -0.0787,0.0074 0.041,0.05178 -0.0369,0.03734 -0.0339,-0.0281 0.008,0.06731 -0.0548,-0.0036 0,0.08692 -0.0616,0.07138 0.0642,0.07952 -0.056,0.102079 0.1209,0.0699 0.0421,-0.0133 -0.015,0.09986 0.097,-0.02329 -0.006,0.06472 0.0836,0.05289 0.0261,0.196021 -0.0452,0.05548 -0.11642,0.03809 -0.16269,0.165693 0.004,0.162367 -0.038,0.04327 -0.063,0.01811 -0.0717,-0.04992 -0.0317,0.03921 0.0761,0.204907 0.0817,0.08285 0.008,0.130924 0.0918,0.0244 -0.0202,0.04993 0.0586,0.06177 0.0433,0.197497 -0.0459,0.06658 0.0443,0.211184 -0.12873,0.0969 0.0758,0.06584 -0.0298,0.08026 -0.0265,0 -0.0265,-4.14e-4 -0.0452,0.05252 -0.003,0.0466 0.0575,0.04882 -0.0485,0.09395 -0.0325,0.01628 -0.25149,0.02663 -0.16717,0.162362 -0.0478,0.02516 -0.0694,-0.09135 -0.12239,9.11e-4 -0.0421,0.0133 -0.15485,0.123532 0.0765,0.105407 -0.0339,0.04956 0.0481,0.04068 -0.0179,0.03069 0.0425,0.04956 0.0847,9.11e-4 0.0631,0.134627 -0.14291,0.06435 -0.0183,0.139807 -0.15559,0.0085 0.0284,0.151272 -0.19627,0.01258 -0.0209,0.06694 -0.0623,0.0078 0.0593,0.159778 -0.025,0.114284 -0.0735,0.04882 0,0.08581 -0.12089,0.0067 0,-0.09876 -0.0462,-0.01182 0.0388,0.08617 -0.0765,0.172354 -0.0612,0.06917 -0.21344,0.0096 -0.0761,0.05104 0.14216,0.08026 0.0929,-0.02329 -0.002,0.0577 0.0564,0.01294 0.006,0.04251 -0.13022,0.0921 0.0287,0.05326 -0.0265,0.108734 -0.0881,-3.69e-4 0.047,0.05622 -0.12128,0.03587 -0.009,0.09246 0.24068,0.08729 0.0325,-0.03292 0.13396,0.01111 0.12761,0.0773 0.15821,-0.06731 -0.0403,0.09099 0.0743,0.04845 0.0821,-0.0085 0.0202,-0.05992 0.14217,9.11e-4 0.12761,0.06176 0.38955,-0.202316 0.24067,0.02588 0.12464,0.188254 -0.081,0.05216 -0.12873,-0.03587 -0.007,0.007 0.025,0.09209 -0.0269,0.03662 0.0832,0.02588 -0.0795,0.09468 0.0482,0.136848 -0.0627,0.03698 0.0235,0.119464 0.0377,0.0466 0.10224,-0.03328 0.12948,0.03993 0.0903,-0.107629 0.0545,-0.03921 0.022,0.007 0.0276,0.03627 -0.0239,0.136844 0.0235,0.03069 0.0866,0.02698 0.25933,0.03734 0.10298,0.09431 0.0545,0.159037 -0.0538,0.2123 0.0197,0.06731 0.13507,0.06731 0.13583,-0.03885 0.0597,0.05622 0.0373,0.147203 -0.0858,0.137584 -0.0238,0.196392 0.11791,0.234493 -0.0452,0.07322 -0.10635,0.0281 -0.0119,0.1276 -0.14067,0.054 -0.0287,0.09653 0.0414,0.102816 0.0978,0.08248 0.19589,-0.05584 0.069,0.02922 0.0526,0.170507 0.11045,0.215623 0.18732,0.143505 0.0433,0.08729 0.1347,0.08211 0.11381,0.184186 -0.0847,0.246324 0.0295,0.07914 0.20523,0.06399 0.0589,-0.02775 0.0366,-0.08396 0.17351,-0.09986 0.30486,0.02034 0.26791,-0.0858 0.10596,0.01329 0.17017,0.166065 0.22276,0.06472 -0.13023,0.09395 -0.0493,0.0884 -0.0194,0.198979 0.0612,0.08655 0.19888,0.167175 0.16754,-0.0052 0.15336,0.06103 0.0858,0.141283 0.23656,-0.05548 0.14552,0.0736 0.0209,0.105042 -0.19627,0.179009 0.002,0.109106 0.20896,0.194914 0.009,0.05696 0.19888,0.130924 0.0314,0.08914 -0.49106,0.308458 -0.14514,0.0344 -0.002,0.22376 -0.16978,0.282571 -0.009,0.254831 -0.0731,0.163473 -0.47687,0.323995 0.0914,0.271471 -0.0216,0.161626 0.0153,0.03627 0.0399,0.09432 0.041,0.02886 0.13955,0.05548 0.37127,-0.01628 0.23657,0.126124 0.0802,0.137584 -0.0172,0.133516 -0.10485,0.179011 0.0314,0.10356 0.17239,0.06472 0.23769,-0.0045 0.35783,-0.133146 0.0855,0.175678 0.13358,0.157927 -0.0273,0.209337 0.0131,0.01699 0.17202,0.100232 -0.11606,0.06916 -0.0179,0.104666 0.22202,0.08655 0.0246,0.24152 -0.0493,0.08581 -0.004,0.01699 -0.0396,0.20046 0.15262,0.154599 -0.13359,0.18419 0.0608,0.245584 -0.0675,0.171609 0.24255,0.348037 0.006,0.370593 0.002,0.0036 0.0269,0.06842 0.0955,0.228943 0.0261,0.02774 0.24478,0.0344 0.0515,0.02699 0.40934,0.433841 0.005,0.0067 0.18955,0.568465 0.23209,0.04992 0.24552,0.124643 0.17127,-0.1276 0.1377,0.06472 0.33657,0.03845 0.38097,-0.114284 0.35411,-0.02552 0.1041,0.04957 0.0896,0.101709 0.0739,0.08469 0.24739,0.25335 0.0325,0.0174 0.3403,-0.07656 0.42836,0.07656 0.57837,-0.366158 0.1403,-0.05806 0.12724,0.0014 0.0597,0.07619 0.0649,0.669071 0.16791,0.24077 0.0862,-0.124268 0.26382,-0.02293 0.32611,0.119459 0.005,0.0014 0.23918,-0.09875 0.56718,-0.128341 0.41007,0.233752 0.58583,0.09838 0.58844,-0.325103 0.12052,-0.133146 0.0832,-0.252244 -0.0884,-0.258899 -0.009,-0.151267 0.0989,-0.179381 0.0444,-0.01847 0.0832,0.136104 0.19627,-4.1e-4 -0.003,0.03845 -0.008,0.09764 -0.0679,0.115025 0.0922,0.318813 -0.0115,0.277761 0.0358,0.217849 -0.0172,0.06879 -0.0955,0.0773 -0.10523,0.168281 -0.11307,0.383909 -0.17051,0.295516 -0.15001,0.112063 -0.49441,0.0078 -0.1638,0.0503 -0.1862,0.08322 -0.0265,0.02293 -0.0399,0.05769 -0.0156,0.06103 -0.0172,0.210818 0.12014,0.160144 0.007,0.03034 -0.0899,0.300688 -0.078,0.0544 -0.3612,-0.02 -0.275,0.12465 -0.14963,0.13315 -0.0713,0.15053 -0.47762,0.30808 -0.17799,0.11466 -0.10783,0.22118 -0.15336,0.017 -0.12053,0.0747 -0.2515,0.002 -0.11193,0.0732 -0.0325,0.28515 -0.34553,0.0791 -0.0347,0.008 0.005,0.22265 -0.0787,0.11614 -0.12911,0.044 -0.21977,-0.0296 -0.004,0.003 -0.22911,0.16606 -0.26082,0.0388 -0.22538,0.0899 -0.10708,-0.10171 -0.0455,-0.0152 -0.2209,0.0769 -0.0153,0.0614 -0.14591,0.11872 -0.11193,0.0913 0.002,0.0825 0.0355,0.0596 0.20001,0.21266 0.0332,0.0596 -0.005,0.0769 -0.0478,0.33065 -0.28695,0.14905 -0.41007,0.28923 0.0175,0.0607 0.26455,0.0532 -0.0224,0.32436 -0.0515,0.12132 -0.18918,0.10541 -0.30858,0.11575 -0.0679,0.0706 -0.0989,0.21415 -0.0709,0.18493 0.003,0.084 0.1444,0.31327 7.6e-4,0.10836 -0.40149,0.24448 -0.1347,0.17642 -0.37651,0.2245 -0.0888,0.0965 -0.11717,0.1276 -0.24851,0.15868 -0.0392,0.0614 -0.0462,0.23522 -0.1847,0.19085 -0.29291,0.63393 -0.0127,0.0277 -0.069,0.74933 -0.22462,0.41054 -0.18657,0.16273 -0.14403,0.0222 -0.96792,0.46713 -0.32612,0.10762 0.11791,0.11133 -0.11269,0.226362 -0.0937,0.0555 0.0134,0.149791 0.0713,0.0718 0.0538,0.15867 0.044,0.29736 0.1821,0.22598 0.22351,0.0725 0.0142,0.005 0.0466,0.021 0.15336,0.0692 0.005,0.32474 0.0485,0.0603 0.19665,0.10503 0.0347,0.12095 -0.0191,0.38946 0.0806,0.20563 0.0907,0.0806 0.12015,0.10689 0.1888,0.0654 0.0825,0.13241 0.12835,0.0255 0.12016,-0.0492 0.1515,0.003 0.21865,0.13389 0.11642,0.15422 0.0694,0.0322 0.11232,-0.01 0.10933,-0.0736 0.14553,-0.005 0.23992,0.0144 0.16344,0.10874 0.38843,-0.0633 0.27911,0.13943 0.23135,0.0706 0.13619,-0.008 0.11007,0.0418 0.1571,0.0592 0.17314,0.13834 0.0396,0.0466 0.0567,0.1705 0.12687,0.0817 0.18619,0.0414 0.0974,-0.0314 0.14702,-0.0473 0.094,0.0917 0.0164,7.6e-4 0.18806,0.0103 0.16717,-0.0459 0.0907,0.0304 0.28545,0.0954 0.0497,0.0411 0.0522,0.0429 -0.0101,0.0333 0.0515,0.13056 -0.0452,0.0766 -0.53471,0.044 -0.0179,0.007 -0.24068,0.11762 -0.25336,-0.0569 -0.11156,0.0429 -0.43658,-0.12945 -0.40858,-0.27628 -0.053,0.017 -0.0593,0.0196 -0.13732,-0.0118 -0.16715,0.0636 -0.15561,-0.0392 -0.10335,0.0532 -0.0187,0.0273 -0.002,0.14535 0.0866,0.10726 0.0735,0.0913 0.0787,0.20083 -0.006,0.19011 -0.008,0.0122 -0.15299,0.0954 -0.24142,0.38983 -0.43582,0.0991 -0.0862,0.0636 0.0497,0.11095 0.0179,0.003 0.24105,-0.0825 0.0981,0.14868 0.19404,0.0492 -0.0235,0.0862 -0.12837,0.10208 0.0276,0.11355 0.0191,0.0762 -0.0746,0.15792 -0.15411,0.068 0.0112,0.0455 0.0287,0.11576 -0.0929,0.074 -0.15523,-0.0884 -0.0582,0.0229 0.0246,0.2086 -0.0384,0.16607 0.10784,0.18567 0.16791,-0.0222 0.13395,0.0766 0.15711,0.0895 0.10335,0.0211 0.39068,-0.1472 0.23246,0.10244 0.1056,0.047 0.2168,0.0459 0.29254,-0.047 0.14029,-0.12316 0.14441,-0.0492 0.10895,0.0355 0.10524,0.16495 -0.0456,0.10616 -0.20635,0.22856 -0.21232,0.0103 -0.44478,0.20121 -0.46977,0.017 -0.19702,0.0352 -0.25225,0.0762 -0.13097,0.12687 -0.0746,0.0721 -0.15523,0.071 -0.20559,0.26814 -7.6e-4,0.13093 -0.0877,0.0429 -0.17053,0.084 -0.0291,0.16496 0.18433,0.14314 0.002,0.005 0.006,0.0111 0.0213,0.088 -0.10223,0.13056 0.0821,0.12131 -0.0317,0.0729 -0.0153,0.0396 0.2,0.071 0.005,0.002 0.0205,0.1472 -0.0575,0.13242 0.0138,0.14275 -0.063,0.21638 -0.0466,0.0895 -0.12313,0.0721 -0.002,0.0425 0.0366,0.0185 0.0448,0.0226 0.0273,0.0625 -0.0526,0.074 -0.069,0.0958 0.26455,0.0699 0.004,0.17493 0.1,0.10948 -0.0784,0.20416 -0.16529,0.0828 0.007,0.0218 0.16231,0.19085 -0.009,0.10689 -0.0892,0.16458 0.20223,0.0633 0.0817,0.0255 0.24926,0.008 0.01,0.009 0.0604,0.0544 -0.0205,0.0577 -0.24964,0.0751 -0.0623,0.0696 0.0232,0.0725 -0.041,0.0447 0.008,0.078 0.14068,-0.006 0.0903,0.088 0.0966,0.13722 0.1403,0.003 0.2,0.13093 0.12202,0.13536 -0.10224,0.0666 -0.0205,0.15201 -0.10225,0.0921 0.0216,0.0599 0.022,0.0603 0.0967,0.0218 0.0892,-0.0607 0.0224,-0.0152 0.11344,0.0377 0.10522,-0.0204 0.10112,0.13759 0.0877,0.14794 0.0161,0.13499 -0.0705,0.13722 -0.0142,0.40019 0.31903,0.0473 0.53471,-0.24929 0.27239,-0.0295 0.0679,0.10245 -0.002,0.002 -0.0952,0.14239 0.11941,0.21452 -0.10262,0.17272 -0.4862,0.02 -0.29925,0.071 -0.22464,0.11762 -0.11903,0.0118 -0.0101,7.6e-4 -0.0261,0.014 -0.0855,0.27814 -0.0731,0.067 -0.0881,0.0806 0.0799,0.10614 -0.20113,0.44346 0.19628,0.074 0.0243,0.0617 0.002,0.005 0.0254,0.007 0.0922,0.0244 0.0548,0.11429 -0.10373,0.1398 -0.22612,0.13314 -0.10149,0.15757 0.0832,0.0677 -0.005,0.0784 0.11866,0.006 0.1388,0.13056 -0.031,0.26186 -0.15112,0.13463 0.0399,0.10688 0.0109,0.0292 0.0127,0.14831 -0.0978,0.10061 0.004,0.007 0.0575,0.10393 -0.0328,0.1509 0.0996,0.0721 0.0279,0.11281 0.0918,0.11834 -0.1306,0.18161 -0.22948,0.14386 0.097,0.2234 -0.0197,0.19676 -0.13433,0.14165 0.0608,0.14388 -0.14665,0.3558 0.29703,-0.081 0.0478,-0.0906 0.1056,-0.034 0.5474,0.0962 0.26455,-0.17902 0.16306,-0.0174 0.53769,-0.1694 0.1571,0.007 0.1347,0.094 -0.0664,0.0921 -0.34478,0.1313 -0.14515,-0.0355 -0.18583,0.0658 -0.0343,0.091 -0.094,0.0277 -0.0795,0.0814 -0.34478,0.003 -0.16865,0.067 -0.0534,-0.0229 -0.4112,0.12501 -0.038,-0.0329 -0.0862,0.0614 -0.031,-0.0152 -0.25262,0.0976 -0.26642,7.6e-4 -0.0172,0.034 -0.33508,0.0873 -0.11231,-0.0759 0.0604,-0.14388 -0.0944,-0.11392 0.0485,-0.044 0.007,-0.0174 -0.009,-0.15016 0.0325,-0.03 0.0328,-0.0295 0.0254,-0.0962 -0.0109,-0.21451 0.0571,-0.051 -0.0862,-0.0736 0.0705,-0.14204 -0.0612,-0.0311 0.0351,-0.068 -0.0582,-0.0525 0.0351,-0.14906 -0.0955,-0.0595 -0.0239,-0.11169 -0.002,0.0366 -0.0858,-0.0518 -0.16977,0.0251 -0.0806,-0.0414 -0.0295,-0.0152 -7.6e-4,-0.0514 -0.002,-0.0329 -0.0425,0.0162 -0.005,-0.1472 -0.0727,-0.0525 -0.17873,1.25047 -0.0552,0.064 -0.10225,0.009 -0.0216,0.0876 -0.0806,0.32215 -0.26866,-0.002 -1.85264,-0.0122 -1.38173,-0.01 -0.81792,0.39057 -0.0407,0.0666 0.05,0.0692 -0.11007,0.0429 -0.0717,0.189 -0.0702,0.009 -0.0869,0.12833 0.031,0.0492 -0.0306,0.0492 -0.0142,-0.0351 -0.0746,0.0559 0.005,0.13241 -0.005,4.1e-4 -0.16382,0.0185 -0.0273,-0.0588 -0.005,-0.0322 -0.0604,0.0137 -0.0421,-0.0307 0.0142,-0.12315 -0.16455,0.0518 -0.11119,0.16495 -0.10038,0.0207 -0.21455,0.1646 -0.002,0.11502 -0.20411,0.0751 -0.0899,0.13907 -0.11566,0.0118 -0.17612,0.11058 -0.004,0.11725 -0.11307,-0.0403 0,-0.068 -0.0433,0.0215 -0.0985,-0.0304 -0.0593,0.0415 0.004,0.0817 -0.0556,0.10245 -0.11419,0.0581 -0.041,-0.044 -0.15038,0.0699 -0.005,0.034 -0.0705,-0.0259 -0.0668,0.10541 -0.0448,-0.0203 -0.12388,0.0643 -0.0866,-0.0688 -0.0392,0.0588 -0.1,0.017 0.007,0.0529 -0.0541,0.0481 0.0552,0.0888 -0.0851,0.0506 -0.031,-0.0987 -0.0437,-0.0133 -0.0433,-0.0129 -0.0623,0.0333 -0.0332,0.0829 -0.0396,-0.0188 -0.003,-0.10615 -0.11008,0.0803 -0.16977,0.007 -0.0922,0.1065 0.0679,0.0233 -0.007,0.15127 -0.2112,0.088 -0.10746,-0.0496 -0.0664,0.0644 -0.0563,-0.0562 -0.1347,-0.0196 -0.003,-0.005 0.10524,-0.10873 -0.0899,-0.0825 -0.16641,0.0647 -0.17724,-0.01 -0.003,0.002 -0.0649,0.0418 -0.0705,-0.037 -0.0668,0.0174 -0.0246,0.10541 -0.22947,0.0954 0.0287,0.21266 -0.0545,0.0588 -0.17798,0.0381 0.004,0.10503 -0.0933,0.0422 -0.0802,0.16421 -0.0922,-0.0314 0.0507,-0.0696 -0.0933,0.002 -0.0115,-0.0891 -0.20448,0.0299 -0.13245,0.0803 -0.17389,-0.14091 -0.17463,0.0295 -0.18508,-0.14906 -0.0388,-0.0803 -0.0276,7.6e-4 -0.0481,0.0148 -0.0713,0.12722 -0.0698,-0.005 -0.0485,0.0577 0.0156,0.19195 -0.0604,-0.0144 -0.22052,0.10836 -0.10038,0.20268 -0.0276,0.0215 -0.0388,-0.009 -0.0888,-0.11318 0.0347,-0.12686 -0.23359,-0.21525 0.006,-0.0211 0.0601,-0.0759 0.0187,-0.0122 0.19067,-0.0299 -0.053,-0.12872 -0.12613,-0.0469 -0.23021,0.0506 -0.2515,-0.084 -0.008,-0.14202 0.1056,-0.26963 -0.14218,-0.0218 -0.11492,0.0688 -0.1097,0.009 -0.16604,-0.0932 -0.10822,0.0218 -0.0989,0.1006 -0.25672,-0.0954 -0.0638,-0.40722 0.0843,-0.29146 -0.0925,-0.0703 -0.056,-0.005 -0.22538,-0.0189 -0.29664,-0.14018 -0.11418,0.0673 -0.0847,-0.0702 -0.0142,0.1154 -0.12686,0.074 0.0138,0.0936 -0.0616,0.0559 0.0608,0.0629 -0.0414,0.008 0.062,0.0747 -0.008,0.0477 -0.0877,0.003 -0.0306,0.0965 -0.0832,0.02 -0.10037,0.0973 0.1735,0.11206 -0.0302,0.17088 -0.0944,0.0507 0.0571,0.0174 -0.0515,0.0655 0.0407,0.0333 -0.0817,0.0326 0.0459,0.0544 -0.0145,0.054 0.13769,0.02 0.0119,0.10208 -0.0452,0.0666 0.12762,0.0854 -0.0172,0.10097 0.0903,0.14795 -0.10672,0.12797 -0.0866,0.0326 -0.0284,0.22154 0.0257,0.0481 -0.0616,0.0462 0.0948,0.13869 -0.0246,0.0784 0.0772,0.23818 -0.005,0.10097 0.15224,0.15904 0.17201,0.0336 -0.0522,0.19639 -0.0791,0.0762 -0.0605,0.002 -0.0582,0.15053 -0.12686,0.13093 -0.032,0.15423 -0.0153,0.0162 -0.10785,0.0784 -0.0963,0.152 -0.0373,0.21711 -1.44218,-1.57226 -0.0115,-0.067 -0.26269,-0.18973 -0.24216,0.0795 -0.20001,-0.05 -0.0627,0.008 -0.044,0.0559 -0.15634,0.008 -0.063,-0.0289 -0.0507,-0.12686 -0.0671,0.0614 -0.0392,-0.008 -0.0183,-0.11022 -0.0981,-0.0529 -0.0474,0.005 -0.0478,0.005 0.0197,-0.0156 -0.0772,-0.067 -0.0593,0.0333 -0.0709,-0.0451 -0.094,0.19197 -0.0503,-0.0204 -0.0481,0.0566 -0.0515,-0.017 -0.11643,0.0766 -0.0556,-0.0437 -0.0127,-0.12538 -0.0806,-0.0714 -0.0858,-0.19269 -0.15523,-0.0399 -0.27575,0.0577 -0.0772,-0.0984 -0.0433,0.0295 -0.0183,-0.0954 0.0627,-0.017 -0.0493,-0.12242 -0.22911,0.0215 0.005,-0.0355 -0.0548,-0.0518 0.0336,-0.0433 -0.0142,-0.067 -0.0462,0.02 -0.0421,-0.0617 -0.11119,0.0591 -0.0534,-0.0211 -0.0328,0.051 0.081,0.28923 -0.0601,-0.014 -0.009,0.13315 -0.032,0.0188 0.0328,0.0311 -0.0582,0.0795 -0.12163,-0.0289 -0.0507,0.0655 -0.10896,-0.0481 -0.0758,0.0496 -0.0616,-0.0152 -0.0414,0.0788 -0.24553,0.0854 -0.10597,0.0215 -0.0567,-0.0415 -0.0145,0.0884 -0.0451,-0.0851 -0.0478,0.0292 -0.0522,-0.0755 0.1903,-0.23634 -0.0325,-0.33952 -0.0761,-0.0544 -0.0679,-0.0237 0.01,-0.0684 0.0481,-0.0969 0.12276,-0.11539 -0.0966,-0.12945 -0.005,-0.006 -0.0205,-0.0703 -0.007,-0.0241 0,-0.0355 -7.6e-4,-0.10208 0.005,-0.0503 0.0985,-0.10763 0.009,-0.11577 0.11492,-0.12501 -0.0179,-0.0277 -0.13396,0.0577 -0.0538,-0.0329 -0.0291,0.0377 -0.10635,-0.10837 -0.11643,0.0899 -0.081,-0.0152 0.0507,0.0277 -0.12537,0.0791 0.0269,0.0728 -0.0131,0.0348 -0.18695,0.0159 -0.0302,-0.0307 -0.0332,-0.034 -0.0977,0.0603 -0.0795,-0.0651 -0.0832,0.14387 -0.0776,0.0477 0.0306,0.034 -0.091,0.10725 -0.004,0.005 -0.13992,0.003 -0.032,0.091 -0.038,-0.0255 -0.1347,0.0451 0.0414,-0.084 -0.0481,0.002 -0.0526,0.0732 -0.0351,-0.008 -0.009,0.12131 -0.0515,-0.002 0.006,0.0488 -0.19404,0.0866 0.0261,0.0181 -0.0459,0.0455 0.0392,7.6e-4 0.002,0.0185 -0.008,0.016 -0.0384,-0.003 -0.0668,-0.0134 -0.009,-0.0466 -0.10969,0.0255 -0.0396,-0.002 -0.14215,-0.0425 0.0172,0.0991 -0.0384,0.0562 0.0829,0.064 -0.0571,0.0307 -0.0567,-0.0152 -0.0511,-0.0769 -0.12165,0.016 -0.022,0.0444 -0.0944,0.0292 -0.0362,0.0751 -0.0638,0 -0.0735,0.11983 -0.0329,-0.0585 -0.032,0.0806 -0.12723,0.0288 -0.0634,-0.0352 -0.11195,0.0854 -0.15522,-0.0366 -0.0317,0.0444 0.0202,0.0566 -0.0713,0.0473 0.019,0.0544 -0.0769,0.041 -0.0608,-0.10097 -0.15821,-0.0348 -0.002,-0.0137 -0.0187,-0.1927 0.0251,-0.0162 0.0399,-0.0251 -0.0589,-0.0129 0.008,-0.10505 0.0429,-0.0103 -0.12948,-0.0514 -0.0287,-0.0958 -0.0571,-0.005 0.0329,-0.14756 -0.0336,-0.0814 0.0418,-0.0547 -0.0115,-0.10762 -0.0582,-0.064 0.0306,-0.0618 -0.0287,-0.15201 0.0661,-0.0654 -0.005,-0.0788 0.0448,-0.0477 -0.0466,-0.22969 -0.0317,-0.0762 -0.0519,-0.0358 -0.0119,0.10208 -0.0877,0.0103 -0.0825,-0.0729 -0.13657,-0.0358 -0.0269,-0.054 0,-7.6e-4 -0.15561,0.14165 0.009,0.30365 -0.10559,0.21193 -0.003,0.0906 -0.16492,0.0307 -0.12165,0.11503 0.0109,0.23891 0.0452,0.0614 -0.063,0.0851 0.003,0.24077 -0.0571,0.18307 0.0698,0.0769 0.003,0.25223 -0.16678,0.11577 -0.12501,0.0381 -0.0966,0.0295 -0.16755,-0.26333 0.0273,-0.12834 0.1026,-0.23819 -0.025,-0.088 0.0478,-0.0196 -0.12202,-0.0951 -0.031,-0.0943 0.0806,-0.0366 0.12351,-0.15682 -0.004,-0.1361 0.0463,-0.0366 -0.008,-0.17938 0,-0.009 0.0302,-0.0459 -0.0683,-0.0773 0.0683,-0.0791 -0.11008,-0.0832 0.009,-0.0936 -0.072,-0.005 -0.05,-0.071 0.0731,-0.0251 0.0156,-0.0625 0.0828,-0.0418 0.005,-0.15462 0.0373,-0.0211 0.0187,-0.0111 -0.10149,-0.22968 -0.13022,0.009 0.0914,-0.0854 -0.11082,-0.18641 0.0213,-0.0599 -0.0746,-0.004 0.0146,-0.18085 -0.006,-0.03 -0.0161,-0.0126 -0.11044,0.006 -0.084,-0.0866 -0.0929,-0.003 -0.11157,-0.2049 -0.0142,-0.19121 -0.0246,-0.0396 -0.0881,-0.0488 -0.10298,0.0225 -0.006,-0.0858 -0.0862,-0.0462 -0.0448,0.0247 -0.0758,-0.098 -0.10484,-0.0162 -0.038,0.10097 -0.0563,0.005 -0.0421,-0.0784 -0.081,0.0226 -0.0683,0.0758 -0.0579,-0.0566 -0.0638,0.03 -0.0881,-0.12908 -0.0653,-0.0178 -0.0437,-0.1679 0.044,-0.16385 -0.10075,-0.18049 0.0541,-0.16015 -0.0228,-0.13463 -0.14589,-0.0396 -0.0672,-0.11243 -0.0713,-0.0189 -0.0481,-0.068 -0.25299,-0.23559 -0.009,0.0529 -0.0545,-0.0103 -0.0421,-0.091 -0.0612,0.003 0.003,-0.0396 -0.0735,-0.0403 0.009,-0.0355 -0.10933,-0.0326 0.0238,-0.0592 -0.0649,-0.0651 -0.0347,-0.10838 -0.0586,0.014 -0.0634,-0.0421 -0.002,0.0295 -0.12985,-4.1e-4 -0.0351,-0.0437 0.0374,-0.1202 -0.0634,-0.14351 0.009,-0.0988 -0.12724,-0.0518 -0.0601,0.0503 -0.004,-0.0555 -0.0832,-0.007 -0.0489,0.0351 0.0645,0.0999 -0.0888,-0.007 -0.0243,0.0144 -0.0187,0.0267 -1.13546,1.62366 -0.0541,-0.10504 -0.29217,-0.18418 -0.0593,-0.18604 -0.12911,-0.0547 -0.044,-0.064 -0.10672,-0.0366 -0.14365,0.0821 -0.0519,0.0295 -0.044,-0.0518 -0.2877,-0.057 -0.0847,-0.10837 0.031,-0.0233 -0.0604,-0.0115 0.005,-0.0403 0.0754,-0.0485 -0.0515,-0.0566 0.13507,-0.11206 0.0388,-0.11688 -0.0202,-0.0803 0.0567,-0.0636 -0.18471,-0.0222 -0.16119,-0.11132 -0.11232,0.002 -0.15262,-0.53666 -0.21119,0.12353 -0.10672,0.22413 -0.0642,0.0156 -0.15112,0.17863 -0.24775,0.14647 -0.0948,0.0947 -0.0403,0.11872 -0.14552,0.0736 -0.0261,0.057 -0.13731,-0.0203 -0.0705,0.0156 -0.0343,0.0674 -0.0705,0.003 0.002,0.009 0.0224,0.1043 -0.16717,0.10689 0.0358,0.1657 -0.0705,0.16938 -0.0571,0.044 -0.007,0.0788 -0.0627,-0.0185 -0.0515,0.0518 -0.13657,0.28774 -0.005,0.0451 -0.005,0.0447 0.0478,0.0455 -0.0369,0.0976 -0.0597,0.0307 -0.20075,0.37836 -0.25262,0.33102 -0.18059,0.16644 -0.20037,0.4305 0.005,0.0914 0.10821,0.078 0.0339,0.11465 -0.12762,0.19714 -0.025,0.11464 0.11791,0.27629 -0.0332,0.11724 0.0374,0.14795 0.004,0.0144 -0.056,0.14979 0.10634,0.26408 -0.002,0.0784 -0.0235,0.14091 -0.32462,0.22858 -1.13583,-0.61063 -1.69218,-0.93055 -0.002,-7.6e-4 -3.55788,-1.98391 -0.05,-0.0947 -0.0563,-0.0229 -0.25188,-0.0836 -0.15783,0.0336 -0.30523,-0.23375 -0.13284,0.0714 -0.15672,-0.1435 -0.17686,-0.0529 -0.24851,0.0706 -0.0653,-0.0207 -0.0698,-0.12835 -0.25747,-0.0692 -0.0806,-0.12576 -0.29664,0.0244 -0.0683,0.0396 -0.20411,-0.0732 -0.27089,-0.0263 -0.12798,-0.10874 -0.14627,0.041 -0.0418,-0.061 -0.078,0.0118 -0.004,0.0444 -0.14626,-0.0718 -0.05,-0.0751 -0.056,0.0137 -0.0761,-0.10726 -0.0257,0.0229 -0.13956,-0.0459 -0.008,-0.15127 -0.0713,-0.0348 0.003,-0.051 -0.0545,0.0418 -0.0735,-0.0581 -0.10074,0.0118 -0.003,-0.0459 -0.14702,-0.0241 0.015,-0.0352 -0.1112,-0.0437 -0.0373,0.0366 -0.10038,-0.0414 -0.0161,0.0329 -0.0534,-0.0825 -0.0205,0.0207 -0.0205,0.0203 -0.0399,-0.1313 -0.0358,-0.0255 -0.0328,-0.0729 -0.0462,0.0196 -0.0235,-0.0455 0.0134,-0.15496 -0.0552,-0.0751 0.0187,-0.0869 0.0616,-0.0566 0.004,-0.0126 0.009,-0.047 -0.0246,-0.16607 0.11791,-0.15978 -0.0795,-0.091 0.0657,-0.0366 -0.0202,-0.0322 0.11418,-0.0544 0.0538,-0.20009 -0.17463,-0.12982 -0.004,-0.007 0.0437,-0.017 0.0157,-0.11059 -0.069,-0.17309 0.0563,-0.0377 -0.005,0.0799 0.0351,0.0473 0.0261,-0.0647 0.0538,-0.0111 0.0224,0.0322 0.0343,0.0492 0.0332,-0.12834 0.0649,0.0603 0.0721,-0.008 -0.0437,-0.057 0.075,-0.16089 -0.0664,-0.10614 0.12127,-0.10616 -0.0336,-0.0951 0.0626,-0.0326 0.0232,-0.11687 0.078,0.0714 0.13768,-0.0825 -0.10336,-0.3129 0.0888,-0.2086 0.0384,-0.0211 0.0515,0.0925 0.0265,0.006 0.0295,-0.008 0.20783,-0.14721 0.0507,-0.10356 0.12874,0.002 -0.056,-0.10394 -0.0664,-0.0218 -0.0302,0.005 -0.004,0.0736 -0.0668,0.014 -0.0205,-0.15348 -0.10859,-0.0562 -0.0798,-0.13167 0.11642,-0.17309 0.0455,-0.37614 0.007,-0.0129 0.12389,-0.10245 -0.003,-0.11576 0.1026,-0.0862 0.14627,-0.0374 0.0399,-0.13573 0.0138,-0.0455 0.16568,-0.0311 0.004,-7.6e-4 0.0478,-0.047 0.0232,-0.0392 0.0149,-0.20453 0.18396,-0.19306 -0.34031,0.14202 0.002,0.14017 -0.0459,0.044 -0.0951,7.6e-4 -0.0649,-0.037 -0.005,-0.0821 -0.0896,-0.004 -0.016,0.068 0.15635,0.0766 0.007,0.0547 -0.0153,0.014 -0.15671,0.007 -0.16157,0.0588 -0.0402,0.05 0.0895,0.0126 0.007,0.0743 -0.17724,-0.0314 -0.0903,0.11281 -0.26829,0.0736 -0.11305,0.17494 -0.0261,0.0196 -0.0366,0.0103 -0.18657,0.003 -0.0739,0.098 -0.26567,0.11392 -0.094,0.0729 -0.0503,0.0477 0.0661,0.014 0.0664,0.10023 -0.0112,0.044 -0.19031,-0.0765 -0.0507,0.0632 0.0466,0.12908 -0.0187,0.0551 -0.14999,-0.0336 -0.0328,0.02 0.0153,0.0958 -0.15858,-0.0166 -0.0731,0.0514 0.0877,0.0902 -0.0955,0.0107 -0.0377,0.0621 0.0388,0.13463 -0.0503,0.0484 -0.13619,0.0196 -0.0601,0.15238 -0.13173,0.14239 0.0836,0.0507 -0.0119,0.0617 -0.17462,0.0322 -0.13621,0.11651 0.0821,0.25298 -0.0191,0.0466 -0.0616,0.0174 -0.10448,-0.10762 -0.16007,0.12686 0.025,0.051 0.006,0 0.0497,-0.0692 0.0414,-0.004 0.0197,0.0122 -0.002,0.0174 -0.0955,0.0869 0.0544,0.0928 -0.0522,0.10393 0.0507,0.13981 -0.0336,0.0506 -0.0698,0.0403 -0.24255,-0.0411 -0.031,0.10836 -0.16156,0.0759 -0.009,0.0743 0.12612,0.0588 0.0197,0.10615 -0.022,0.0677 -0.1668,0.0374 -0.0429,0.10874 0.0336,0.0473 0.13322,-0.004 0.0402,0.0366 -0.10597,0.0573 0.0205,0.13869 -0.10559,0.0455 -0.10896,0.11354 0.10672,0.30883 -0.0746,0.0244 -0.0358,0.0625 0.0369,0.11095 -0.0548,0.15757 -0.18209,0.21636 -0.0239,-0.18826 -0.0858,-0.0969 -0.13769,0.0847 -0.41381,-0.002 -0.36568,-0.19529 -0.0332,-0.0928 0.2347,-0.1583 0.0115,-0.0178 0.004,-0.02 -0.0172,-0.0196 -0.0421,-0.009 -0.22203,0.008 -0.12089,0.21044 -0.0545,0.0377 -0.0545,-0.0218 -0.0455,-0.0925 0.0142,-0.13906 0.16083,-0.28294 -0.0362,-0.0496 -0.18246,0.0518 -0.0679,-0.0496 0.1041,-0.12871 0.0462,-0.31178 -0.16455,-0.17051 0.084,-0.17901 -0.0366,-0.0352 -0.14105,0.008 -0.11417,-0.27037 -0.002,-0.067 0.10112,-0.11392 -0.007,-0.14868 -0.1097,-0.0599 -0.51494,0.0211 -0.0172,-0.27666 -0.0631,-0.17013 0.0455,-0.12871 0.0974,-0.071 0.24329,0.0873 0.0694,-0.0481 -0.0172,-0.17863 -0.20149,-0.13575 0.10522,-0.20045 0.14478,-0.15165 0.0679,-0.38798 0.16082,-0.28145 -0.0832,-0.25853 0.1276,-0.0891 0.17874,0.0696 0.003,-0.002 0.0403,-0.0344 0.0627,-0.30845 -0.17054,-0.13944 0.0683,-0.38797 -0.0642,-0.20195 -0.13881,-0.23523 0.0735,-0.25223 -0.0679,-0.0743 -0.063,-0.23301 0.0437,-0.0706 0.17426,-0.13353 0.007,-0.0269 -0.0287,-0.12612 -0.20859,-0.22931 0.0668,-0.30957 -0.13172,-0.0532 -0.275,0.008 -0.097,-0.19601 0.091,-0.16496 0.002,-0.38428 0.0967,-0.17088 -0.0612,-0.19824 0.10373,-0.50152 -0.004,-0.19454 -0.22462,-0.2282 -0.005,-0.11132 0.10896,-0.18938 -0.0735,-0.10171 -0.005,-0.10503 0.0265,-0.12908 0.30076,-0.2822 0.025,-0.22155 -0.15561,-0.23707 0.10374,-0.15794 0.21941,-0.13647 0.0153,-0.21266 -0.24253,-0.20342 -0.27054,-0.0507 -0.0433,-0.0462 -0.0205,-0.39797 -0.0743,-0.12685 -0.0743,-0.1265 -0.0858,-0.41312 -0.0694,-0.13833 -0.0985,-0.19639 0.005,-0.0939 0.28507,-0.297 0.0869,-0.0743 0.19031,-0.0866 0.0866,-0.12538 0.0384,-0.11133 0.009,-0.25557 -0.0224,-0.28293 0.0686,-0.10578 0.01,-0.0862 0.005,-0.162 -0.008,-0.0518 -0.0791,-0.0803 -0.0374,-0.027 -0.091,-0.002 -0.17985,-0.005 -0.27986,-0.0363 -0.0224,-0.0107 -0.0197,-0.0292 -0.26083,-0.43532 -0.006,-0.0295 0.0694,-0.28516 -0.0534,-0.14794 0.006,-0.30846 -0.0385,-0.21082 0.0332,-0.22931 0,7.6e-4 z"
     class="fil1"
     id="uf_17"
     inkscape:export-filename="/home/vinicius/Documentos/git_project/viniciusaires7.github.io/images/maratonato.png"
     inkscape:export-xdpi="90"
     inkscape:export-ydpi="90" /></svg>